<svg xmlns="http://www.w3.org/2000/svg">
<defs>
<font id="FFF-Ultra" horiz-adv-x="542" >
  <font-face 
    font-family="FFF"
    font-weight="900"
    font-stretch="normal"
    units-per-em="1000"
    panose-1="0 0 0 0 0 0 0 0 0 0"
    ascent="750"
    descent="-250"
    x-height="699"
    cap-height="699"
    bbox="-182.961 -322.9 966 1039"
    underline-thickness="50"
    underline-position="-150"
    unicode-range="U+0020-F6D4"
  />
<missing-glyph horiz-adv-x="683" 
d="M622 488v-22v-54v-118v-160v-3h-2h-85q-1 0 -2 1q-6 3 -10 7q-1 1 -3 1h-2h-124h-2l-1 -1q1 -1 2 -1q4 -4 7 -6v-1h-2h-92.5t-91.5 -1h-15q-5 -1 -9 -1t-9 -1q-5 0 -9.5 -0.5t-9.5 -0.5q-3 -1 -8 -1q-3 0 -6 -0.5t-5 -0.5q-8 0 -11 -1q-5 0 -9.5 -0.5t-9.5 -0.5
q-5 -1 -9 -1t-9 -1q-3 0 -5 -0.5t-4 -0.5q-5 0 -9 -0.5t-9 -0.5q-4 -1 -11 -1q-6 -1 -11 -1t-10 -1q-4 0 -7 -0.5t-7 -0.5l-1 -1h-1v9q23 2 46.5 3.5t46.5 3.5q-2 0 -2.5 0.5t-2.5 0.5h-64h-34h-2v4v327v3v2h-3l-2 1q-3 3 -5 4l-1 1q1 1 4 1h3q1 1 1.5 0.5t2.5 0.5q0 5 -1 7
h-3h-4h-3q0 2 -0.5 3.5t0.5 3.5h2h2q-1 2 -2.5 3.5l-3.5 3.5v32q0 -1 2 -1q3 -3 9 -7l2 -1v3v17q0 4 -1 6v6q1 4 0 9v1q0 4 1 6v1v5q0 1 -0.5 1t-0.5 1v2v4q0 1 1 2v7h-2v1v6q1 0 2 1v7h-2q0 2 -0.5 3.5t0.5 3.5q0 1 2 1q0 5 -1 7q0 1 -2 1v3v4h3v8h-3v7h2q1 1 1 4h8h9h8h8
h8q0 1 -1 1q-2 0 -3 0.5t-3 0.5q-4 1 -7 2t-7 2q-7 0 -11 -1q-7 0 -11 -1l-1 1q-1 2 -1 6q-2 0 -3 1q2 17 3 34l2 34h4q6 -2 12 -3t11 -3q6 -2 11.5 -2.5t11.5 -2.5t11.5 -3t11.5 -2q13 -4 23 -5q5 -2 11 -3t12 -3h4q10 0 14 1h3h2v3v10v2h3h178q6 0 12 0.5t12 0.5q5 1 9 1
t9 1q5 0 9.5 0.5t9.5 1.5q6 0 9 1q5 0 9 0.5t9 0.5q5 1 9.5 1t9.5 1h8q4 1 11 1q3 0 5.5 0.5t5.5 0.5q5 0 9 0.5t9 1.5h9.5t9.5 1q6 0 9 1q5 0 9 0.5t9 0.5q3 0 5.5 0.5t5.5 0.5q6 0 9 1q7 0 10 1h12q2 1 8 1q2 0 5 0.5t5 0.5q8 0 12 1q6 0 10 1h4q1 -3 1 -7q-2 0 -3.5 -0.5
t-3.5 -0.5q-5 0 -11 -0.5t-11 -1.5q-6 0 -11.5 -0.5t-11.5 -0.5q-5 -1 -11 -1.5t-12 -0.5q-5 -1 -11 -1t-11 -1t-11 -1t-12 -1q-5 0 -11 -0.5t-11 -1.5q-7 -1 -13.5 -1t-12.5 -1q-5 -1 -13 -1v-1h2h75q7 0 14 0.5t14 0.5q3 1 9 1q5 0 8.5 0.5t8.5 1.5t10 1h10q2 1 7 1

<glyph glyph-name=".notdef" horiz-adv-x="683" 
d="M622 488v-22v-54v-118v-160v-3h-2h-85q-1 0 -2 1q-6 3 -10 7q-1 1 -3 1h-2h-124h-2l-1 -1q1 -1 2 -1q4 -4 7 -6v-1h-2h-92.5t-91.5 -1h-15q-5 -1 -9 -1t-9 -1q-5 0 -9.5 -0.5t-9.5 -0.5q-3 -1 -8 -1q-3 0 -6 -0.5t-5 -0.5q-8 0 -11 -1q-5 0 -9.5 -0.5t-9.5 -0.5
q-5 -1 -9 -1t-9 -1q-3 0 -5 -0.5t-4 -0.5q-5 0 -9 -0.5t-9 -0.5q-4 -1 -11 -1q-6 -1 -11 -1t-10 -1q-4 0 -7 -0.5t-7 -0.5l-1 -1h-1v9q23 2 46.5 3.5t46.5 3.5q-2 0 -2.5 0.5t-2.5 0.5h-64h-34h-2v4v327v3v2h-3l-2 1q-3 3 -5 4l-1 1q1 1 4 1h3q1 1 1.5 0.5t2.5 0.5q0 5 -1 7
h-3h-4h-3q0 2 -0.5 3.5t0.5 3.5h2h2q-1 2 -2.5 3.5l-3.5 3.5v32q0 -1 2 -1q3 -3 9 -7l2 -1v3v17q0 4 -1 6v6q1 4 0 9v1q0 4 1 6v1v5q0 1 -0.5 1t-0.5 1v2v4q0 1 1 2v7h-2v1v6q1 0 2 1v7h-2q0 2 -0.5 3.5t0.5 3.5q0 1 2 1q0 5 -1 7q0 1 -2 1v3v4h3v8h-3v7h2q1 1 1 4h8h9h8h8
h8q0 1 -1 1q-2 0 -3 0.5t-3 0.5q-4 1 -7 2t-7 2q-7 0 -11 -1q-7 0 -11 -1l-1 1q-1 2 -1 6q-2 0 -3 1q2 17 3 34l2 34h4q6 -2 12 -3t11 -3q6 -2 11.5 -2.5t11.5 -2.5t11.5 -3t11.5 -2q13 -4 23 -5q5 -2 11 -3t12 -3h4q10 0 14 1h3h2v3v10v2h3h178q6 0 12 0.5t12 0.5q5 1 9 1
t9 1q5 0 9.5 0.5t9.5 1.5q6 0 9 1q5 0 9 0.5t9 0.5q5 1 9.5 1t9.5 1h8q4 1 11 1q3 0 5.5 0.5t5.5 0.5q5 0 9 0.5t9 1.5h9.5t9.5 1q6 0 9 1q5 0 9 0.5t9 0.5q3 0 5.5 0.5t5.5 0.5q6 0 9 1q7 0 10 1h12q2 1 8 1q2 0 5 0.5t5 0.5q8 0 12 1q6 0 10 1h4q1 -3 1 -7q-2 0 -3.5 -0.5
t-3.5 -0.5q-5 0 -11 -0.5t-11 -1.5q-6 0 -11.5 -0.5t-11.5 -0.5q-5 -1 -11 -1.5t-12 -0.5q-5 -1 -11 -1t-11 -1t-11 -1t-12 -1q-5 0 -11 -0.5t-11 -1.5q-7 -1 -13.5 -1t-12.5 -1q-5 -1 -13 -1v-1h2h75q7 0 14 0.5t14 0.5q3 1 9 1q5 0 8.5 0.5t8.5 1.5t10 1h10q2 1 7 1
q2 0 4.5 0.5t4.5 0.5h6.5t6.5 1l1 -1v-7h5v-4v-143v-26v-9v-23v-23zM145 693q0 -2 -0.5 -3.5t0.5 -3.5h3v8q-1 0 -1.5 -0.5t-1.5 -0.5zM143 670h5v8q-3 0 -4 -1q0 -1 -0.5 -1.5t-0.5 -1.5v-4zM143 662q-1 -2 -1 -7q2 -1 3 -0.5t3 0.5v7q-1 0 -1 1q-1 0 -2 -0.5t-2 -0.5z
M242 534q0 4 -2 8q-3 4 -8 4h-118q-6 0 -9 -4q-3 -3 -3 -8v-214q0 -6 3 -9q4 -4 9 -4h29q5 0 7 4q3 3 3 9v79h63q5 0 8 3t3 8v29q0 4 -3 7t-8 3h-63v45h79q5 0 8 4q2 4 2 8v28zM394 534q0 5 -3 8q-3 4 -7 4h-119q-5 0 -8 -4q-4 -4 -4 -8v-214q0 -5 4 -9t8 -4h30q3 0 7 4
q3 3 3 9v79h62q5 0 8 3t3 8v29q0 4 -3 7t-8 3h-62v45h79q4 0 7 4q3 3 3 8v28zM545 534q0 6 -3 8q-1 4 -7 4h-118q-6 0 -9 -4q-3 -3 -3 -8v-214q0 -6 3 -9q4 -4 9 -4h29q3 0 7 4q3 3 3 9v79h63q4 0 7 3q4 4 4 8v29q0 3 -4 7q-3 3 -7 3h-63v45h79q6 0 7 4q3 2 3 8v28zM29 74
q9 0 12 -7t3 -16q0 -8 -3 -16t-12 -8t-12 8t-3 16q0 5 1.5 12t6.5 9q4 2 7 2zM36 51q0 6 -1.5 11t-5.5 5q-2 0 -4 -2t-2.5 -7t-0.5 -7q0 -4 1 -10.5t6 -6.5q2 0 4 2q3 6 3 15zM69 28h-1l-13 28v-28h-6h-1v45h1h5h1l10 -23l3 -6v29h1h5h1v-45h-1h-5zM81 73h1h6v-38h14l1 -1
v-6h-1h-20h-1v45zM121 28h-6h-1v20l-10 24v1h1h6l4 -9q1 -2 2 -5.5t1 -4.5q0 2 1 5t2 5l3 9h1h6h1v-1l-11 -24v-20zM157 28v45h25v-6v-1h-18v-12h15v-1v-6h-15v-19h-1h-6zM226 28h-7v45h12q13 0 13 -14q0 -8 -5 -12l7 -19h-9l-5 16h-6v-16zM226 66v-15q7 0 9 1t2 3v4
q0 7 -9 7h-2zM303 73h25v-6v-1h-18v-12h15q1 0 1 -1v-6h-1h-15v-12h18v-1v-6h-25v45zM345 73h1h4h1l14 -45h-1h-6l-3 8h-14q-2 -6 -2 -8h-7zM349 57q-1 5 -1 3.5t-1 -3.5l-4 -14h10zM369 73h6h1v-38h13l1 -1v-6h-1h-20v45zM415 28v45h1h24h1v-6q0 -1 -1 -1h-18v-12h15
q1 0 1 -1v-6h-1h-15v-19h-6h-1zM445 73h1h5h1v-45h-1h-5h-1v45zM471 27q-4 0 -8 2q-2 2 -4 6t-2 7v10v8q1 2 1 3.5t1 3.5q2 4 4 5q4 2 7 2q4 0 5 -1q1 0 5 -2q2 -2 3 -4q2 -4 2 -7q0 -1 -1 -1h-1q-1 0 -1 -0.5t-1 -0.5h-2h-1q0 1 -0.5 1.5t-0.5 1.5q0 2 -0.5 2t-0.5 1l-2 2
q-1 1 -3 1t-2.5 -0.5t-1.5 -0.5q-2 -2 -2 -4q0 -1 -0.5 -2t-0.5 -2v-6v-7q1 -2 1 -5l2 -4q2 -2 4 -2t3 1l2 2q1 1 1 4q1 1 1 4h-5h-1v7h1h12h1v-24h-4l-1 5q0 -1 -2 -3l-2 -2q-2 0 -3 -1h-3zM512 47h-13v-19h-6h-1v45h1h6v-19h13v19h1h6v-45h-6h-1v19zM551 73v-6v-1h-10v-38
h-1h-5h-1v38h-9l-1 1v6h1h26zM555 73h1h24h1v-6q0 -1 -1 -1h-18v-12h15q1 0 1 -1v-6h-1h-15v-12h18q1 0 1 -1v-6h-1h-24h-1v45zM593 28h-6v45h12q4 0 5 -1q2 -1 4 -3q1 -1 3 -5q0 -1 0.5 -2t0.5 -3q0 -3 -2 -7q0 -2 -3 -5l6 -19h-1h-6h-1l-5 16h-1h-1h-2h-3v-16zM593 66v-15
h3q2 0 3 1q2 0 3 1q2 0 2 2q0 1 0.5 1.5t0.5 2.5q0 7 -9 7h-3zM616 62q0 4 1 5t1.5 2t1.5 2q2 2 4 2q1 1 5 1q3 0 4 -1q2 0 4 -2l3 -3q1 -1 1 -2t1 -3q0 -1 -1 -1t-1 -0.5t-2 -0.5l-2 -1h-1v1q-1 1 -1 2t-0.5 1t-0.5 1l-2 1q-1 1 -3 1q-1 0 -3 -2t-2 -3t0.5 -1.5t0.5 -1.5
l2 -2q1 -1 1.5 -1t1.5 -1l4 -2l2 -2q1 0 3 -2t2 -5q1 -1 1 -5q0 -6 -3 -9t-10 -3q-4 0 -5 1t-2 1.5t-2 1.5q-2 2 -3 4q0 1 -0.5 2t-0.5 2v1q1 1 4 1q1 1 3 1l1 -2q0 -1 0.5 -1.5t0.5 -1.5l2 -2q1 -1 2 -1q3 0 5 2q1 1 1 3v2l-2 2q0 1 -0.5 1t-0.5 1l-2 2q-1 1 -2 1.5t-2 1.5
q-2 1 -4 3q-3 1 -4 4q-1 1 -1 5zM199 74q9 0 12 -7t3 -16q0 -8 -3 -16t-12 -8t-12 8t-3 16q0 5 1.5 12t6.5 9q4 2 7 2zM206 51q0 6 -1.5 11t-5.5 5q-2 0 -4 -2t-2.5 -7t-0.5 -7q0 -4 1 -10.5t6 -6.5q2 0 4 2q3 6 3 15zM279 28h-7v45h12q13 0 13 -14q0 -8 -5 -12l7 -19h-9
l-5 16h-6v-16zM279 66v-15q7 0 9 1t2 3v4q0 7 -9 7h-2z" />
    <glyph glyph-name=".null" horiz-adv-x="0" 
 />
    <glyph glyph-name="nonmarkingreturn" horiz-adv-x="333" 
 />
    <glyph glyph-name="space" unicode=" " horiz-adv-x="337" 
 />
    <glyph glyph-name="exclam" unicode="!" horiz-adv-x="208" 
d="M55 215q-14 0 -24.5 10t-10.5 24l-11 416q-1 15 8.5 24.5t25.5 9.5h106q11 0 20.5 -9.5t9.5 -24.5l-11 -416q-1 -15 -10 -24.5t-20 -9.5h-83zM141 175q13 0 21.5 -9t8.5 -24v-107q0 -16 -8.5 -25.5t-21.5 -9.5h-88q-16 0 -25.5 9.5t-9.5 25.5v107q0 15 9.5 24t25.5 9h88z
" />
    <glyph glyph-name="quotedbl" unicode="&#x22;" horiz-adv-x="425" 
d="M186 503q-1 -14 -9.5 -24t-22.5 -10h-81q-15 0 -24.5 9.5t-9.5 24.5q-2 48 -4 94.5t-4 94.5q0 15 8 24.5t24 9.5h101q14 0 22.5 -12t8.5 -23zM382 503q-1 -14 -9.5 -24t-22.5 -10h-81q-15 0 -24.5 9.5t-9.5 24.5q-2 48 -4 94.5t-4 94.5q0 15 8 24.5t24 9.5h101
q14 0 22.5 -12t8.5 -23z" />
    <glyph glyph-name="numbersign" unicode="#" horiz-adv-x="698" 
d="M516 387h-21q-2 -3 -3 -7.5t-3.5 -13.5t-5.5 -24t-8 -39h86q18 0 26.5 -13t8.5 -29l-21 -75q-4 -10 -14 -15t-20 -5h-100q-9 -35 -18.5 -75t-16.5 -69q-2 -8 -11 -15t-19 -7h-85q-17 0 -25.5 8t-8.5 22q0 6 1 10l30 126h-57q-11 -42 -19.5 -78t-13.5 -65q-3 -9 -12.5 -16
t-20.5 -7h-84q-18 0 -25 9.5t-7 24.5v7l31 126h-75q-14 0 -22.5 8.5t-8.5 22.5q0 5 1 8l18 76q5 7 14.5 15t20.5 8h84q0 2 1 5.5t3.5 12t6.5 24t10 42.5h-71q-12 0 -21 10.5t-9 27.5v8t1.5 10t6 21t12.5 42q2 9 12.5 15t19.5 6h84l33 142q2 11 13 19.5t22 8.5h84
q14 0 22 -12.5t8 -29.5l-31 -129h58q2 9 4.5 18.5t6.5 25t9.5 39t14.5 60.5q2 11 12.5 19.5t21.5 8.5h84q12 0 22 -10t10 -23q0 -2 -0.5 -3.5t-0.5 -3.5l-30 -132h87q16 0 26 -10.5t10 -24.5q0 -6 -1 -9l-24 -72q-4 -11 -13 -17.5t-18 -6.5h-82zM285 388l-21 -84h59l18 84
h-56z" />
    <glyph glyph-name="dollar" unicode="$" horiz-adv-x="448" 
d="M28 516q0 67 33.5 113.5t90.5 66.5v22q0 15 9.5 24.5t24.5 9.5h80q13 0 22 -9.5t9 -24.5v-21q46 -17 81.5 -57.5t56.5 -110.5q3 -11 -2.5 -19.5t-16.5 -13.5q-10 -5 -28.5 -11t-56.5 -19q-10 -3 -20.5 4t-13.5 15q-12 30 -29.5 54.5t-49.5 24.5q-19 0 -35 -15t-16 -36
t16 -39t38.5 -33t46.5 -28t41 -25q16 -12 37 -28.5t39.5 -40.5t31 -56.5t12.5 -75.5q0 -70 -34 -117t-98 -66v-31q0 -16 -9 -25.5t-22 -9.5h-80q-15 0 -24.5 9.5t-9.5 25.5v29q-29 10 -51.5 28.5t-39.5 42.5t-29 53t-20 59q-4 15 2 22.5t18 11.5q20 11 39 17.5t43 13.5
q10 2 21 -4.5t15 -13.5q9 -17 16 -34.5t15 -32t17 -24t23 -9.5q31 0 48 16.5t17 38.5q0 27 -28 54.5t-81 65.5q-28 19 -54.5 39.5t-47.5 45.5t-34 55t-13 69z" />
    <glyph glyph-name="percent" unicode="%" horiz-adv-x="794" 
d="M178 0q-27 0 -49 6.5t-36.5 15t-21 17.5t-3.5 14l422 627l-1 -1q2 6 14 13t17 7h84q9 0 15.5 -5.5t10 -14t3.5 -18t-3 -16.5l-424 -627v1q-5 -9 -14 -14t-14 -5zM578 371q7 0 21.5 -2t31 -9.5t32.5 -21t27 -37.5q8 -17 11.5 -51t3.5 -68q0 -36 -4.5 -71t-17.5 -62.5
t-38 -44.5t-65 -17q-39 0 -63 17t-37.5 44t-18 61t-4.5 68q0 38 4.5 73t17.5 62t37 43t62 16zM150 750q7 0 21.5 -2t31 -9.5t32.5 -21t27 -37.5q8 -17 11.5 -51t3.5 -68q0 -36 -4.5 -71t-17.5 -62.5t-38 -44.5t-65 -17q-39 0 -63 17t-37.5 44t-18 61t-4.5 68q0 38 4.5 73
t17.5 62t37 43t62 16zM171 561q0 9 0.5 20.5t-1 22t-5.5 17.5t-13 8q-6 0 -10.5 -6.5t-7 -16.5t-3.5 -22t-1 -22q0 -12 1 -25.5t3.5 -25t7 -18.5t10.5 -7q13 0 16 23.5t3 51.5zM599 182q0 9 0.5 20.5t-1 22t-5.5 17.5t-13 8q-6 0 -10.5 -6.5t-7 -16.5t-3.5 -22t-1 -22
q0 -12 1 -25.5t3.5 -25t7 -18.5t10.5 -7q13 0 16 23.5t3 51.5z" />
    <glyph glyph-name="ampersand" unicode="&#x26;" horiz-adv-x="613" 
d="M189 519q0 -25 14 -45.5t28 -40.5q20 14 38.5 36t18.5 54q0 24 -13 39.5t-42 15.5q-9 0 -17 -5.5t-14 -14.5t-9.5 -19.5t-3.5 -19.5zM219 124q15 0 29.5 12t19.5 20l-68 92q-20 -14 -34.5 -31t-14.5 -43q0 -13 6.5 -22.5t16.5 -15.5t22 -9t23 -3zM474 128q6 1 12 4.5
t12 8t12.5 8t15.5 3.5q4 0 9.5 -2t14.5 -9t22.5 -19t34.5 -33q8 -8 7.5 -18.5t-8.5 -18.5v1q-26 -28 -59 -46.5t-65 -18.5q-31 0 -58 12.5t-57 37.5q-31 -23 -65.5 -39t-73.5 -16q-48 0 -88.5 14.5t-69.5 41.5t-45 65.5t-16 86.5q0 24 10 48t26.5 46.5t37 41.5t41.5 32
q-22 36 -43 73.5t-21 79.5q0 89 48 141.5t131 52.5q40 0 74.5 -13.5t59 -38t38.5 -58t14 -73.5q0 -6 -3.5 -27.5t-15.5 -50t-35 -59.5t-62 -56q7 -11 15 -22q7 -10 16 -23.5t20 -28.5q11 19 18.5 39t12.5 44q0 5 5.5 8t10.5 3l103 -20q15 -3 14 -16q-3 -18 -11 -39
t-18.5 -43.5t-23 -45t-24.5 -42.5q5 -5 12 -11t15 -5z" />
    <glyph glyph-name="quotesingle" unicode="'" horiz-adv-x="270" 
d="M21 795q0 16 9 25.5t21 9.5h103q16 0 24.5 -9.5t8.5 -25.5v-94q-5 -57 -44.5 -92t-96.5 -45q-19 -3 -30.5 4t-11.5 26q0 11 -1.5 19t-1.5 10q0 14 9.5 23t24.5 9q2 0 4 2.5t-1 4.5q-7 5 -12 12.5t-5 19.5v101z" />
    <glyph glyph-name="parenleft" unicode="(" horiz-adv-x="393" 
d="M270 -29q0 -14 -9 -23.5t-21 -9.5q-50 0 -86 18.5t-61 50t-40.5 73t-24 86.5t-11.5 91.5t-3 88.5q0 45 3 95t11 99t22.5 94t37.5 79t56 54.5t79 20.5h8q12 0 21 -6.5t9 -14.5v-98q0 -14 -9.5 -22.5t-20.5 -8.5q-17 0 -28 -14.5t-19 -38t-12 -53.5t-6 -62t-2.5 -62.5
t-0.5 -55.5q0 -38 2 -84.5t9.5 -87t22 -68t39.5 -27.5q10 0 22 -9.5t12 -24.5v-80z" />
    <glyph glyph-name="parenright" unicode=")" horiz-adv-x="343" 
d="M14 51q0 15 12 24.5t22 9.5q25 0 39.5 27.5t22 68t9.5 87t2 84.5q0 25 -0.5 55.5t-2.5 62.5t-6 62t-12 53.5t-19.5 38t-27.5 14.5q-11 0 -20.5 8.5t-9.5 22.5v98q0 8 9 14.5t21 6.5h8q45 0 78.5 -20.5t56.5 -54.5t37.5 -79t22.5 -94t11 -99t3 -95q0 -42 -3 -88.5
t-11.5 -91.5t-24 -86.5t-40.5 -73t-61 -50t-86 -18.5q-12 0 -21 9.5t-9 23.5v80z" />
    <glyph glyph-name="asterisk" unicode="*" horiz-adv-x="416" 
d="M53 351q-8 5 -11 11t-4 11q-1 6 1 12l22 43h-36q-16 0 -25 8.5t-9 21.5v85q0 16 9 25.5t25 9.5h32l-13 22q-10 15 -3.5 30.5t19.5 19.5l65 38q11 8 27 3.5t20 -14.5l-1 1l24 -32l21 35q5 6 16.5 9.5t25.5 -2.5l76 -39q10 -5 12 -11.5t-0.5 -15.5t-8 -20t-11.5 -24h30
q16 0 25.5 -9.5t9.5 -25.5v-85q0 -13 -9.5 -21.5t-25.5 -8.5h-38l21 -28q5 -10 5 -24t-10 -23l-90 -51q-5 -2 -14 -0.5t-14 12.5l-22 41l-21 -35l1 1q-5 -12 -18.5 -17t-23.5 0z" />
    <glyph glyph-name="plus" unicode="+" horiz-adv-x="322" 
d="M78 388v52q0 14 9 22t22 8h73q16 0 25 -8t9 -22v-52h52q16 0 25.5 -9t9.5 -25v-74q0 -16 -9.5 -25.5t-25.5 -9.5h-52v-51q0 -30 -34 -30h-73q-13 0 -22 8t-9 22v51h-50q-16 0 -25.5 9.5t-9.5 25.5v74q0 16 9.5 25t25.5 9h50z" />
    <glyph glyph-name="comma" unicode="," horiz-adv-x="347" 
d="M86 164q0 16 9 25.5t21 9.5h103q16 0 24.5 -9.5t8.5 -25.5v-94q-5 -57 -44.5 -92t-96.5 -45q-19 -3 -30.5 4t-11.5 26q0 11 -1.5 19t-1.5 10q0 14 9.5 23t24.5 9q2 0 4 2.5t-1 4.5q-7 5 -12 12.5t-5 19.5v101z" />
    <glyph glyph-name="hyphen" unicode="-" horiz-adv-x="314" 
d="M269 361q16 0 25.5 -9.5t9.5 -24.5v-81q0 -15 -9.5 -24.5t-25.5 -9.5h-240q-16 0 -25.5 9.5t-9.5 24.5v81q0 15 9.5 24.5t25.5 9.5h240z" />
    <glyph glyph-name="period" unicode="." horiz-adv-x="339" 
d="M80 138q0 16 9.5 25.5t24.5 9.5h103q16 0 25.5 -9.5t9.5 -25.5v-110q0 -16 -9.5 -25.5t-25.5 -9.5h-103q-15 0 -24.5 9.5t-9.5 25.5v110z" />
    <glyph glyph-name="slash" unicode="/" horiz-adv-x="418" 
d="M222 675q4 11 11.5 17.5t21.5 6.5h84q15 0 26 -13.5t6 -32.5l-210 -629q-5 -9 -14 -16.5t-16 -7.5h-86q-20 0 -29.5 13t-4.5 29z" />
    <glyph glyph-name="zero" unicode="0" horiz-adv-x="683" 
d="M622 488v-22v-54v-118v-160v-3h-2h-85q-1 0 -2 1q-6 3 -10 7q-1 1 -3 1h-2h-124h-2l-1 -1q1 -1 2 -1q4 -4 7 -6v-1h-2h-92.5t-91.5 -1h-15q-5 -1 -9 -1t-9 -1q-5 0 -9.5 -0.5t-9.5 -0.5q-3 -1 -8 -1q-3 0 -6 -0.5t-5 -0.5q-8 0 -11 -1q-5 0 -9.5 -0.5t-9.5 -0.5
q-5 -1 -9 -1t-9 -1q-3 0 -5 -0.5t-4 -0.5q-5 0 -9 -0.5t-9 -0.5q-4 -1 -11 -1q-6 -1 -11 -1t-10 -1q-4 0 -7 -0.5t-7 -0.5l-1 -1h-1v9q23 2 46.5 3.5t46.5 3.5q-2 0 -2.5 0.5t-2.5 0.5h-64h-34h-2v4v327v3v2h-3l-2 1q-3 3 -5 4l-1 1q1 1 4 1h3q1 1 1.5 0.5t2.5 0.5q0 5 -1 7
h-3h-4h-3q0 2 -0.5 3.5t0.5 3.5h2h2q-1 2 -2.5 3.5l-3.5 3.5v32q0 -1 2 -1q3 -3 9 -7l2 -1v3v17q0 4 -1 6v6q1 4 0 9v1q0 4 1 6v1v5q0 1 -0.5 1t-0.5 1v2v4q0 1 1 2v7h-2v1v6q1 0 2 1v7h-2q0 2 -0.5 3.5t0.5 3.5q0 1 2 1q0 5 -1 7q0 1 -2 1v3v4h3v8h-3v7h2q1 1 1 4h8h9h8h8
h8q0 1 -1 1q-2 0 -3 0.5t-3 0.5q-4 1 -7 2t-7 2q-7 0 -11 -1q-7 0 -11 -1l-1 1q-1 2 -1 6q-2 0 -3 1q2 17 3 34l2 34h4q6 -2 12 -3t11 -3q6 -2 11.5 -2.5t11.5 -2.5t11.5 -3t11.5 -2q13 -4 23 -5q5 -2 11 -3t12 -3h4q10 0 14 1h3h2v3v10v2h3h178q6 0 12 0.5t12 0.5q5 1 9 1
t9 1q5 0 9.5 0.5t9.5 1.5q6 0 9 1q5 0 9 0.5t9 0.5q5 1 9.5 1t9.5 1h8q4 1 11 1q3 0 5.5 0.5t5.5 0.5q5 0 9 0.5t9 1.5h9.5t9.5 1q6 0 9 1q5 0 9 0.5t9 0.5q3 0 5.5 0.5t5.5 0.5q6 0 9 1q7 0 10 1h12q2 1 8 1q2 0 5 0.5t5 0.5q8 0 12 1q6 0 10 1h4q1 -3 1 -7q-2 0 -3.5 -0.5
t-3.5 -0.5q-5 0 -11 -0.5t-11 -1.5q-6 0 -11.5 -0.5t-11.5 -0.5q-5 -1 -11 -1.5t-12 -0.5q-5 -1 -11 -1t-11 -1t-11 -1t-12 -1q-5 0 -11 -0.5t-11 -1.5q-7 -1 -13.5 -1t-12.5 -1q-5 -1 -13 -1v-1h2h75q7 0 14 0.5t14 0.5q3 1 9 1q5 0 8.5 0.5t8.5 1.5t10 1h10q2 1 7 1
q2 0 4.5 0.5t4.5 0.5h6.5t6.5 1l1 -1v-7h5v-4v-143v-26v-9v-23v-23zM145 693q0 -2 -0.5 -3.5t0.5 -3.5h3v8q-1 0 -1.5 -0.5t-1.5 -0.5zM143 670h5v8q-3 0 -4 -1q0 -1 -0.5 -1.5t-0.5 -1.5v-4zM143 662q-1 -2 -1 -7q2 -1 3 -0.5t3 0.5v7q-1 0 -1 1q-1 0 -2 -0.5t-2 -0.5z
M242 534q0 4 -2 8q-3 4 -8 4h-118q-6 0 -9 -4q-3 -3 -3 -8v-214q0 -6 3 -9q4 -4 9 -4h29q5 0 7 4q3 3 3 9v79h63q5 0 8 3t3 8v29q0 4 -3 7t-8 3h-63v45h79q5 0 8 4q2 4 2 8v28zM394 534q0 5 -3 8q-3 4 -7 4h-119q-5 0 -8 -4q-4 -4 -4 -8v-214q0 -5 4 -9t8 -4h30q3 0 7 4
q3 3 3 9v79h62q5 0 8 3t3 8v29q0 4 -3 7t-8 3h-62v45h79q4 0 7 4q3 3 3 8v28zM545 534q0 6 -3 8q-1 4 -7 4h-118q-6 0 -9 -4q-3 -3 -3 -8v-214q0 -6 3 -9q4 -4 9 -4h29q3 0 7 4q3 3 3 9v79h63q4 0 7 3q4 4 4 8v29q0 3 -4 7q-3 3 -7 3h-63v45h79q6 0 7 4q3 2 3 8v28zM29 74
q9 0 12 -7t3 -16q0 -8 -3 -16t-12 -8t-12 8t-3 16q0 5 1.5 12t6.5 9q4 2 7 2zM36 51q0 6 -1.5 11t-5.5 5q-2 0 -4 -2t-2.5 -7t-0.5 -7q0 -4 1 -10.5t6 -6.5q2 0 4 2q3 6 3 15zM69 28h-1l-13 28v-28h-6h-1v45h1h5h1l10 -23l3 -6v29h1h5h1v-45h-1h-5zM81 73h1h6v-38h14l1 -1
v-6h-1h-20h-1v45zM121 28h-6h-1v20l-10 24v1h1h6l4 -9q1 -2 2 -5.5t1 -4.5q0 2 1 5t2 5l3 9h1h6h1v-1l-11 -24v-20zM157 28v45h25v-6v-1h-18v-12h15v-1v-6h-15v-19h-1h-6zM226 28h-7v45h12q13 0 13 -14q0 -8 -5 -12l7 -19h-9l-5 16h-6v-16zM226 66v-15q7 0 9 1t2 3v4
q0 7 -9 7h-2zM303 73h25v-6v-1h-18v-12h15q1 0 1 -1v-6h-1h-15v-12h18v-1v-6h-25v45zM345 73h1h4h1l14 -45h-1h-6l-3 8h-14q-2 -6 -2 -8h-7zM349 57q-1 5 -1 3.5t-1 -3.5l-4 -14h10zM369 73h6h1v-38h13l1 -1v-6h-1h-20v45zM415 28v45h1h24h1v-6q0 -1 -1 -1h-18v-12h15
q1 0 1 -1v-6h-1h-15v-19h-6h-1zM445 73h1h5h1v-45h-1h-5h-1v45zM471 27q-4 0 -8 2q-2 2 -4 6t-2 7v10v8q1 2 1 3.5t1 3.5q2 4 4 5q4 2 7 2q4 0 5 -1q1 0 5 -2q2 -2 3 -4q2 -4 2 -7q0 -1 -1 -1h-1q-1 0 -1 -0.5t-1 -0.5h-2h-1q0 1 -0.5 1.5t-0.5 1.5q0 2 -0.5 2t-0.5 1l-2 2
q-1 1 -3 1t-2.5 -0.5t-1.5 -0.5q-2 -2 -2 -4q0 -1 -0.5 -2t-0.5 -2v-6v-7q1 -2 1 -5l2 -4q2 -2 4 -2t3 1l2 2q1 1 1 4q1 1 1 4h-5h-1v7h1h12h1v-24h-4l-1 5q0 -1 -2 -3l-2 -2q-2 0 -3 -1h-3zM512 47h-13v-19h-6h-1v45h1h6v-19h13v19h1h6v-45h-6h-1v19zM551 73v-6v-1h-10v-38
h-1h-5h-1v38h-9l-1 1v6h1h26zM555 73h1h24h1v-6q0 -1 -1 -1h-18v-12h15q1 0 1 -1v-6h-1h-15v-12h18q1 0 1 -1v-6h-1h-24h-1v45zM593 28h-6v45h12q4 0 5 -1q2 -1 4 -3q1 -1 3 -5q0 -1 0.5 -2t0.5 -3q0 -3 -2 -7q0 -2 -3 -5l6 -19h-1h-6h-1l-5 16h-1h-1h-2h-3v-16zM593 66v-15
h3q2 0 3 1q2 0 3 1q2 0 2 2q0 1 0.5 1.5t0.5 2.5q0 7 -9 7h-3zM616 62q0 4 1 5t1.5 2t1.5 2q2 2 4 2q1 1 5 1q3 0 4 -1q2 0 4 -2l3 -3q1 -1 1 -2t1 -3q0 -1 -1 -1t-1 -0.5t-2 -0.5l-2 -1h-1v1q-1 1 -1 2t-0.5 1t-0.5 1l-2 1q-1 1 -3 1q-1 0 -3 -2t-2 -3t0.5 -1.5t0.5 -1.5
l2 -2q1 -1 1.5 -1t1.5 -1l4 -2l2 -2q1 0 3 -2t2 -5q1 -1 1 -5q0 -6 -3 -9t-10 -3q-4 0 -5 1t-2 1.5t-2 1.5q-2 2 -3 4q0 1 -0.5 2t-0.5 2v1q1 1 4 1q1 1 3 1l1 -2q0 -1 0.5 -1.5t0.5 -1.5l2 -2q1 -1 2 -1q3 0 5 2q1 1 1 3v2l-2 2q0 1 -0.5 1t-0.5 1l-2 2q-1 1 -2 1.5t-2 1.5
q-2 1 -4 3q-3 1 -4 4q-1 1 -1 5zM199 74q9 0 12 -7t3 -16q0 -8 -3 -16t-12 -8t-12 8t-3 16q0 5 1.5 12t6.5 9q4 2 7 2zM206 51q0 6 -1.5 11t-5.5 5q-2 0 -4 -2t-2.5 -7t-0.5 -7q0 -4 1 -10.5t6 -6.5q2 0 4 2q3 6 3 15zM279 28h-7v45h12q13 0 13 -14q0 -8 -5 -12l7 -19h-9
l-5 16h-6v-16zM279 66v-15q7 0 9 1t2 3v4q0 7 -9 7h-2z" />
    <glyph glyph-name="one" unicode="1" horiz-adv-x="683" 
d="M622 488v-22v-54v-118v-160v-3h-2h-85q-1 0 -2 1q-6 3 -10 7q-1 1 -3 1h-2h-124h-2l-1 -1q1 -1 2 -1q4 -4 7 -6v-1h-2h-92.5t-91.5 -1h-15q-5 -1 -9 -1t-9 -1q-5 0 -9.5 -0.5t-9.5 -0.5q-3 -1 -8 -1q-3 0 -6 -0.5t-5 -0.5q-8 0 -11 -1q-5 0 -9.5 -0.5t-9.5 -0.5
q-5 -1 -9 -1t-9 -1q-3 0 -5 -0.5t-4 -0.5q-5 0 -9 -0.5t-9 -0.5q-4 -1 -11 -1q-6 -1 -11 -1t-10 -1q-4 0 -7 -0.5t-7 -0.5l-1 -1h-1v9q23 2 46.5 3.5t46.5 3.5q-2 0 -2.5 0.5t-2.5 0.5h-64h-34h-2v4v327v3v2h-3l-2 1q-3 3 -5 4l-1 1q1 1 4 1h3q1 1 1.5 0.5t2.5 0.5q0 5 -1 7
h-3h-4h-3q0 2 -0.5 3.5t0.5 3.5h2h2q-1 2 -2.5 3.5l-3.5 3.5v32q0 -1 2 -1q3 -3 9 -7l2 -1v3v17q0 4 -1 6v6q1 4 0 9v1q0 4 1 6v1v5q0 1 -0.5 1t-0.5 1v2v4q0 1 1 2v7h-2v1v6q1 0 2 1v7h-2q0 2 -0.5 3.5t0.5 3.5q0 1 2 1q0 5 -1 7q0 1 -2 1v3v4h3v8h-3v7h2q1 1 1 4h8h9h8h8
h8q0 1 -1 1q-2 0 -3 0.5t-3 0.5q-4 1 -7 2t-7 2q-7 0 -11 -1q-7 0 -11 -1l-1 1q-1 2 -1 6q-2 0 -3 1q2 17 3 34l2 34h4q6 -2 12 -3t11 -3q6 -2 11.5 -2.5t11.5 -2.5t11.5 -3t11.5 -2q13 -4 23 -5q5 -2 11 -3t12 -3h4q10 0 14 1h3h2v3v10v2h3h178q6 0 12 0.5t12 0.5q5 1 9 1
t9 1q5 0 9.5 0.5t9.5 1.5q6 0 9 1q5 0 9 0.5t9 0.5q5 1 9.5 1t9.5 1h8q4 1 11 1q3 0 5.5 0.5t5.5 0.5q5 0 9 0.5t9 1.5h9.5t9.5 1q6 0 9 1q5 0 9 0.5t9 0.5q3 0 5.5 0.5t5.5 0.5q6 0 9 1q7 0 10 1h12q2 1 8 1q2 0 5 0.5t5 0.5q8 0 12 1q6 0 10 1h4q1 -3 1 -7q-2 0 -3.5 -0.5
t-3.5 -0.5q-5 0 -11 -0.5t-11 -1.5q-6 0 -11.5 -0.5t-11.5 -0.5q-5 -1 -11 -1.5t-12 -0.5q-5 -1 -11 -1t-11 -1t-11 -1t-12 -1q-5 0 -11 -0.5t-11 -1.5q-7 -1 -13.5 -1t-12.5 -1q-5 -1 -13 -1v-1h2h75q7 0 14 0.5t14 0.5q3 1 9 1q5 0 8.5 0.5t8.5 1.5t10 1h10q2 1 7 1
q2 0 4.5 0.5t4.5 0.5h6.5t6.5 1l1 -1v-7h5v-4v-143v-26v-9v-23v-23zM145 693q0 -2 -0.5 -3.5t0.5 -3.5h3v8q-1 0 -1.5 -0.5t-1.5 -0.5zM143 670h5v8q-3 0 -4 -1q0 -1 -0.5 -1.5t-0.5 -1.5v-4zM143 662q-1 -2 -1 -7q2 -1 3 -0.5t3 0.5v7q-1 0 -1 1q-1 0 -2 -0.5t-2 -0.5z
M242 534q0 4 -2 8q-3 4 -8 4h-118q-6 0 -9 -4q-3 -3 -3 -8v-214q0 -6 3 -9q4 -4 9 -4h29q5 0 7 4q3 3 3 9v79h63q5 0 8 3t3 8v29q0 4 -3 7t-8 3h-63v45h79q5 0 8 4q2 4 2 8v28zM394 534q0 5 -3 8q-3 4 -7 4h-119q-5 0 -8 -4q-4 -4 -4 -8v-214q0 -5 4 -9t8 -4h30q3 0 7 4
q3 3 3 9v79h62q5 0 8 3t3 8v29q0 4 -3 7t-8 3h-62v45h79q4 0 7 4q3 3 3 8v28zM545 534q0 6 -3 8q-1 4 -7 4h-118q-6 0 -9 -4q-3 -3 -3 -8v-214q0 -6 3 -9q4 -4 9 -4h29q3 0 7 4q3 3 3 9v79h63q4 0 7 3q4 4 4 8v29q0 3 -4 7q-3 3 -7 3h-63v45h79q6 0 7 4q3 2 3 8v28zM29 74
q9 0 12 -7t3 -16q0 -8 -3 -16t-12 -8t-12 8t-3 16q0 5 1.5 12t6.5 9q4 2 7 2zM36 51q0 6 -1.5 11t-5.5 5q-2 0 -4 -2t-2.5 -7t-0.5 -7q0 -4 1 -10.5t6 -6.5q2 0 4 2q3 6 3 15zM69 28h-1l-13 28v-28h-6h-1v45h1h5h1l10 -23l3 -6v29h1h5h1v-45h-1h-5zM81 73h1h6v-38h14l1 -1
v-6h-1h-20h-1v45zM121 28h-6h-1v20l-10 24v1h1h6l4 -9q1 -2 2 -5.5t1 -4.5q0 2 1 5t2 5l3 9h1h6h1v-1l-11 -24v-20zM157 28v45h25v-6v-1h-18v-12h15v-1v-6h-15v-19h-1h-6zM226 28h-7v45h12q13 0 13 -14q0 -8 -5 -12l7 -19h-9l-5 16h-6v-16zM226 66v-15q7 0 9 1t2 3v4
q0 7 -9 7h-2zM303 73h25v-6v-1h-18v-12h15q1 0 1 -1v-6h-1h-15v-12h18v-1v-6h-25v45zM345 73h1h4h1l14 -45h-1h-6l-3 8h-14q-2 -6 -2 -8h-7zM349 57q-1 5 -1 3.5t-1 -3.5l-4 -14h10zM369 73h6h1v-38h13l1 -1v-6h-1h-20v45zM415 28v45h1h24h1v-6q0 -1 -1 -1h-18v-12h15
q1 0 1 -1v-6h-1h-15v-19h-6h-1zM445 73h1h5h1v-45h-1h-5h-1v45zM471 27q-4 0 -8 2q-2 2 -4 6t-2 7v10v8q1 2 1 3.5t1 3.5q2 4 4 5q4 2 7 2q4 0 5 -1q1 0 5 -2q2 -2 3 -4q2 -4 2 -7q0 -1 -1 -1h-1q-1 0 -1 -0.5t-1 -0.5h-2h-1q0 1 -0.5 1.5t-0.5 1.5q0 2 -0.5 2t-0.5 1l-2 2
q-1 1 -3 1t-2.5 -0.5t-1.5 -0.5q-2 -2 -2 -4q0 -1 -0.5 -2t-0.5 -2v-6v-7q1 -2 1 -5l2 -4q2 -2 4 -2t3 1l2 2q1 1 1 4q1 1 1 4h-5h-1v7h1h12h1v-24h-4l-1 5q0 -1 -2 -3l-2 -2q-2 0 -3 -1h-3zM512 47h-13v-19h-6h-1v45h1h6v-19h13v19h1h6v-45h-6h-1v19zM551 73v-6v-1h-10v-38
h-1h-5h-1v38h-9l-1 1v6h1h26zM555 73h1h24h1v-6q0 -1 -1 -1h-18v-12h15q1 0 1 -1v-6h-1h-15v-12h18q1 0 1 -1v-6h-1h-24h-1v45zM593 28h-6v45h12q4 0 5 -1q2 -1 4 -3q1 -1 3 -5q0 -1 0.5 -2t0.5 -3q0 -3 -2 -7q0 -2 -3 -5l6 -19h-1h-6h-1l-5 16h-1h-1h-2h-3v-16zM593 66v-15
h3q2 0 3 1q2 0 3 1q2 0 2 2q0 1 0.5 1.5t0.5 2.5q0 7 -9 7h-3zM616 62q0 4 1 5t1.5 2t1.5 2q2 2 4 2q1 1 5 1q3 0 4 -1q2 0 4 -2l3 -3q1 -1 1 -2t1 -3q0 -1 -1 -1t-1 -0.5t-2 -0.5l-2 -1h-1v1q-1 1 -1 2t-0.5 1t-0.5 1l-2 1q-1 1 -3 1q-1 0 -3 -2t-2 -3t0.5 -1.5t0.5 -1.5
l2 -2q1 -1 1.5 -1t1.5 -1l4 -2l2 -2q1 0 3 -2t2 -5q1 -1 1 -5q0 -6 -3 -9t-10 -3q-4 0 -5 1t-2 1.5t-2 1.5q-2 2 -3 4q0 1 -0.5 2t-0.5 2v1q1 1 4 1q1 1 3 1l1 -2q0 -1 0.5 -1.5t0.5 -1.5l2 -2q1 -1 2 -1q3 0 5 2q1 1 1 3v2l-2 2q0 1 -0.5 1t-0.5 1l-2 2q-1 1 -2 1.5t-2 1.5
q-2 1 -4 3q-3 1 -4 4q-1 1 -1 5zM199 74q9 0 12 -7t3 -16q0 -8 -3 -16t-12 -8t-12 8t-3 16q0 5 1.5 12t6.5 9q4 2 7 2zM206 51q0 6 -1.5 11t-5.5 5q-2 0 -4 -2t-2.5 -7t-0.5 -7q0 -4 1 -10.5t6 -6.5q2 0 4 2q3 6 3 15zM279 28h-7v45h12q13 0 13 -14q0 -8 -5 -12l7 -19h-9
l-5 16h-6v-16zM279 66v-15q7 0 9 1t2 3v4q0 7 -9 7h-2z" />
    <glyph glyph-name="two" unicode="2" horiz-adv-x="683" 
d="M622 488v-22v-54v-118v-160v-3h-2h-85q-1 0 -2 1q-6 3 -10 7q-1 1 -3 1h-2h-124h-2l-1 -1q1 -1 2 -1q4 -4 7 -6v-1h-2h-92.5t-91.5 -1h-15q-5 -1 -9 -1t-9 -1q-5 0 -9.5 -0.5t-9.5 -0.5q-3 -1 -8 -1q-3 0 -6 -0.5t-5 -0.5q-8 0 -11 -1q-5 0 -9.5 -0.5t-9.5 -0.5
q-5 -1 -9 -1t-9 -1q-3 0 -5 -0.5t-4 -0.5q-5 0 -9 -0.5t-9 -0.5q-4 -1 -11 -1q-6 -1 -11 -1t-10 -1q-4 0 -7 -0.5t-7 -0.5l-1 -1h-1v9q23 2 46.5 3.5t46.5 3.5q-2 0 -2.5 0.5t-2.5 0.5h-64h-34h-2v4v327v3v2h-3l-2 1q-3 3 -5 4l-1 1q1 1 4 1h3q1 1 1.5 0.5t2.5 0.5q0 5 -1 7
h-3h-4h-3q0 2 -0.5 3.5t0.5 3.5h2h2q-1 2 -2.5 3.5l-3.5 3.5v32q0 -1 2 -1q3 -3 9 -7l2 -1v3v17q0 4 -1 6v6q1 4 0 9v1q0 4 1 6v1v5q0 1 -0.5 1t-0.5 1v2v4q0 1 1 2v7h-2v1v6q1 0 2 1v7h-2q0 2 -0.5 3.5t0.5 3.5q0 1 2 1q0 5 -1 7q0 1 -2 1v3v4h3v8h-3v7h2q1 1 1 4h8h9h8h8
h8q0 1 -1 1q-2 0 -3 0.5t-3 0.5q-4 1 -7 2t-7 2q-7 0 -11 -1q-7 0 -11 -1l-1 1q-1 2 -1 6q-2 0 -3 1q2 17 3 34l2 34h4q6 -2 12 -3t11 -3q6 -2 11.5 -2.5t11.5 -2.5t11.5 -3t11.5 -2q13 -4 23 -5q5 -2 11 -3t12 -3h4q10 0 14 1h3h2v3v10v2h3h178q6 0 12 0.5t12 0.5q5 1 9 1
t9 1q5 0 9.5 0.5t9.5 1.5q6 0 9 1q5 0 9 0.5t9 0.5q5 1 9.5 1t9.5 1h8q4 1 11 1q3 0 5.5 0.5t5.5 0.5q5 0 9 0.5t9 1.5h9.5t9.5 1q6 0 9 1q5 0 9 0.5t9 0.5q3 0 5.5 0.5t5.5 0.5q6 0 9 1q7 0 10 1h12q2 1 8 1q2 0 5 0.5t5 0.5q8 0 12 1q6 0 10 1h4q1 -3 1 -7q-2 0 -3.5 -0.5
t-3.5 -0.5q-5 0 -11 -0.5t-11 -1.5q-6 0 -11.5 -0.5t-11.5 -0.5q-5 -1 -11 -1.5t-12 -0.5q-5 -1 -11 -1t-11 -1t-11 -1t-12 -1q-5 0 -11 -0.5t-11 -1.5q-7 -1 -13.5 -1t-12.5 -1q-5 -1 -13 -1v-1h2h75q7 0 14 0.5t14 0.5q3 1 9 1q5 0 8.5 0.5t8.5 1.5t10 1h10q2 1 7 1
q2 0 4.5 0.5t4.5 0.5h6.5t6.5 1l1 -1v-7h5v-4v-143v-26v-9v-23v-23zM145 693q0 -2 -0.5 -3.5t0.5 -3.5h3v8q-1 0 -1.5 -0.5t-1.5 -0.5zM143 670h5v8q-3 0 -4 -1q0 -1 -0.5 -1.5t-0.5 -1.5v-4zM143 662q-1 -2 -1 -7q2 -1 3 -0.5t3 0.5v7q-1 0 -1 1q-1 0 -2 -0.5t-2 -0.5z
M242 534q0 4 -2 8q-3 4 -8 4h-118q-6 0 -9 -4q-3 -3 -3 -8v-214q0 -6 3 -9q4 -4 9 -4h29q5 0 7 4q3 3 3 9v79h63q5 0 8 3t3 8v29q0 4 -3 7t-8 3h-63v45h79q5 0 8 4q2 4 2 8v28zM394 534q0 5 -3 8q-3 4 -7 4h-119q-5 0 -8 -4q-4 -4 -4 -8v-214q0 -5 4 -9t8 -4h30q3 0 7 4
q3 3 3 9v79h62q5 0 8 3t3 8v29q0 4 -3 7t-8 3h-62v45h79q4 0 7 4q3 3 3 8v28zM545 534q0 6 -3 8q-1 4 -7 4h-118q-6 0 -9 -4q-3 -3 -3 -8v-214q0 -6 3 -9q4 -4 9 -4h29q3 0 7 4q3 3 3 9v79h63q4 0 7 3q4 4 4 8v29q0 3 -4 7q-3 3 -7 3h-63v45h79q6 0 7 4q3 2 3 8v28zM29 74
q9 0 12 -7t3 -16q0 -8 -3 -16t-12 -8t-12 8t-3 16q0 5 1.5 12t6.5 9q4 2 7 2zM36 51q0 6 -1.5 11t-5.5 5q-2 0 -4 -2t-2.5 -7t-0.5 -7q0 -4 1 -10.5t6 -6.5q2 0 4 2q3 6 3 15zM69 28h-1l-13 28v-28h-6h-1v45h1h5h1l10 -23l3 -6v29h1h5h1v-45h-1h-5zM81 73h1h6v-38h14l1 -1
v-6h-1h-20h-1v45zM121 28h-6h-1v20l-10 24v1h1h6l4 -9q1 -2 2 -5.5t1 -4.5q0 2 1 5t2 5l3 9h1h6h1v-1l-11 -24v-20zM157 28v45h25v-6v-1h-18v-12h15v-1v-6h-15v-19h-1h-6zM226 28h-7v45h12q13 0 13 -14q0 -8 -5 -12l7 -19h-9l-5 16h-6v-16zM226 66v-15q7 0 9 1t2 3v4
q0 7 -9 7h-2zM303 73h25v-6v-1h-18v-12h15q1 0 1 -1v-6h-1h-15v-12h18v-1v-6h-25v45zM345 73h1h4h1l14 -45h-1h-6l-3 8h-14q-2 -6 -2 -8h-7zM349 57q-1 5 -1 3.5t-1 -3.5l-4 -14h10zM369 73h6h1v-38h13l1 -1v-6h-1h-20v45zM415 28v45h1h24h1v-6q0 -1 -1 -1h-18v-12h15
q1 0 1 -1v-6h-1h-15v-19h-6h-1zM445 73h1h5h1v-45h-1h-5h-1v45zM471 27q-4 0 -8 2q-2 2 -4 6t-2 7v10v8q1 2 1 3.5t1 3.5q2 4 4 5q4 2 7 2q4 0 5 -1q1 0 5 -2q2 -2 3 -4q2 -4 2 -7q0 -1 -1 -1h-1q-1 0 -1 -0.5t-1 -0.5h-2h-1q0 1 -0.5 1.5t-0.5 1.5q0 2 -0.5 2t-0.5 1l-2 2
q-1 1 -3 1t-2.5 -0.5t-1.5 -0.5q-2 -2 -2 -4q0 -1 -0.5 -2t-0.5 -2v-6v-7q1 -2 1 -5l2 -4q2 -2 4 -2t3 1l2 2q1 1 1 4q1 1 1 4h-5h-1v7h1h12h1v-24h-4l-1 5q0 -1 -2 -3l-2 -2q-2 0 -3 -1h-3zM512 47h-13v-19h-6h-1v45h1h6v-19h13v19h1h6v-45h-6h-1v19zM551 73v-6v-1h-10v-38
h-1h-5h-1v38h-9l-1 1v6h1h26zM555 73h1h24h1v-6q0 -1 -1 -1h-18v-12h15q1 0 1 -1v-6h-1h-15v-12h18q1 0 1 -1v-6h-1h-24h-1v45zM593 28h-6v45h12q4 0 5 -1q2 -1 4 -3q1 -1 3 -5q0 -1 0.5 -2t0.5 -3q0 -3 -2 -7q0 -2 -3 -5l6 -19h-1h-6h-1l-5 16h-1h-1h-2h-3v-16zM593 66v-15
h3q2 0 3 1q2 0 3 1q2 0 2 2q0 1 0.5 1.5t0.5 2.5q0 7 -9 7h-3zM616 62q0 4 1 5t1.5 2t1.5 2q2 2 4 2q1 1 5 1q3 0 4 -1q2 0 4 -2l3 -3q1 -1 1 -2t1 -3q0 -1 -1 -1t-1 -0.5t-2 -0.5l-2 -1h-1v1q-1 1 -1 2t-0.5 1t-0.5 1l-2 1q-1 1 -3 1q-1 0 -3 -2t-2 -3t0.5 -1.5t0.5 -1.5
l2 -2q1 -1 1.5 -1t1.5 -1l4 -2l2 -2q1 0 3 -2t2 -5q1 -1 1 -5q0 -6 -3 -9t-10 -3q-4 0 -5 1t-2 1.5t-2 1.5q-2 2 -3 4q0 1 -0.5 2t-0.5 2v1q1 1 4 1q1 1 3 1l1 -2q0 -1 0.5 -1.5t0.5 -1.5l2 -2q1 -1 2 -1q3 0 5 2q1 1 1 3v2l-2 2q0 1 -0.5 1t-0.5 1l-2 2q-1 1 -2 1.5t-2 1.5
q-2 1 -4 3q-3 1 -4 4q-1 1 -1 5zM199 74q9 0 12 -7t3 -16q0 -8 -3 -16t-12 -8t-12 8t-3 16q0 5 1.5 12t6.5 9q4 2 7 2zM206 51q0 6 -1.5 11t-5.5 5q-2 0 -4 -2t-2.5 -7t-0.5 -7q0 -4 1 -10.5t6 -6.5q2 0 4 2q3 6 3 15zM279 28h-7v45h12q13 0 13 -14q0 -8 -5 -12l7 -19h-9
l-5 16h-6v-16zM279 66v-15q7 0 9 1t2 3v4q0 7 -9 7h-2z" />
    <glyph glyph-name="three" unicode="3" horiz-adv-x="683" 
d="M622 488v-22v-54v-118v-160v-3h-2h-85q-1 0 -2 1q-6 3 -10 7q-1 1 -3 1h-2h-124h-2l-1 -1q1 -1 2 -1q4 -4 7 -6v-1h-2h-92.5t-91.5 -1h-15q-5 -1 -9 -1t-9 -1q-5 0 -9.5 -0.5t-9.5 -0.5q-3 -1 -8 -1q-3 0 -6 -0.5t-5 -0.5q-8 0 -11 -1q-5 0 -9.5 -0.5t-9.5 -0.5
q-5 -1 -9 -1t-9 -1q-3 0 -5 -0.5t-4 -0.5q-5 0 -9 -0.5t-9 -0.5q-4 -1 -11 -1q-6 -1 -11 -1t-10 -1q-4 0 -7 -0.5t-7 -0.5l-1 -1h-1v9q23 2 46.5 3.5t46.5 3.5q-2 0 -2.5 0.5t-2.5 0.5h-64h-34h-2v4v327v3v2h-3l-2 1q-3 3 -5 4l-1 1q1 1 4 1h3q1 1 1.5 0.5t2.5 0.5q0 5 -1 7
h-3h-4h-3q0 2 -0.5 3.5t0.5 3.5h2h2q-1 2 -2.5 3.5l-3.5 3.5v32q0 -1 2 -1q3 -3 9 -7l2 -1v3v17q0 4 -1 6v6q1 4 0 9v1q0 4 1 6v1v5q0 1 -0.5 1t-0.5 1v2v4q0 1 1 2v7h-2v1v6q1 0 2 1v7h-2q0 2 -0.5 3.5t0.5 3.5q0 1 2 1q0 5 -1 7q0 1 -2 1v3v4h3v8h-3v7h2q1 1 1 4h8h9h8h8
h8q0 1 -1 1q-2 0 -3 0.5t-3 0.5q-4 1 -7 2t-7 2q-7 0 -11 -1q-7 0 -11 -1l-1 1q-1 2 -1 6q-2 0 -3 1q2 17 3 34l2 34h4q6 -2 12 -3t11 -3q6 -2 11.5 -2.5t11.5 -2.5t11.5 -3t11.5 -2q13 -4 23 -5q5 -2 11 -3t12 -3h4q10 0 14 1h3h2v3v10v2h3h178q6 0 12 0.5t12 0.5q5 1 9 1
t9 1q5 0 9.5 0.5t9.5 1.5q6 0 9 1q5 0 9 0.5t9 0.5q5 1 9.5 1t9.5 1h8q4 1 11 1q3 0 5.5 0.5t5.5 0.5q5 0 9 0.5t9 1.5h9.5t9.5 1q6 0 9 1q5 0 9 0.5t9 0.5q3 0 5.5 0.5t5.5 0.5q6 0 9 1q7 0 10 1h12q2 1 8 1q2 0 5 0.5t5 0.5q8 0 12 1q6 0 10 1h4q1 -3 1 -7q-2 0 -3.5 -0.5
t-3.5 -0.5q-5 0 -11 -0.5t-11 -1.5q-6 0 -11.5 -0.5t-11.5 -0.5q-5 -1 -11 -1.5t-12 -0.5q-5 -1 -11 -1t-11 -1t-11 -1t-12 -1q-5 0 -11 -0.5t-11 -1.5q-7 -1 -13.5 -1t-12.5 -1q-5 -1 -13 -1v-1h2h75q7 0 14 0.5t14 0.5q3 1 9 1q5 0 8.5 0.5t8.5 1.5t10 1h10q2 1 7 1
q2 0 4.5 0.5t4.5 0.5h6.5t6.5 1l1 -1v-7h5v-4v-143v-26v-9v-23v-23zM145 693q0 -2 -0.5 -3.5t0.5 -3.5h3v8q-1 0 -1.5 -0.5t-1.5 -0.5zM143 670h5v8q-3 0 -4 -1q0 -1 -0.5 -1.5t-0.5 -1.5v-4zM143 662q-1 -2 -1 -7q2 -1 3 -0.5t3 0.5v7q-1 0 -1 1q-1 0 -2 -0.5t-2 -0.5z
M242 534q0 4 -2 8q-3 4 -8 4h-118q-6 0 -9 -4q-3 -3 -3 -8v-214q0 -6 3 -9q4 -4 9 -4h29q5 0 7 4q3 3 3 9v79h63q5 0 8 3t3 8v29q0 4 -3 7t-8 3h-63v45h79q5 0 8 4q2 4 2 8v28zM394 534q0 5 -3 8q-3 4 -7 4h-119q-5 0 -8 -4q-4 -4 -4 -8v-214q0 -5 4 -9t8 -4h30q3 0 7 4
q3 3 3 9v79h62q5 0 8 3t3 8v29q0 4 -3 7t-8 3h-62v45h79q4 0 7 4q3 3 3 8v28zM545 534q0 6 -3 8q-1 4 -7 4h-118q-6 0 -9 -4q-3 -3 -3 -8v-214q0 -6 3 -9q4 -4 9 -4h29q3 0 7 4q3 3 3 9v79h63q4 0 7 3q4 4 4 8v29q0 3 -4 7q-3 3 -7 3h-63v45h79q6 0 7 4q3 2 3 8v28zM29 74
q9 0 12 -7t3 -16q0 -8 -3 -16t-12 -8t-12 8t-3 16q0 5 1.5 12t6.5 9q4 2 7 2zM36 51q0 6 -1.5 11t-5.5 5q-2 0 -4 -2t-2.5 -7t-0.5 -7q0 -4 1 -10.5t6 -6.5q2 0 4 2q3 6 3 15zM69 28h-1l-13 28v-28h-6h-1v45h1h5h1l10 -23l3 -6v29h1h5h1v-45h-1h-5zM81 73h1h6v-38h14l1 -1
v-6h-1h-20h-1v45zM121 28h-6h-1v20l-10 24v1h1h6l4 -9q1 -2 2 -5.5t1 -4.5q0 2 1 5t2 5l3 9h1h6h1v-1l-11 -24v-20zM157 28v45h25v-6v-1h-18v-12h15v-1v-6h-15v-19h-1h-6zM226 28h-7v45h12q13 0 13 -14q0 -8 -5 -12l7 -19h-9l-5 16h-6v-16zM226 66v-15q7 0 9 1t2 3v4
q0 7 -9 7h-2zM303 73h25v-6v-1h-18v-12h15q1 0 1 -1v-6h-1h-15v-12h18v-1v-6h-25v45zM345 73h1h4h1l14 -45h-1h-6l-3 8h-14q-2 -6 -2 -8h-7zM349 57q-1 5 -1 3.5t-1 -3.5l-4 -14h10zM369 73h6h1v-38h13l1 -1v-6h-1h-20v45zM415 28v45h1h24h1v-6q0 -1 -1 -1h-18v-12h15
q1 0 1 -1v-6h-1h-15v-19h-6h-1zM445 73h1h5h1v-45h-1h-5h-1v45zM471 27q-4 0 -8 2q-2 2 -4 6t-2 7v10v8q1 2 1 3.5t1 3.5q2 4 4 5q4 2 7 2q4 0 5 -1q1 0 5 -2q2 -2 3 -4q2 -4 2 -7q0 -1 -1 -1h-1q-1 0 -1 -0.5t-1 -0.5h-2h-1q0 1 -0.5 1.5t-0.5 1.5q0 2 -0.5 2t-0.5 1l-2 2
q-1 1 -3 1t-2.5 -0.5t-1.5 -0.5q-2 -2 -2 -4q0 -1 -0.5 -2t-0.5 -2v-6v-7q1 -2 1 -5l2 -4q2 -2 4 -2t3 1l2 2q1 1 1 4q1 1 1 4h-5h-1v7h1h12h1v-24h-4l-1 5q0 -1 -2 -3l-2 -2q-2 0 -3 -1h-3zM512 47h-13v-19h-6h-1v45h1h6v-19h13v19h1h6v-45h-6h-1v19zM551 73v-6v-1h-10v-38
h-1h-5h-1v38h-9l-1 1v6h1h26zM555 73h1h24h1v-6q0 -1 -1 -1h-18v-12h15q1 0 1 -1v-6h-1h-15v-12h18q1 0 1 -1v-6h-1h-24h-1v45zM593 28h-6v45h12q4 0 5 -1q2 -1 4 -3q1 -1 3 -5q0 -1 0.5 -2t0.5 -3q0 -3 -2 -7q0 -2 -3 -5l6 -19h-1h-6h-1l-5 16h-1h-1h-2h-3v-16zM593 66v-15
h3q2 0 3 1q2 0 3 1q2 0 2 2q0 1 0.5 1.5t0.5 2.5q0 7 -9 7h-3zM616 62q0 4 1 5t1.5 2t1.5 2q2 2 4 2q1 1 5 1q3 0 4 -1q2 0 4 -2l3 -3q1 -1 1 -2t1 -3q0 -1 -1 -1t-1 -0.5t-2 -0.5l-2 -1h-1v1q-1 1 -1 2t-0.5 1t-0.5 1l-2 1q-1 1 -3 1q-1 0 -3 -2t-2 -3t0.5 -1.5t0.5 -1.5
l2 -2q1 -1 1.5 -1t1.5 -1l4 -2l2 -2q1 0 3 -2t2 -5q1 -1 1 -5q0 -6 -3 -9t-10 -3q-4 0 -5 1t-2 1.5t-2 1.5q-2 2 -3 4q0 1 -0.5 2t-0.5 2v1q1 1 4 1q1 1 3 1l1 -2q0 -1 0.5 -1.5t0.5 -1.5l2 -2q1 -1 2 -1q3 0 5 2q1 1 1 3v2l-2 2q0 1 -0.5 1t-0.5 1l-2 2q-1 1 -2 1.5t-2 1.5
q-2 1 -4 3q-3 1 -4 4q-1 1 -1 5zM199 74q9 0 12 -7t3 -16q0 -8 -3 -16t-12 -8t-12 8t-3 16q0 5 1.5 12t6.5 9q4 2 7 2zM206 51q0 6 -1.5 11t-5.5 5q-2 0 -4 -2t-2.5 -7t-0.5 -7q0 -4 1 -10.5t6 -6.5q2 0 4 2q3 6 3 15zM279 28h-7v45h12q13 0 13 -14q0 -8 -5 -12l7 -19h-9
l-5 16h-6v-16zM279 66v-15q7 0 9 1t2 3v4q0 7 -9 7h-2z" />
    <glyph glyph-name="four" unicode="4" horiz-adv-x="683" 
d="M622 488v-22v-54v-118v-160v-3h-2h-85q-1 0 -2 1q-6 3 -10 7q-1 1 -3 1h-2h-124h-2l-1 -1q1 -1 2 -1q4 -4 7 -6v-1h-2h-92.5t-91.5 -1h-15q-5 -1 -9 -1t-9 -1q-5 0 -9.5 -0.5t-9.5 -0.5q-3 -1 -8 -1q-3 0 -6 -0.5t-5 -0.5q-8 0 -11 -1q-5 0 -9.5 -0.5t-9.5 -0.5
q-5 -1 -9 -1t-9 -1q-3 0 -5 -0.5t-4 -0.5q-5 0 -9 -0.5t-9 -0.5q-4 -1 -11 -1q-6 -1 -11 -1t-10 -1q-4 0 -7 -0.5t-7 -0.5l-1 -1h-1v9q23 2 46.5 3.5t46.5 3.5q-2 0 -2.5 0.5t-2.5 0.5h-64h-34h-2v4v327v3v2h-3l-2 1q-3 3 -5 4l-1 1q1 1 4 1h3q1 1 1.5 0.5t2.5 0.5q0 5 -1 7
h-3h-4h-3q0 2 -0.5 3.5t0.5 3.5h2h2q-1 2 -2.5 3.5l-3.5 3.5v32q0 -1 2 -1q3 -3 9 -7l2 -1v3v17q0 4 -1 6v6q1 4 0 9v1q0 4 1 6v1v5q0 1 -0.5 1t-0.5 1v2v4q0 1 1 2v7h-2v1v6q1 0 2 1v7h-2q0 2 -0.5 3.5t0.5 3.5q0 1 2 1q0 5 -1 7q0 1 -2 1v3v4h3v8h-3v7h2q1 1 1 4h8h9h8h8
h8q0 1 -1 1q-2 0 -3 0.5t-3 0.5q-4 1 -7 2t-7 2q-7 0 -11 -1q-7 0 -11 -1l-1 1q-1 2 -1 6q-2 0 -3 1q2 17 3 34l2 34h4q6 -2 12 -3t11 -3q6 -2 11.5 -2.5t11.5 -2.5t11.5 -3t11.5 -2q13 -4 23 -5q5 -2 11 -3t12 -3h4q10 0 14 1h3h2v3v10v2h3h178q6 0 12 0.5t12 0.5q5 1 9 1
t9 1q5 0 9.5 0.5t9.5 1.5q6 0 9 1q5 0 9 0.5t9 0.5q5 1 9.5 1t9.5 1h8q4 1 11 1q3 0 5.5 0.5t5.5 0.5q5 0 9 0.5t9 1.5h9.5t9.5 1q6 0 9 1q5 0 9 0.5t9 0.5q3 0 5.5 0.5t5.5 0.5q6 0 9 1q7 0 10 1h12q2 1 8 1q2 0 5 0.5t5 0.5q8 0 12 1q6 0 10 1h4q1 -3 1 -7q-2 0 -3.5 -0.5
t-3.5 -0.5q-5 0 -11 -0.5t-11 -1.5q-6 0 -11.5 -0.5t-11.5 -0.5q-5 -1 -11 -1.5t-12 -0.5q-5 -1 -11 -1t-11 -1t-11 -1t-12 -1q-5 0 -11 -0.5t-11 -1.5q-7 -1 -13.5 -1t-12.5 -1q-5 -1 -13 -1v-1h2h75q7 0 14 0.5t14 0.5q3 1 9 1q5 0 8.5 0.5t8.5 1.5t10 1h10q2 1 7 1
q2 0 4.5 0.5t4.5 0.5h6.5t6.5 1l1 -1v-7h5v-4v-143v-26v-9v-23v-23zM145 693q0 -2 -0.5 -3.5t0.5 -3.5h3v8q-1 0 -1.5 -0.5t-1.5 -0.5zM143 670h5v8q-3 0 -4 -1q0 -1 -0.5 -1.5t-0.5 -1.5v-4zM143 662q-1 -2 -1 -7q2 -1 3 -0.5t3 0.5v7q-1 0 -1 1q-1 0 -2 -0.5t-2 -0.5z
M242 534q0 4 -2 8q-3 4 -8 4h-118q-6 0 -9 -4q-3 -3 -3 -8v-214q0 -6 3 -9q4 -4 9 -4h29q5 0 7 4q3 3 3 9v79h63q5 0 8 3t3 8v29q0 4 -3 7t-8 3h-63v45h79q5 0 8 4q2 4 2 8v28zM394 534q0 5 -3 8q-3 4 -7 4h-119q-5 0 -8 -4q-4 -4 -4 -8v-214q0 -5 4 -9t8 -4h30q3 0 7 4
q3 3 3 9v79h62q5 0 8 3t3 8v29q0 4 -3 7t-8 3h-62v45h79q4 0 7 4q3 3 3 8v28zM545 534q0 6 -3 8q-1 4 -7 4h-118q-6 0 -9 -4q-3 -3 -3 -8v-214q0 -6 3 -9q4 -4 9 -4h29q3 0 7 4q3 3 3 9v79h63q4 0 7 3q4 4 4 8v29q0 3 -4 7q-3 3 -7 3h-63v45h79q6 0 7 4q3 2 3 8v28zM29 74
q9 0 12 -7t3 -16q0 -8 -3 -16t-12 -8t-12 8t-3 16q0 5 1.5 12t6.5 9q4 2 7 2zM36 51q0 6 -1.5 11t-5.5 5q-2 0 -4 -2t-2.5 -7t-0.5 -7q0 -4 1 -10.5t6 -6.5q2 0 4 2q3 6 3 15zM69 28h-1l-13 28v-28h-6h-1v45h1h5h1l10 -23l3 -6v29h1h5h1v-45h-1h-5zM81 73h1h6v-38h14l1 -1
v-6h-1h-20h-1v45zM121 28h-6h-1v20l-10 24v1h1h6l4 -9q1 -2 2 -5.5t1 -4.5q0 2 1 5t2 5l3 9h1h6h1v-1l-11 -24v-20zM157 28v45h25v-6v-1h-18v-12h15v-1v-6h-15v-19h-1h-6zM226 28h-7v45h12q13 0 13 -14q0 -8 -5 -12l7 -19h-9l-5 16h-6v-16zM226 66v-15q7 0 9 1t2 3v4
q0 7 -9 7h-2zM303 73h25v-6v-1h-18v-12h15q1 0 1 -1v-6h-1h-15v-12h18v-1v-6h-25v45zM345 73h1h4h1l14 -45h-1h-6l-3 8h-14q-2 -6 -2 -8h-7zM349 57q-1 5 -1 3.5t-1 -3.5l-4 -14h10zM369 73h6h1v-38h13l1 -1v-6h-1h-20v45zM415 28v45h1h24h1v-6q0 -1 -1 -1h-18v-12h15
q1 0 1 -1v-6h-1h-15v-19h-6h-1zM445 73h1h5h1v-45h-1h-5h-1v45zM471 27q-4 0 -8 2q-2 2 -4 6t-2 7v10v8q1 2 1 3.5t1 3.5q2 4 4 5q4 2 7 2q4 0 5 -1q1 0 5 -2q2 -2 3 -4q2 -4 2 -7q0 -1 -1 -1h-1q-1 0 -1 -0.5t-1 -0.5h-2h-1q0 1 -0.5 1.5t-0.5 1.5q0 2 -0.5 2t-0.5 1l-2 2
q-1 1 -3 1t-2.5 -0.5t-1.5 -0.5q-2 -2 -2 -4q0 -1 -0.5 -2t-0.5 -2v-6v-7q1 -2 1 -5l2 -4q2 -2 4 -2t3 1l2 2q1 1 1 4q1 1 1 4h-5h-1v7h1h12h1v-24h-4l-1 5q0 -1 -2 -3l-2 -2q-2 0 -3 -1h-3zM512 47h-13v-19h-6h-1v45h1h6v-19h13v19h1h6v-45h-6h-1v19zM551 73v-6v-1h-10v-38
h-1h-5h-1v38h-9l-1 1v6h1h26zM555 73h1h24h1v-6q0 -1 -1 -1h-18v-12h15q1 0 1 -1v-6h-1h-15v-12h18q1 0 1 -1v-6h-1h-24h-1v45zM593 28h-6v45h12q4 0 5 -1q2 -1 4 -3q1 -1 3 -5q0 -1 0.5 -2t0.5 -3q0 -3 -2 -7q0 -2 -3 -5l6 -19h-1h-6h-1l-5 16h-1h-1h-2h-3v-16zM593 66v-15
h3q2 0 3 1q2 0 3 1q2 0 2 2q0 1 0.5 1.5t0.5 2.5q0 7 -9 7h-3zM616 62q0 4 1 5t1.5 2t1.5 2q2 2 4 2q1 1 5 1q3 0 4 -1q2 0 4 -2l3 -3q1 -1 1 -2t1 -3q0 -1 -1 -1t-1 -0.5t-2 -0.5l-2 -1h-1v1q-1 1 -1 2t-0.5 1t-0.5 1l-2 1q-1 1 -3 1q-1 0 -3 -2t-2 -3t0.5 -1.5t0.5 -1.5
l2 -2q1 -1 1.5 -1t1.5 -1l4 -2l2 -2q1 0 3 -2t2 -5q1 -1 1 -5q0 -6 -3 -9t-10 -3q-4 0 -5 1t-2 1.5t-2 1.5q-2 2 -3 4q0 1 -0.5 2t-0.5 2v1q1 1 4 1q1 1 3 1l1 -2q0 -1 0.5 -1.5t0.5 -1.5l2 -2q1 -1 2 -1q3 0 5 2q1 1 1 3v2l-2 2q0 1 -0.5 1t-0.5 1l-2 2q-1 1 -2 1.5t-2 1.5
q-2 1 -4 3q-3 1 -4 4q-1 1 -1 5zM199 74q9 0 12 -7t3 -16q0 -8 -3 -16t-12 -8t-12 8t-3 16q0 5 1.5 12t6.5 9q4 2 7 2zM206 51q0 6 -1.5 11t-5.5 5q-2 0 -4 -2t-2.5 -7t-0.5 -7q0 -4 1 -10.5t6 -6.5q2 0 4 2q3 6 3 15zM279 28h-7v45h12q13 0 13 -14q0 -8 -5 -12l7 -19h-9
l-5 16h-6v-16zM279 66v-15q7 0 9 1t2 3v4q0 7 -9 7h-2z" />
    <glyph glyph-name="five" unicode="5" horiz-adv-x="683" 
d="M622 488v-22v-54v-118v-160v-3h-2h-85q-1 0 -2 1q-6 3 -10 7q-1 1 -3 1h-2h-124h-2l-1 -1q1 -1 2 -1q4 -4 7 -6v-1h-2h-92.5t-91.5 -1h-15q-5 -1 -9 -1t-9 -1q-5 0 -9.5 -0.5t-9.5 -0.5q-3 -1 -8 -1q-3 0 -6 -0.5t-5 -0.5q-8 0 -11 -1q-5 0 -9.5 -0.5t-9.5 -0.5
q-5 -1 -9 -1t-9 -1q-3 0 -5 -0.5t-4 -0.5q-5 0 -9 -0.5t-9 -0.5q-4 -1 -11 -1q-6 -1 -11 -1t-10 -1q-4 0 -7 -0.5t-7 -0.5l-1 -1h-1v9q23 2 46.5 3.5t46.5 3.5q-2 0 -2.5 0.5t-2.5 0.5h-64h-34h-2v4v327v3v2h-3l-2 1q-3 3 -5 4l-1 1q1 1 4 1h3q1 1 1.5 0.5t2.5 0.5q0 5 -1 7
h-3h-4h-3q0 2 -0.5 3.5t0.5 3.5h2h2q-1 2 -2.5 3.5l-3.5 3.5v32q0 -1 2 -1q3 -3 9 -7l2 -1v3v17q0 4 -1 6v6q1 4 0 9v1q0 4 1 6v1v5q0 1 -0.5 1t-0.5 1v2v4q0 1 1 2v7h-2v1v6q1 0 2 1v7h-2q0 2 -0.5 3.5t0.5 3.5q0 1 2 1q0 5 -1 7q0 1 -2 1v3v4h3v8h-3v7h2q1 1 1 4h8h9h8h8
h8q0 1 -1 1q-2 0 -3 0.5t-3 0.5q-4 1 -7 2t-7 2q-7 0 -11 -1q-7 0 -11 -1l-1 1q-1 2 -1 6q-2 0 -3 1q2 17 3 34l2 34h4q6 -2 12 -3t11 -3q6 -2 11.5 -2.5t11.5 -2.5t11.5 -3t11.5 -2q13 -4 23 -5q5 -2 11 -3t12 -3h4q10 0 14 1h3h2v3v10v2h3h178q6 0 12 0.5t12 0.5q5 1 9 1
t9 1q5 0 9.5 0.5t9.5 1.5q6 0 9 1q5 0 9 0.5t9 0.5q5 1 9.5 1t9.5 1h8q4 1 11 1q3 0 5.5 0.5t5.5 0.5q5 0 9 0.5t9 1.5h9.5t9.5 1q6 0 9 1q5 0 9 0.5t9 0.5q3 0 5.5 0.5t5.5 0.5q6 0 9 1q7 0 10 1h12q2 1 8 1q2 0 5 0.5t5 0.5q8 0 12 1q6 0 10 1h4q1 -3 1 -7q-2 0 -3.5 -0.5
t-3.5 -0.5q-5 0 -11 -0.5t-11 -1.5q-6 0 -11.5 -0.5t-11.5 -0.5q-5 -1 -11 -1.5t-12 -0.5q-5 -1 -11 -1t-11 -1t-11 -1t-12 -1q-5 0 -11 -0.5t-11 -1.5q-7 -1 -13.5 -1t-12.5 -1q-5 -1 -13 -1v-1h2h75q7 0 14 0.5t14 0.5q3 1 9 1q5 0 8.5 0.5t8.5 1.5t10 1h10q2 1 7 1
q2 0 4.5 0.5t4.5 0.5h6.5t6.5 1l1 -1v-7h5v-4v-143v-26v-9v-23v-23zM145 693q0 -2 -0.5 -3.5t0.5 -3.5h3v8q-1 0 -1.5 -0.5t-1.5 -0.5zM143 670h5v8q-3 0 -4 -1q0 -1 -0.5 -1.5t-0.5 -1.5v-4zM143 662q-1 -2 -1 -7q2 -1 3 -0.5t3 0.5v7q-1 0 -1 1q-1 0 -2 -0.5t-2 -0.5z
M242 534q0 4 -2 8q-3 4 -8 4h-118q-6 0 -9 -4q-3 -3 -3 -8v-214q0 -6 3 -9q4 -4 9 -4h29q5 0 7 4q3 3 3 9v79h63q5 0 8 3t3 8v29q0 4 -3 7t-8 3h-63v45h79q5 0 8 4q2 4 2 8v28zM394 534q0 5 -3 8q-3 4 -7 4h-119q-5 0 -8 -4q-4 -4 -4 -8v-214q0 -5 4 -9t8 -4h30q3 0 7 4
q3 3 3 9v79h62q5 0 8 3t3 8v29q0 4 -3 7t-8 3h-62v45h79q4 0 7 4q3 3 3 8v28zM545 534q0 6 -3 8q-1 4 -7 4h-118q-6 0 -9 -4q-3 -3 -3 -8v-214q0 -6 3 -9q4 -4 9 -4h29q3 0 7 4q3 3 3 9v79h63q4 0 7 3q4 4 4 8v29q0 3 -4 7q-3 3 -7 3h-63v45h79q6 0 7 4q3 2 3 8v28zM29 74
q9 0 12 -7t3 -16q0 -8 -3 -16t-12 -8t-12 8t-3 16q0 5 1.5 12t6.5 9q4 2 7 2zM36 51q0 6 -1.5 11t-5.5 5q-2 0 -4 -2t-2.5 -7t-0.5 -7q0 -4 1 -10.5t6 -6.5q2 0 4 2q3 6 3 15zM69 28h-1l-13 28v-28h-6h-1v45h1h5h1l10 -23l3 -6v29h1h5h1v-45h-1h-5zM81 73h1h6v-38h14l1 -1
v-6h-1h-20h-1v45zM121 28h-6h-1v20l-10 24v1h1h6l4 -9q1 -2 2 -5.5t1 -4.5q0 2 1 5t2 5l3 9h1h6h1v-1l-11 -24v-20zM157 28v45h25v-6v-1h-18v-12h15v-1v-6h-15v-19h-1h-6zM226 28h-7v45h12q13 0 13 -14q0 -8 -5 -12l7 -19h-9l-5 16h-6v-16zM226 66v-15q7 0 9 1t2 3v4
q0 7 -9 7h-2zM303 73h25v-6v-1h-18v-12h15q1 0 1 -1v-6h-1h-15v-12h18v-1v-6h-25v45zM345 73h1h4h1l14 -45h-1h-6l-3 8h-14q-2 -6 -2 -8h-7zM349 57q-1 5 -1 3.5t-1 -3.5l-4 -14h10zM369 73h6h1v-38h13l1 -1v-6h-1h-20v45zM415 28v45h1h24h1v-6q0 -1 -1 -1h-18v-12h15
q1 0 1 -1v-6h-1h-15v-19h-6h-1zM445 73h1h5h1v-45h-1h-5h-1v45zM471 27q-4 0 -8 2q-2 2 -4 6t-2 7v10v8q1 2 1 3.5t1 3.5q2 4 4 5q4 2 7 2q4 0 5 -1q1 0 5 -2q2 -2 3 -4q2 -4 2 -7q0 -1 -1 -1h-1q-1 0 -1 -0.5t-1 -0.5h-2h-1q0 1 -0.5 1.5t-0.5 1.5q0 2 -0.5 2t-0.5 1l-2 2
q-1 1 -3 1t-2.5 -0.5t-1.5 -0.5q-2 -2 -2 -4q0 -1 -0.5 -2t-0.5 -2v-6v-7q1 -2 1 -5l2 -4q2 -2 4 -2t3 1l2 2q1 1 1 4q1 1 1 4h-5h-1v7h1h12h1v-24h-4l-1 5q0 -1 -2 -3l-2 -2q-2 0 -3 -1h-3zM512 47h-13v-19h-6h-1v45h1h6v-19h13v19h1h6v-45h-6h-1v19zM551 73v-6v-1h-10v-38
h-1h-5h-1v38h-9l-1 1v6h1h26zM555 73h1h24h1v-6q0 -1 -1 -1h-18v-12h15q1 0 1 -1v-6h-1h-15v-12h18q1 0 1 -1v-6h-1h-24h-1v45zM593 28h-6v45h12q4 0 5 -1q2 -1 4 -3q1 -1 3 -5q0 -1 0.5 -2t0.5 -3q0 -3 -2 -7q0 -2 -3 -5l6 -19h-1h-6h-1l-5 16h-1h-1h-2h-3v-16zM593 66v-15
h3q2 0 3 1q2 0 3 1q2 0 2 2q0 1 0.5 1.5t0.5 2.5q0 7 -9 7h-3zM616 62q0 4 1 5t1.5 2t1.5 2q2 2 4 2q1 1 5 1q3 0 4 -1q2 0 4 -2l3 -3q1 -1 1 -2t1 -3q0 -1 -1 -1t-1 -0.5t-2 -0.5l-2 -1h-1v1q-1 1 -1 2t-0.5 1t-0.5 1l-2 1q-1 1 -3 1q-1 0 -3 -2t-2 -3t0.5 -1.5t0.5 -1.5
l2 -2q1 -1 1.5 -1t1.5 -1l4 -2l2 -2q1 0 3 -2t2 -5q1 -1 1 -5q0 -6 -3 -9t-10 -3q-4 0 -5 1t-2 1.5t-2 1.5q-2 2 -3 4q0 1 -0.5 2t-0.5 2v1q1 1 4 1q1 1 3 1l1 -2q0 -1 0.5 -1.5t0.5 -1.5l2 -2q1 -1 2 -1q3 0 5 2q1 1 1 3v2l-2 2q0 1 -0.5 1t-0.5 1l-2 2q-1 1 -2 1.5t-2 1.5
q-2 1 -4 3q-3 1 -4 4q-1 1 -1 5zM199 74q9 0 12 -7t3 -16q0 -8 -3 -16t-12 -8t-12 8t-3 16q0 5 1.5 12t6.5 9q4 2 7 2zM206 51q0 6 -1.5 11t-5.5 5q-2 0 -4 -2t-2.5 -7t-0.5 -7q0 -4 1 -10.5t6 -6.5q2 0 4 2q3 6 3 15zM279 28h-7v45h12q13 0 13 -14q0 -8 -5 -12l7 -19h-9
l-5 16h-6v-16zM279 66v-15q7 0 9 1t2 3v4q0 7 -9 7h-2z" />
    <glyph glyph-name="six" unicode="6" horiz-adv-x="683" 
d="M622 488v-22v-54v-118v-160v-3h-2h-85q-1 0 -2 1q-6 3 -10 7q-1 1 -3 1h-2h-124h-2l-1 -1q1 -1 2 -1q4 -4 7 -6v-1h-2h-92.5t-91.5 -1h-15q-5 -1 -9 -1t-9 -1q-5 0 -9.5 -0.5t-9.5 -0.5q-3 -1 -8 -1q-3 0 -6 -0.5t-5 -0.5q-8 0 -11 -1q-5 0 -9.5 -0.5t-9.5 -0.5
q-5 -1 -9 -1t-9 -1q-3 0 -5 -0.5t-4 -0.5q-5 0 -9 -0.5t-9 -0.5q-4 -1 -11 -1q-6 -1 -11 -1t-10 -1q-4 0 -7 -0.5t-7 -0.5l-1 -1h-1v9q23 2 46.5 3.5t46.5 3.5q-2 0 -2.5 0.5t-2.5 0.5h-64h-34h-2v4v327v3v2h-3l-2 1q-3 3 -5 4l-1 1q1 1 4 1h3q1 1 1.5 0.5t2.5 0.5q0 5 -1 7
h-3h-4h-3q0 2 -0.5 3.5t0.5 3.5h2h2q-1 2 -2.5 3.5l-3.5 3.5v32q0 -1 2 -1q3 -3 9 -7l2 -1v3v17q0 4 -1 6v6q1 4 0 9v1q0 4 1 6v1v5q0 1 -0.5 1t-0.5 1v2v4q0 1 1 2v7h-2v1v6q1 0 2 1v7h-2q0 2 -0.5 3.5t0.5 3.5q0 1 2 1q0 5 -1 7q0 1 -2 1v3v4h3v8h-3v7h2q1 1 1 4h8h9h8h8
h8q0 1 -1 1q-2 0 -3 0.5t-3 0.5q-4 1 -7 2t-7 2q-7 0 -11 -1q-7 0 -11 -1l-1 1q-1 2 -1 6q-2 0 -3 1q2 17 3 34l2 34h4q6 -2 12 -3t11 -3q6 -2 11.5 -2.5t11.5 -2.5t11.5 -3t11.5 -2q13 -4 23 -5q5 -2 11 -3t12 -3h4q10 0 14 1h3h2v3v10v2h3h178q6 0 12 0.5t12 0.5q5 1 9 1
t9 1q5 0 9.5 0.5t9.5 1.5q6 0 9 1q5 0 9 0.5t9 0.5q5 1 9.5 1t9.5 1h8q4 1 11 1q3 0 5.5 0.5t5.5 0.5q5 0 9 0.5t9 1.5h9.5t9.5 1q6 0 9 1q5 0 9 0.5t9 0.5q3 0 5.5 0.5t5.5 0.5q6 0 9 1q7 0 10 1h12q2 1 8 1q2 0 5 0.5t5 0.5q8 0 12 1q6 0 10 1h4q1 -3 1 -7q-2 0 -3.5 -0.5
t-3.5 -0.5q-5 0 -11 -0.5t-11 -1.5q-6 0 -11.5 -0.5t-11.5 -0.5q-5 -1 -11 -1.5t-12 -0.5q-5 -1 -11 -1t-11 -1t-11 -1t-12 -1q-5 0 -11 -0.5t-11 -1.5q-7 -1 -13.5 -1t-12.5 -1q-5 -1 -13 -1v-1h2h75q7 0 14 0.5t14 0.5q3 1 9 1q5 0 8.5 0.5t8.5 1.5t10 1h10q2 1 7 1
q2 0 4.5 0.5t4.5 0.5h6.5t6.5 1l1 -1v-7h5v-4v-143v-26v-9v-23v-23zM145 693q0 -2 -0.5 -3.5t0.5 -3.5h3v8q-1 0 -1.5 -0.5t-1.5 -0.5zM143 670h5v8q-3 0 -4 -1q0 -1 -0.5 -1.5t-0.5 -1.5v-4zM143 662q-1 -2 -1 -7q2 -1 3 -0.5t3 0.5v7q-1 0 -1 1q-1 0 -2 -0.5t-2 -0.5z
M242 534q0 4 -2 8q-3 4 -8 4h-118q-6 0 -9 -4q-3 -3 -3 -8v-214q0 -6 3 -9q4 -4 9 -4h29q5 0 7 4q3 3 3 9v79h63q5 0 8 3t3 8v29q0 4 -3 7t-8 3h-63v45h79q5 0 8 4q2 4 2 8v28zM394 534q0 5 -3 8q-3 4 -7 4h-119q-5 0 -8 -4q-4 -4 -4 -8v-214q0 -5 4 -9t8 -4h30q3 0 7 4
q3 3 3 9v79h62q5 0 8 3t3 8v29q0 4 -3 7t-8 3h-62v45h79q4 0 7 4q3 3 3 8v28zM545 534q0 6 -3 8q-1 4 -7 4h-118q-6 0 -9 -4q-3 -3 -3 -8v-214q0 -6 3 -9q4 -4 9 -4h29q3 0 7 4q3 3 3 9v79h63q4 0 7 3q4 4 4 8v29q0 3 -4 7q-3 3 -7 3h-63v45h79q6 0 7 4q3 2 3 8v28zM29 74
q9 0 12 -7t3 -16q0 -8 -3 -16t-12 -8t-12 8t-3 16q0 5 1.5 12t6.5 9q4 2 7 2zM36 51q0 6 -1.5 11t-5.5 5q-2 0 -4 -2t-2.5 -7t-0.5 -7q0 -4 1 -10.5t6 -6.5q2 0 4 2q3 6 3 15zM69 28h-1l-13 28v-28h-6h-1v45h1h5h1l10 -23l3 -6v29h1h5h1v-45h-1h-5zM81 73h1h6v-38h14l1 -1
v-6h-1h-20h-1v45zM121 28h-6h-1v20l-10 24v1h1h6l4 -9q1 -2 2 -5.5t1 -4.5q0 2 1 5t2 5l3 9h1h6h1v-1l-11 -24v-20zM157 28v45h25v-6v-1h-18v-12h15v-1v-6h-15v-19h-1h-6zM226 28h-7v45h12q13 0 13 -14q0 -8 -5 -12l7 -19h-9l-5 16h-6v-16zM226 66v-15q7 0 9 1t2 3v4
q0 7 -9 7h-2zM303 73h25v-6v-1h-18v-12h15q1 0 1 -1v-6h-1h-15v-12h18v-1v-6h-25v45zM345 73h1h4h1l14 -45h-1h-6l-3 8h-14q-2 -6 -2 -8h-7zM349 57q-1 5 -1 3.5t-1 -3.5l-4 -14h10zM369 73h6h1v-38h13l1 -1v-6h-1h-20v45zM415 28v45h1h24h1v-6q0 -1 -1 -1h-18v-12h15
q1 0 1 -1v-6h-1h-15v-19h-6h-1zM445 73h1h5h1v-45h-1h-5h-1v45zM471 27q-4 0 -8 2q-2 2 -4 6t-2 7v10v8q1 2 1 3.5t1 3.5q2 4 4 5q4 2 7 2q4 0 5 -1q1 0 5 -2q2 -2 3 -4q2 -4 2 -7q0 -1 -1 -1h-1q-1 0 -1 -0.5t-1 -0.5h-2h-1q0 1 -0.5 1.5t-0.5 1.5q0 2 -0.5 2t-0.5 1l-2 2
q-1 1 -3 1t-2.5 -0.5t-1.5 -0.5q-2 -2 -2 -4q0 -1 -0.5 -2t-0.5 -2v-6v-7q1 -2 1 -5l2 -4q2 -2 4 -2t3 1l2 2q1 1 1 4q1 1 1 4h-5h-1v7h1h12h1v-24h-4l-1 5q0 -1 -2 -3l-2 -2q-2 0 -3 -1h-3zM512 47h-13v-19h-6h-1v45h1h6v-19h13v19h1h6v-45h-6h-1v19zM551 73v-6v-1h-10v-38
h-1h-5h-1v38h-9l-1 1v6h1h26zM555 73h1h24h1v-6q0 -1 -1 -1h-18v-12h15q1 0 1 -1v-6h-1h-15v-12h18q1 0 1 -1v-6h-1h-24h-1v45zM593 28h-6v45h12q4 0 5 -1q2 -1 4 -3q1 -1 3 -5q0 -1 0.5 -2t0.5 -3q0 -3 -2 -7q0 -2 -3 -5l6 -19h-1h-6h-1l-5 16h-1h-1h-2h-3v-16zM593 66v-15
h3q2 0 3 1q2 0 3 1q2 0 2 2q0 1 0.5 1.5t0.5 2.5q0 7 -9 7h-3zM616 62q0 4 1 5t1.5 2t1.5 2q2 2 4 2q1 1 5 1q3 0 4 -1q2 0 4 -2l3 -3q1 -1 1 -2t1 -3q0 -1 -1 -1t-1 -0.5t-2 -0.5l-2 -1h-1v1q-1 1 -1 2t-0.5 1t-0.5 1l-2 1q-1 1 -3 1q-1 0 -3 -2t-2 -3t0.5 -1.5t0.5 -1.5
l2 -2q1 -1 1.5 -1t1.5 -1l4 -2l2 -2q1 0 3 -2t2 -5q1 -1 1 -5q0 -6 -3 -9t-10 -3q-4 0 -5 1t-2 1.5t-2 1.5q-2 2 -3 4q0 1 -0.5 2t-0.5 2v1q1 1 4 1q1 1 3 1l1 -2q0 -1 0.5 -1.5t0.5 -1.5l2 -2q1 -1 2 -1q3 0 5 2q1 1 1 3v2l-2 2q0 1 -0.5 1t-0.5 1l-2 2q-1 1 -2 1.5t-2 1.5
q-2 1 -4 3q-3 1 -4 4q-1 1 -1 5zM199 74q9 0 12 -7t3 -16q0 -8 -3 -16t-12 -8t-12 8t-3 16q0 5 1.5 12t6.5 9q4 2 7 2zM206 51q0 6 -1.5 11t-5.5 5q-2 0 -4 -2t-2.5 -7t-0.5 -7q0 -4 1 -10.5t6 -6.5q2 0 4 2q3 6 3 15zM279 28h-7v45h12q13 0 13 -14q0 -8 -5 -12l7 -19h-9
l-5 16h-6v-16zM279 66v-15q7 0 9 1t2 3v4q0 7 -9 7h-2z" />
    <glyph glyph-name="seven" unicode="7" horiz-adv-x="683" 
d="M622 488v-22v-54v-118v-160v-3h-2h-85q-1 0 -2 1q-6 3 -10 7q-1 1 -3 1h-2h-124h-2l-1 -1q1 -1 2 -1q4 -4 7 -6v-1h-2h-92.5t-91.5 -1h-15q-5 -1 -9 -1t-9 -1q-5 0 -9.5 -0.5t-9.5 -0.5q-3 -1 -8 -1q-3 0 -6 -0.5t-5 -0.5q-8 0 -11 -1q-5 0 -9.5 -0.5t-9.5 -0.5
q-5 -1 -9 -1t-9 -1q-3 0 -5 -0.5t-4 -0.5q-5 0 -9 -0.5t-9 -0.5q-4 -1 -11 -1q-6 -1 -11 -1t-10 -1q-4 0 -7 -0.5t-7 -0.5l-1 -1h-1v9q23 2 46.5 3.5t46.5 3.5q-2 0 -2.5 0.5t-2.5 0.5h-64h-34h-2v4v327v3v2h-3l-2 1q-3 3 -5 4l-1 1q1 1 4 1h3q1 1 1.5 0.5t2.5 0.5q0 5 -1 7
h-3h-4h-3q0 2 -0.5 3.5t0.5 3.5h2h2q-1 2 -2.5 3.5l-3.5 3.5v32q0 -1 2 -1q3 -3 9 -7l2 -1v3v17q0 4 -1 6v6q1 4 0 9v1q0 4 1 6v1v5q0 1 -0.5 1t-0.5 1v2v4q0 1 1 2v7h-2v1v6q1 0 2 1v7h-2q0 2 -0.5 3.5t0.5 3.5q0 1 2 1q0 5 -1 7q0 1 -2 1v3v4h3v8h-3v7h2q1 1 1 4h8h9h8h8
h8q0 1 -1 1q-2 0 -3 0.5t-3 0.5q-4 1 -7 2t-7 2q-7 0 -11 -1q-7 0 -11 -1l-1 1q-1 2 -1 6q-2 0 -3 1q2 17 3 34l2 34h4q6 -2 12 -3t11 -3q6 -2 11.5 -2.5t11.5 -2.5t11.5 -3t11.5 -2q13 -4 23 -5q5 -2 11 -3t12 -3h4q10 0 14 1h3h2v3v10v2h3h178q6 0 12 0.5t12 0.5q5 1 9 1
t9 1q5 0 9.5 0.5t9.5 1.5q6 0 9 1q5 0 9 0.5t9 0.5q5 1 9.5 1t9.5 1h8q4 1 11 1q3 0 5.5 0.5t5.5 0.5q5 0 9 0.5t9 1.5h9.5t9.5 1q6 0 9 1q5 0 9 0.5t9 0.5q3 0 5.5 0.5t5.5 0.5q6 0 9 1q7 0 10 1h12q2 1 8 1q2 0 5 0.5t5 0.5q8 0 12 1q6 0 10 1h4q1 -3 1 -7q-2 0 -3.5 -0.5
t-3.5 -0.5q-5 0 -11 -0.5t-11 -1.5q-6 0 -11.5 -0.5t-11.5 -0.5q-5 -1 -11 -1.5t-12 -0.5q-5 -1 -11 -1t-11 -1t-11 -1t-12 -1q-5 0 -11 -0.5t-11 -1.5q-7 -1 -13.5 -1t-12.5 -1q-5 -1 -13 -1v-1h2h75q7 0 14 0.5t14 0.5q3 1 9 1q5 0 8.5 0.5t8.5 1.5t10 1h10q2 1 7 1
q2 0 4.5 0.5t4.5 0.5h6.5t6.5 1l1 -1v-7h5v-4v-143v-26v-9v-23v-23zM145 693q0 -2 -0.5 -3.5t0.5 -3.5h3v8q-1 0 -1.5 -0.5t-1.5 -0.5zM143 670h5v8q-3 0 -4 -1q0 -1 -0.5 -1.5t-0.5 -1.5v-4zM143 662q-1 -2 -1 -7q2 -1 3 -0.5t3 0.5v7q-1 0 -1 1q-1 0 -2 -0.5t-2 -0.5z
M242 534q0 4 -2 8q-3 4 -8 4h-118q-6 0 -9 -4q-3 -3 -3 -8v-214q0 -6 3 -9q4 -4 9 -4h29q5 0 7 4q3 3 3 9v79h63q5 0 8 3t3 8v29q0 4 -3 7t-8 3h-63v45h79q5 0 8 4q2 4 2 8v28zM394 534q0 5 -3 8q-3 4 -7 4h-119q-5 0 -8 -4q-4 -4 -4 -8v-214q0 -5 4 -9t8 -4h30q3 0 7 4
q3 3 3 9v79h62q5 0 8 3t3 8v29q0 4 -3 7t-8 3h-62v45h79q4 0 7 4q3 3 3 8v28zM545 534q0 6 -3 8q-1 4 -7 4h-118q-6 0 -9 -4q-3 -3 -3 -8v-214q0 -6 3 -9q4 -4 9 -4h29q3 0 7 4q3 3 3 9v79h63q4 0 7 3q4 4 4 8v29q0 3 -4 7q-3 3 -7 3h-63v45h79q6 0 7 4q3 2 3 8v28zM29 74
q9 0 12 -7t3 -16q0 -8 -3 -16t-12 -8t-12 8t-3 16q0 5 1.5 12t6.5 9q4 2 7 2zM36 51q0 6 -1.5 11t-5.5 5q-2 0 -4 -2t-2.5 -7t-0.5 -7q0 -4 1 -10.5t6 -6.5q2 0 4 2q3 6 3 15zM69 28h-1l-13 28v-28h-6h-1v45h1h5h1l10 -23l3 -6v29h1h5h1v-45h-1h-5zM81 73h1h6v-38h14l1 -1
v-6h-1h-20h-1v45zM121 28h-6h-1v20l-10 24v1h1h6l4 -9q1 -2 2 -5.5t1 -4.5q0 2 1 5t2 5l3 9h1h6h1v-1l-11 -24v-20zM157 28v45h25v-6v-1h-18v-12h15v-1v-6h-15v-19h-1h-6zM226 28h-7v45h12q13 0 13 -14q0 -8 -5 -12l7 -19h-9l-5 16h-6v-16zM226 66v-15q7 0 9 1t2 3v4
q0 7 -9 7h-2zM303 73h25v-6v-1h-18v-12h15q1 0 1 -1v-6h-1h-15v-12h18v-1v-6h-25v45zM345 73h1h4h1l14 -45h-1h-6l-3 8h-14q-2 -6 -2 -8h-7zM349 57q-1 5 -1 3.5t-1 -3.5l-4 -14h10zM369 73h6h1v-38h13l1 -1v-6h-1h-20v45zM415 28v45h1h24h1v-6q0 -1 -1 -1h-18v-12h15
q1 0 1 -1v-6h-1h-15v-19h-6h-1zM445 73h1h5h1v-45h-1h-5h-1v45zM471 27q-4 0 -8 2q-2 2 -4 6t-2 7v10v8q1 2 1 3.5t1 3.5q2 4 4 5q4 2 7 2q4 0 5 -1q1 0 5 -2q2 -2 3 -4q2 -4 2 -7q0 -1 -1 -1h-1q-1 0 -1 -0.5t-1 -0.5h-2h-1q0 1 -0.5 1.5t-0.5 1.5q0 2 -0.5 2t-0.5 1l-2 2
q-1 1 -3 1t-2.5 -0.5t-1.5 -0.5q-2 -2 -2 -4q0 -1 -0.5 -2t-0.5 -2v-6v-7q1 -2 1 -5l2 -4q2 -2 4 -2t3 1l2 2q1 1 1 4q1 1 1 4h-5h-1v7h1h12h1v-24h-4l-1 5q0 -1 -2 -3l-2 -2q-2 0 -3 -1h-3zM512 47h-13v-19h-6h-1v45h1h6v-19h13v19h1h6v-45h-6h-1v19zM551 73v-6v-1h-10v-38
h-1h-5h-1v38h-9l-1 1v6h1h26zM555 73h1h24h1v-6q0 -1 -1 -1h-18v-12h15q1 0 1 -1v-6h-1h-15v-12h18q1 0 1 -1v-6h-1h-24h-1v45zM593 28h-6v45h12q4 0 5 -1q2 -1 4 -3q1 -1 3 -5q0 -1 0.5 -2t0.5 -3q0 -3 -2 -7q0 -2 -3 -5l6 -19h-1h-6h-1l-5 16h-1h-1h-2h-3v-16zM593 66v-15
h3q2 0 3 1q2 0 3 1q2 0 2 2q0 1 0.5 1.5t0.5 2.5q0 7 -9 7h-3zM616 62q0 4 1 5t1.5 2t1.5 2q2 2 4 2q1 1 5 1q3 0 4 -1q2 0 4 -2l3 -3q1 -1 1 -2t1 -3q0 -1 -1 -1t-1 -0.5t-2 -0.5l-2 -1h-1v1q-1 1 -1 2t-0.5 1t-0.5 1l-2 1q-1 1 -3 1q-1 0 -3 -2t-2 -3t0.5 -1.5t0.5 -1.5
l2 -2q1 -1 1.5 -1t1.5 -1l4 -2l2 -2q1 0 3 -2t2 -5q1 -1 1 -5q0 -6 -3 -9t-10 -3q-4 0 -5 1t-2 1.5t-2 1.5q-2 2 -3 4q0 1 -0.5 2t-0.5 2v1q1 1 4 1q1 1 3 1l1 -2q0 -1 0.5 -1.5t0.5 -1.5l2 -2q1 -1 2 -1q3 0 5 2q1 1 1 3v2l-2 2q0 1 -0.5 1t-0.5 1l-2 2q-1 1 -2 1.5t-2 1.5
q-2 1 -4 3q-3 1 -4 4q-1 1 -1 5zM199 74q9 0 12 -7t3 -16q0 -8 -3 -16t-12 -8t-12 8t-3 16q0 5 1.5 12t6.5 9q4 2 7 2zM206 51q0 6 -1.5 11t-5.5 5q-2 0 -4 -2t-2.5 -7t-0.5 -7q0 -4 1 -10.5t6 -6.5q2 0 4 2q3 6 3 15zM279 28h-7v45h12q13 0 13 -14q0 -8 -5 -12l7 -19h-9
l-5 16h-6v-16zM279 66v-15q7 0 9 1t2 3v4q0 7 -9 7h-2z" />
    <glyph glyph-name="eight" unicode="8" horiz-adv-x="683" 
d="M622 488v-22v-54v-118v-160v-3h-2h-85q-1 0 -2 1q-6 3 -10 7q-1 1 -3 1h-2h-124h-2l-1 -1q1 -1 2 -1q4 -4 7 -6v-1h-2h-92.5t-91.5 -1h-15q-5 -1 -9 -1t-9 -1q-5 0 -9.5 -0.5t-9.5 -0.5q-3 -1 -8 -1q-3 0 -6 -0.5t-5 -0.5q-8 0 -11 -1q-5 0 -9.5 -0.5t-9.5 -0.5
q-5 -1 -9 -1t-9 -1q-3 0 -5 -0.5t-4 -0.5q-5 0 -9 -0.5t-9 -0.5q-4 -1 -11 -1q-6 -1 -11 -1t-10 -1q-4 0 -7 -0.5t-7 -0.5l-1 -1h-1v9q23 2 46.5 3.5t46.5 3.5q-2 0 -2.5 0.5t-2.5 0.5h-64h-34h-2v4v327v3v2h-3l-2 1q-3 3 -5 4l-1 1q1 1 4 1h3q1 1 1.5 0.5t2.5 0.5q0 5 -1 7
h-3h-4h-3q0 2 -0.5 3.5t0.5 3.5h2h2q-1 2 -2.5 3.5l-3.5 3.5v32q0 -1 2 -1q3 -3 9 -7l2 -1v3v17q0 4 -1 6v6q1 4 0 9v1q0 4 1 6v1v5q0 1 -0.5 1t-0.5 1v2v4q0 1 1 2v7h-2v1v6q1 0 2 1v7h-2q0 2 -0.5 3.5t0.5 3.5q0 1 2 1q0 5 -1 7q0 1 -2 1v3v4h3v8h-3v7h2q1 1 1 4h8h9h8h8
h8q0 1 -1 1q-2 0 -3 0.5t-3 0.5q-4 1 -7 2t-7 2q-7 0 -11 -1q-7 0 -11 -1l-1 1q-1 2 -1 6q-2 0 -3 1q2 17 3 34l2 34h4q6 -2 12 -3t11 -3q6 -2 11.5 -2.5t11.5 -2.5t11.5 -3t11.5 -2q13 -4 23 -5q5 -2 11 -3t12 -3h4q10 0 14 1h3h2v3v10v2h3h178q6 0 12 0.5t12 0.5q5 1 9 1
t9 1q5 0 9.5 0.5t9.5 1.5q6 0 9 1q5 0 9 0.5t9 0.5q5 1 9.5 1t9.5 1h8q4 1 11 1q3 0 5.5 0.5t5.5 0.5q5 0 9 0.5t9 1.5h9.5t9.5 1q6 0 9 1q5 0 9 0.5t9 0.5q3 0 5.5 0.5t5.5 0.5q6 0 9 1q7 0 10 1h12q2 1 8 1q2 0 5 0.5t5 0.5q8 0 12 1q6 0 10 1h4q1 -3 1 -7q-2 0 -3.5 -0.5
t-3.5 -0.5q-5 0 -11 -0.5t-11 -1.5q-6 0 -11.5 -0.5t-11.5 -0.5q-5 -1 -11 -1.5t-12 -0.5q-5 -1 -11 -1t-11 -1t-11 -1t-12 -1q-5 0 -11 -0.5t-11 -1.5q-7 -1 -13.5 -1t-12.5 -1q-5 -1 -13 -1v-1h2h75q7 0 14 0.5t14 0.5q3 1 9 1q5 0 8.5 0.5t8.5 1.5t10 1h10q2 1 7 1
q2 0 4.5 0.5t4.5 0.5h6.5t6.5 1l1 -1v-7h5v-4v-143v-26v-9v-23v-23zM145 693q0 -2 -0.5 -3.5t0.5 -3.5h3v8q-1 0 -1.5 -0.5t-1.5 -0.5zM143 670h5v8q-3 0 -4 -1q0 -1 -0.5 -1.5t-0.5 -1.5v-4zM143 662q-1 -2 -1 -7q2 -1 3 -0.5t3 0.5v7q-1 0 -1 1q-1 0 -2 -0.5t-2 -0.5z
M242 534q0 4 -2 8q-3 4 -8 4h-118q-6 0 -9 -4q-3 -3 -3 -8v-214q0 -6 3 -9q4 -4 9 -4h29q5 0 7 4q3 3 3 9v79h63q5 0 8 3t3 8v29q0 4 -3 7t-8 3h-63v45h79q5 0 8 4q2 4 2 8v28zM394 534q0 5 -3 8q-3 4 -7 4h-119q-5 0 -8 -4q-4 -4 -4 -8v-214q0 -5 4 -9t8 -4h30q3 0 7 4
q3 3 3 9v79h62q5 0 8 3t3 8v29q0 4 -3 7t-8 3h-62v45h79q4 0 7 4q3 3 3 8v28zM545 534q0 6 -3 8q-1 4 -7 4h-118q-6 0 -9 -4q-3 -3 -3 -8v-214q0 -6 3 -9q4 -4 9 -4h29q3 0 7 4q3 3 3 9v79h63q4 0 7 3q4 4 4 8v29q0 3 -4 7q-3 3 -7 3h-63v45h79q6 0 7 4q3 2 3 8v28zM29 74
q9 0 12 -7t3 -16q0 -8 -3 -16t-12 -8t-12 8t-3 16q0 5 1.5 12t6.5 9q4 2 7 2zM36 51q0 6 -1.5 11t-5.5 5q-2 0 -4 -2t-2.5 -7t-0.5 -7q0 -4 1 -10.5t6 -6.5q2 0 4 2q3 6 3 15zM69 28h-1l-13 28v-28h-6h-1v45h1h5h1l10 -23l3 -6v29h1h5h1v-45h-1h-5zM81 73h1h6v-38h14l1 -1
v-6h-1h-20h-1v45zM121 28h-6h-1v20l-10 24v1h1h6l4 -9q1 -2 2 -5.5t1 -4.5q0 2 1 5t2 5l3 9h1h6h1v-1l-11 -24v-20zM157 28v45h25v-6v-1h-18v-12h15v-1v-6h-15v-19h-1h-6zM226 28h-7v45h12q13 0 13 -14q0 -8 -5 -12l7 -19h-9l-5 16h-6v-16zM226 66v-15q7 0 9 1t2 3v4
q0 7 -9 7h-2zM303 73h25v-6v-1h-18v-12h15q1 0 1 -1v-6h-1h-15v-12h18v-1v-6h-25v45zM345 73h1h4h1l14 -45h-1h-6l-3 8h-14q-2 -6 -2 -8h-7zM349 57q-1 5 -1 3.5t-1 -3.5l-4 -14h10zM369 73h6h1v-38h13l1 -1v-6h-1h-20v45zM415 28v45h1h24h1v-6q0 -1 -1 -1h-18v-12h15
q1 0 1 -1v-6h-1h-15v-19h-6h-1zM445 73h1h5h1v-45h-1h-5h-1v45zM471 27q-4 0 -8 2q-2 2 -4 6t-2 7v10v8q1 2 1 3.5t1 3.5q2 4 4 5q4 2 7 2q4 0 5 -1q1 0 5 -2q2 -2 3 -4q2 -4 2 -7q0 -1 -1 -1h-1q-1 0 -1 -0.5t-1 -0.5h-2h-1q0 1 -0.5 1.5t-0.5 1.5q0 2 -0.5 2t-0.5 1l-2 2
q-1 1 -3 1t-2.5 -0.5t-1.5 -0.5q-2 -2 -2 -4q0 -1 -0.5 -2t-0.5 -2v-6v-7q1 -2 1 -5l2 -4q2 -2 4 -2t3 1l2 2q1 1 1 4q1 1 1 4h-5h-1v7h1h12h1v-24h-4l-1 5q0 -1 -2 -3l-2 -2q-2 0 -3 -1h-3zM512 47h-13v-19h-6h-1v45h1h6v-19h13v19h1h6v-45h-6h-1v19zM551 73v-6v-1h-10v-38
h-1h-5h-1v38h-9l-1 1v6h1h26zM555 73h1h24h1v-6q0 -1 -1 -1h-18v-12h15q1 0 1 -1v-6h-1h-15v-12h18q1 0 1 -1v-6h-1h-24h-1v45zM593 28h-6v45h12q4 0 5 -1q2 -1 4 -3q1 -1 3 -5q0 -1 0.5 -2t0.5 -3q0 -3 -2 -7q0 -2 -3 -5l6 -19h-1h-6h-1l-5 16h-1h-1h-2h-3v-16zM593 66v-15
h3q2 0 3 1q2 0 3 1q2 0 2 2q0 1 0.5 1.5t0.5 2.5q0 7 -9 7h-3zM616 62q0 4 1 5t1.5 2t1.5 2q2 2 4 2q1 1 5 1q3 0 4 -1q2 0 4 -2l3 -3q1 -1 1 -2t1 -3q0 -1 -1 -1t-1 -0.5t-2 -0.5l-2 -1h-1v1q-1 1 -1 2t-0.5 1t-0.5 1l-2 1q-1 1 -3 1q-1 0 -3 -2t-2 -3t0.5 -1.5t0.5 -1.5
l2 -2q1 -1 1.5 -1t1.5 -1l4 -2l2 -2q1 0 3 -2t2 -5q1 -1 1 -5q0 -6 -3 -9t-10 -3q-4 0 -5 1t-2 1.5t-2 1.5q-2 2 -3 4q0 1 -0.5 2t-0.5 2v1q1 1 4 1q1 1 3 1l1 -2q0 -1 0.5 -1.5t0.5 -1.5l2 -2q1 -1 2 -1q3 0 5 2q1 1 1 3v2l-2 2q0 1 -0.5 1t-0.5 1l-2 2q-1 1 -2 1.5t-2 1.5
q-2 1 -4 3q-3 1 -4 4q-1 1 -1 5zM199 74q9 0 12 -7t3 -16q0 -8 -3 -16t-12 -8t-12 8t-3 16q0 5 1.5 12t6.5 9q4 2 7 2zM206 51q0 6 -1.5 11t-5.5 5q-2 0 -4 -2t-2.5 -7t-0.5 -7q0 -4 1 -10.5t6 -6.5q2 0 4 2q3 6 3 15zM279 28h-7v45h12q13 0 13 -14q0 -8 -5 -12l7 -19h-9
l-5 16h-6v-16zM279 66v-15q7 0 9 1t2 3v4q0 7 -9 7h-2z" />
    <glyph glyph-name="nine" unicode="9" horiz-adv-x="448" 
d="M-162.962 215.029v21.999v53.9971v117.992v159.99v3h2h84.9941q1 0 2 -1q6 -3 10 -6.99902q1 -1 2.99902 -1h2h123.993h1.99902l1 1q-1 1 -1.99902 1q-4 3.99902 -7 5.99902v1h2h92.4941t91.4941 1h14.999q5 1 9 1t8.99902 1q5 0 9.5 0.5q4.49902 0.5 9.49902 0.5
q3 1 8 1q2.99902 0 5.99902 0.5t5 0.5q7.99902 0 10.999 1q5 0 9.5 0.5q4.49902 0.5 9.49902 0.5q5 1 8.99902 1q4 0 9 1q3 0 5 0.5t3.99902 0.5q5 0 9 0.499023q4 0.5 8.99902 0.5q4 1 11 1q5.99902 1 10.999 1t9.99902 1q4 0 7 0.5t6.99902 0.5l1 1h1v-8.99902
q-22.998 -2 -46.4971 -3.5q-23.498 -1.5 -46.4971 -3.5q2 0 2.5 -0.5t2.5 -0.5h63.9961h33.998h1.99902v-4v-326.979v-3v-2h3l2 -1q3 -3 5 -3.99902l1 -1q-1 -1 -4 -1h-3q-1 -1 -1.5 -0.5t-2.5 -0.5q0 -5 1 -7h3h4h3q0 -2 0.5 -3.5t-0.5 -3.49902h-2h-2q1 -2 2.5 -3.5
l3.5 -3.5v-31.998q0 1 -2 1q-3 3 -9 6.99902l-2 1v-2.99902v-16.999q0 -4 1 -6v-6q-1 -3.99902 0 -8.99902v-1q0 -4 -1 -6v-0.999023v-5q0 -1 0.5 -1t0.5 -1v-2v-4q0 -1 -1 -2v-6.99902h2v-1v-6q-1 0 -2 -1v-6.99902h2q0 -2 0.5 -3.5t-0.5 -3.5q0 -1 -2 -1
q0 -4.99902 1 -6.99902q0 -1 2 -1v-3v-4h-3v-7.99902h3v-7h-2q-1 -1 -1 -4h-7.99902h-8.99902h-8h-7.99902h-8q0 -1 1 -1q2 0 3 -0.499023q1 -0.5 3 -0.5q3.99902 -1 6.99902 -2t7 -2q6.99902 0 10.999 1q7 0 10.999 1l1 -1q1 -2 1 -6q2 0 3 -1q-2 -16.999 -3 -33.998
l-2 -33.998h-3.99902q-6 2 -12 3q-5.99902 1 -10.999 3q-6 2 -11.499 2.5q-5.5 0.5 -11.499 2.5q-6 2 -11.5 3q-5.49902 0.999023 -11.499 1.99902q-12.999 4 -22.999 5q-4.99902 2 -10.999 3t-11.999 3h-4q-9.99902 0 -13.999 -1h-3h-2v-3v-9.99902v-2h-3h-177.988
q-6 0 -12 -0.5q-5.99902 -0.5 -11.999 -0.5q-5 -1 -8.99902 -1q-4 0 -9 -1q-4.99902 0 -9.49902 -0.5t-9.5 -1.5q-5.99902 0 -8.99902 -1q-5 0 -8.99902 -0.5q-4 -0.5 -9 -0.5q-5 -1 -9.49902 -1q-4.5 0 -9.5 -1h-7.99902q-4 -1 -11 -1q-2.99902 0 -5.49902 -0.5t-5.5 -0.5
q-5 0 -8.99902 -0.5q-4 -0.499023 -9 -1.49902h-9.49902t-9.5 -1q-5.99902 0 -8.99902 -1q-5 0 -8.99902 -0.5q-4 -0.5 -9 -0.5q-3 0 -5.5 -0.5q-2.49902 -0.5 -5.49902 -0.5q-6 0 -9 -1q-6.99902 0 -9.99902 -1h-11.999q-2 -1 -8 -1q-2 0 -4.99902 -0.5q-3 -0.5 -5 -0.5
q-8 0 -11.999 -1q-6 0 -10 -1h-4q-0.999023 3 -0.999023 7q1.99902 0 3.49902 0.5t3.5 0.5q5 0 10.999 0.5q6 0.5 11 1.5q5.99902 0 11.499 0.5t11.499 0.5q5 0.999023 11 1.49902q5.99902 0.5 11.999 0.5q5 1 10.999 1q6 0 10.999 1q5 1 11 1q5.99902 0 11.999 1
q5 0 10.999 0.5q6 0.5 11 1.5q6.99902 1 13.499 1q6.49902 0 12.499 1q5 1 12.999 1v1h-2h-74.9951q-7 0 -13.999 -0.5q-7 -0.5 -13.999 -0.5q-3 -1 -9 -1q-4.99902 0 -8.49902 -0.5t-8.5 -1.5q-4.99902 -1 -9.99902 -1h-9.99902q-2 -1 -7 -1q-2 0 -4.5 -0.5
q-2.49902 -0.5 -4.49902 -0.5h-6.5t-6.5 -1l-0.999023 1v7h-5v3.99902v142.992v25.998v8.99902v22.999v22.998zM314.009 10.042q0 2 0.5 3.5t-0.5 3.5h-3v-8q1 0 1.5 0.5t1.5 0.5zM316.009 33.041h-5v-8q3 0 4 1q0 1 0.5 1.5t0.5 1.5v4zM316.009 41.04q1 2 1 7q-2 1 -3 0.5
t-3 -0.5v-7q1 0 1 -1q1 0 2 0.5t2 0.5zM217.015 169.032q0 -3.99902 2 -7.99902q3 -4 7.99902 -4h117.993q6 0 9 4q2.99902 3 2.99902 7.99902v213.987q0 6 -2.99902 8.99902q-4 4 -9 4h-28.998q-5 0 -7 -4q-2.99902 -2.99902 -2.99902 -8.99902v-78.9951h-62.9961
q-5 0 -8 -3t-3 -7.99902v-28.999q0 -3.99902 3 -6.99902t8 -3h62.9961v-44.9971h-78.9961q-4.99902 0 -7.99902 -4q-2 -4 -2 -7.99902v-27.999zM65.0244 169.032q0 -4.99902 2.99902 -7.99902q3 -4 7 -4h118.993q4.99902 0 7.99902 4q4 4 4 7.99902v213.987q0 5 -4 8.99902
q-4 4 -7.99902 4h-29.999q-2.99902 0 -6.99902 -4q-3 -2.99902 -3 -8.99902v-78.9951h-61.9961q-5 0 -8 -3q-2.99902 -3 -2.99902 -7.99902v-28.999q0 -3.99902 2.99902 -6.99902q3 -3 8 -3h61.9961v-44.9971h-78.9951q-4 0 -7 -4q-2.99902 -3 -2.99902 -7.99902v-27.999z
M-85.9668 169.032q0 -5.99902 3 -7.99902q1 -4 6.99902 -4h117.993q6 0 9 4q2.99902 3 2.99902 7.99902v213.987q0 6 -2.99902 8.99902q-4 4 -9 4h-28.998q-3 0 -7 -4q-3 -2.99902 -3 -8.99902v-78.9951h-62.9961q-3.99902 0 -6.99902 -3q-4 -4 -4 -7.99902v-28.999
q0 -2.99902 4 -6.99902q3 -3 6.99902 -3h62.9961v-44.9971h-78.9951q-5.99902 0 -6.99902 -4q-3 -2 -3 -7.99902v-27.999zM430.002 629.005q-9 0 -11.999 6.99902q-3 7 -3 15.999q0 8 3 15.999q2.99902 8 11.999 8q8.99902 0 11.999 -8q3 -7.99902 3 -15.999
q0 -4.99902 -1.5 -11.999t-6.5 -9q-3.99902 -1.99902 -6.99902 -1.99902zM423.002 652.003q0 -5.99902 1.5 -10.999t5.5 -5q2 0 4 2q1.99902 2 2.49902 7q0.5 4.99902 0.5 6.99902q0 4 -1 10.5q-0.999023 6.49902 -5.99902 6.49902q-2 0 -4 -2q-3 -5.99902 -3 -14.999z
M390.004 675.002h1l12.999 -27.998v27.998h6h1v-44.9971h-1h-5h-1l-9.99902 22.998l-3 6v-28.998h-1h-4.99902h-1v44.9971h1h4.99902zM378.005 630.005h-1h-5.99902v37.9971h-14l-1 1v6h1h19.999h1v-44.9971zM338.008 675.002h5.99902h1v-19.999l9.99902 -23.999v-0.999023
h-0.999023h-6l-4 8.99902q-1 2 -2 5.5q-1 3.49902 -1 4.49902q0 -1.99902 -1 -4.99902q-0.999023 -3 -1.99902 -5l-3 -8.99902h-1h-6h-1v0.999023l11 23.999v19.999zM302.01 675.002v-44.9971h-24.999v5.99902v1h17.999v11.999h-14.999v1v6h14.999v18.999h1h6z
M233.014 675.002h7v-44.9971h-12q-12.999 0 -12.999 13.999q0 7.99902 5 11.999l-7 18.999h9l4.99902 -15.999h6v15.999zM233.014 637.004v14.999q-6.99902 0 -8.99902 -1t-2 -3v-3.99902q0 -7 8.99902 -7h2zM156.019 630.005h-24.999v5.99902v1h17.999v11.999h-14.999
q-1 0 -1 1v6h1h14.999v11.999h-17.999v1v6h24.999v-44.9971zM114.021 630.005h-1h-4h-1l-13.999 44.9971h1h5.99902l3 -8h13.999q2 6 2 8h7zM110.021 646.004q1 -5 1 -3.5t1 3.5l3.99902 13.999h-9.99902zM90.0225 630.005h-6h-0.999023v37.9971h-13l-1 1v6h1h19.999
v-44.9971zM44.0254 675.002v-44.9971h-1h-23.998h-1v5.99902q0 1 1 1h17.998v11.999h-14.999q-1 0 -1 1v6h1h14.999v18.999h6h1zM14.0273 630.005h-1h-5h-1v44.9971h1h5h1v-44.9971zM-11.9717 676.002q4 0 8 -2q2 -2 4 -6t2 -6.99902v-10v-7.99902q-1 -2 -1 -3.5t-1 -3.5
q-2 -4 -4 -5q-4 -1.99902 -7 -1.99902q-3.99902 0 -4.99902 1q-1 0 -5 1.99902q-2 2 -3 4q-2 4 -2 7q0 1 1 1h1q1 0 1 0.5t1 0.5h2h1q0 -1 0.5 -1.5t0.5 -1.5q0 -2 0.5 -2t0.5 -1l2 -2q1 -1 2.99902 -1q2 0 2.5 0.5t1.5 0.5q2 2 2 4q0 1 0.5 2t0.5 2v5.99902v7
q-1 2 -1 4.99902l-2 4q-2 2 -4 2q-1.99902 0 -2.99902 -1l-2 -2q-1 -1 -1 -3.99902q-1 -1 -1 -4h5h1v-7h-1h-12h-1v23.999h4l1 -5q0 1 2 3l2 2q2 0 3 1h2.99902zM-52.9688 656.003h12.999v18.999h6h1v-44.9971h-1h-6v18.998h-12.999v-18.998h-1h-6v44.9971h6h1v-18.999z
M-91.9668 630.005v5.99902v1h10v37.998h1h4.99902h1v-37.998h9l1 -1v-5.99902h-1h-25.999zM-95.9658 630.005h-1h-23.999h-1v5.99902q0 1 1 1h17.999v11.999h-14.999q-1 0 -1 1v6h1h14.999v11.999h-17.999q-1 0 -1 1v6h1h23.999h1v-44.9971zM-133.964 675.002h6v-44.9971
h-12q-3.99902 0 -4.99902 0.999023q-2 1 -4 3q-1 1 -3 5q0 1 -0.5 2t-0.5 3q0 3 2 6.99902q0 2 3 5l-6 18.999h1h6h1l5 -15.999h0.999023h1h2h3v15.999zM-133.964 637.004v14.999h-3q-2 0 -3 -1q-1.99902 0 -2.99902 -1q-2 0 -2 -2q0 -0.999023 -0.5 -1.49902t-0.5 -2.5
q0 -7 8.99902 -7h3zM-156.963 641.004q0 -4 -0.999023 -5q-1 -1 -1.5 -2t-1.5 -2q-2 -1.99902 -4 -1.99902q-1 -1 -5 -1q-2.99902 0 -3.99902 1q-2 0 -4 1.99902l-3 3q-1 1 -1 2t-1 3q0 1 1 1t1 0.5t2 0.5l2 1h1v-1q1 -1 1 -2t0.5 -1t0.5 -1l1.99902 -1q1 -1 3 -1q1 0 3 2
t2 3t-0.5 1.5t-0.5 1.5l-2 2q-1 1 -1.5 1t-1.5 0.999023l-3.99902 2l-2 2q-1 0 -3 2t-2 5q-1 1 -1 4.99902q0 6 3 9t9.99902 3q4 0 5 -1t2 -1.5t2 -1.5q2 -2 2.99902 -4q0 -1 0.5 -2t0.5 -2v-1q-1 -0.999023 -3.99902 -0.999023q-1 -1 -3 -1l-1 1.99902q0 1 -0.5 1.5
t-0.5 1.5l-2 2q-1 1 -2 1q-3 0 -4.99902 -2q-1 -1 -1 -3v-1.99902l2 -2q0 -1 0.499023 -1q0.5 0 0.5 -1l2 -2q1 -1 2 -1.5t2 -1.5q2 -1 4 -3q3 -1 4 -3.99902q0.999023 -1 0.999023 -5zM260.012 629.005q-8.99902 0 -11.999 6.99902q-3 7 -3 15.999q0 8 3 15.999
q3 8 11.999 8q9 0 12 -8q3 -7.99902 3 -15.999q0 -4.99902 -1.5 -11.999t-6.5 -9q-4 -1.99902 -7 -1.99902zM253.013 652.003q0 -5.99902 1.5 -10.999t5.49902 -5q2 0 4 2t2.5 7q0.5 4.99902 0.5 6.99902q0 4 -1 10.5q-1 6.49902 -6 6.49902q-1.99902 0 -3.99902 -2
q-3 -5.99902 -3 -14.999zM180.017 675.002h7v-44.9971h-11.999q-12.999 0 -12.999 13.999q0 7.99902 4.99902 11.999l-6.99902 18.999h8.99902l5 -15.999h5.99902v15.999zM180.017 637.004v14.999q-6.99902 0 -8.99902 -1t-2 -3v-3.99902q0 -7 9 -7h1.99902z" />
    <glyph glyph-name="colon" unicode=":" horiz-adv-x="371" 
d="M80 162q0 16 9.5 25.5t24.5 9.5h103q16 0 25.5 -9.5t9.5 -25.5v-110q0 -16 -9.5 -25.5t-25.5 -9.5h-103q-15 0 -24.5 9.5t-9.5 25.5v110zM80 523q0 16 9.5 25.5t24.5 9.5h103q16 0 25.5 -9.5t9.5 -25.5v-110q0 -16 -9.5 -25.5t-25.5 -9.5h-103q-15 0 -24.5 9.5t-9.5 25.5
v110z" />
    <glyph glyph-name="semicolon" unicode=";" horiz-adv-x="385" 
d="M75 169q0 16 9 25.5t21 9.5h103q16 0 24.5 -9.5t8.5 -25.5v-94q-5 -57 -44.5 -92t-96.5 -45q-19 -3 -30.5 4t-11.5 26q0 11 -1.5 19t-1.5 10q0 14 9.5 23t24.5 9q2 0 4 2.5t-1 4.5q-7 5 -12 12.5t-5 19.5v101zM80 513q0 16 9.5 25.5t24.5 9.5h103q16 0 25.5 -9.5
t9.5 -25.5v-110q0 -16 -9.5 -25.5t-25.5 -9.5h-103q-15 0 -24.5 9.5t-9.5 25.5v110z" />
    <glyph glyph-name="less" unicode="&#x3c;" horiz-adv-x="460" 
d="M54 271q-12 10 -13 26t10 24q12 8 25 19t37 31.5t63 53t101 83.5q5 4 12 9t22 5h101q11 0 20 -5.5t14.5 -13t5.5 -16t-7 -15.5l-218 -174q9 -9 22 -19t36.5 -28t60 -46.5t91.5 -74.5q6 -7 7 -16.5t-2.5 -18t-11 -14.5t-18.5 -6h-118z" />
    <glyph glyph-name="equal" unicode="=" horiz-adv-x="518" 
d="M405 515q16 0 25.5 -9t9.5 -25v-79q0 -16 -9.5 -25t-25.5 -9h-348q-31 0 -31 34v79q0 34 31 34h348zM405 324q16 0 25.5 -9t9.5 -25v-79q0 -16 -9.5 -25t-25.5 -9h-348q-31 0 -31 34v79q0 34 31 34h348z" />
    <glyph glyph-name="greater" unicode="&#x3e;" horiz-adv-x="469" 
d="M185 75h-118q-11 0 -18.5 6t-11 14.5t-2.5 18t7 16.5q55 46 91.5 74.5t60 46.5t36.5 28t22 19l-218 174q-7 7 -7 15.5t5.5 16t14.5 13t20 5.5h101q15 0 22 -5t12 -9q62 -51 101 -83.5t63 -53t37 -31.5t25 -19q11 -8 10 -24t-13 -26z" />
    <glyph glyph-name="question" unicode="?" horiz-adv-x="431" 
d="M151 207q-11 0 -17 5.5t-9 14t-4 19t-1 21.5q0 41 10.5 70.5t36.5 55.5q26 25 46 49q17 20 31.5 41t14.5 35q0 25 -12.5 39t-40.5 14q-14 0 -24 -10.5t-16.5 -27t-10.5 -35.5t-7 -37q-2 -10 -11 -17t-27 -7l-82 17q-15 0 -22 12t-7 27q6 54 20.5 95.5t39 70t61.5 43.5
t89 15q45 0 82.5 -14.5t65 -41t43 -63t15.5 -80.5q0 -30 -10 -52t-25 -40.5t-33 -35.5t-34 -38t-28.5 -47.5t-15.5 -62.5q0 -16 -9.5 -25.5t-25.5 -9.5h-83zM237 175q16 0 25.5 -9t9.5 -24v-107q0 -16 -9.5 -25.5t-25.5 -9.5h-86q-14 0 -22 9.5t-8 25.5v107q0 15 8 24t22 9
h86z" />
    <glyph glyph-name="at" unicode="@" horiz-adv-x="683" 
d="M622 488v-22v-54v-118v-160v-3h-2h-85q-1 0 -2 1q-6 3 -10 7q-1 1 -3 1h-2h-124h-2l-1 -1q1 -1 2 -1q4 -4 7 -6v-1h-2h-92.5t-91.5 -1h-15q-5 -1 -9 -1t-9 -1q-5 0 -9.5 -0.5t-9.5 -0.5q-3 -1 -8 -1q-3 0 -6 -0.5t-5 -0.5q-8 0 -11 -1q-5 0 -9.5 -0.5t-9.5 -0.5
q-5 -1 -9 -1t-9 -1q-3 0 -5 -0.5t-4 -0.5q-5 0 -9 -0.5t-9 -0.5q-4 -1 -11 -1q-6 -1 -11 -1t-10 -1q-4 0 -7 -0.5t-7 -0.5l-1 -1h-1v9q23 2 46.5 3.5t46.5 3.5q-2 0 -2.5 0.5t-2.5 0.5h-64h-34h-2v4v327v3v2h-3l-2 1q-3 3 -5 4l-1 1q1 1 4 1h3q1 1 1.5 0.5t2.5 0.5q0 5 -1 7
h-3h-4h-3q0 2 -0.5 3.5t0.5 3.5h2h2q-1 2 -2.5 3.5l-3.5 3.5v32q0 -1 2 -1q3 -3 9 -7l2 -1v3v17q0 4 -1 6v6q1 4 0 9v1q0 4 1 6v1v5q0 1 -0.5 1t-0.5 1v2v4q0 1 1 2v7h-2v1v6q1 0 2 1v7h-2q0 2 -0.5 3.5t0.5 3.5q0 1 2 1q0 5 -1 7q0 1 -2 1v3v4h3v8h-3v7h2q1 1 1 4h8h9h8h8
h8q0 1 -1 1q-2 0 -3 0.5t-3 0.5q-4 1 -7 2t-7 2q-7 0 -11 -1q-7 0 -11 -1l-1 1q-1 2 -1 6q-2 0 -3 1q2 17 3 34l2 34h4q6 -2 12 -3t11 -3q6 -2 11.5 -2.5t11.5 -2.5t11.5 -3t11.5 -2q13 -4 23 -5q5 -2 11 -3t12 -3h4q10 0 14 1h3h2v3v10v2h3h178q6 0 12 0.5t12 0.5q5 1 9 1
t9 1q5 0 9.5 0.5t9.5 1.5q6 0 9 1q5 0 9 0.5t9 0.5q5 1 9.5 1t9.5 1h8q4 1 11 1q3 0 5.5 0.5t5.5 0.5q5 0 9 0.5t9 1.5h9.5t9.5 1q6 0 9 1q5 0 9 0.5t9 0.5q3 0 5.5 0.5t5.5 0.5q6 0 9 1q7 0 10 1h12q2 1 8 1q2 0 5 0.5t5 0.5q8 0 12 1q6 0 10 1h4q1 -3 1 -7q-2 0 -3.5 -0.5
t-3.5 -0.5q-5 0 -11 -0.5t-11 -1.5q-6 0 -11.5 -0.5t-11.5 -0.5q-5 -1 -11 -1.5t-12 -0.5q-5 -1 -11 -1t-11 -1t-11 -1t-12 -1q-5 0 -11 -0.5t-11 -1.5q-7 -1 -13.5 -1t-12.5 -1q-5 -1 -13 -1v-1h2h75q7 0 14 0.5t14 0.5q3 1 9 1q5 0 8.5 0.5t8.5 1.5t10 1h10q2 1 7 1
q2 0 4.5 0.5t4.5 0.5h6.5t6.5 1l1 -1v-7h5v-4v-143v-26v-9v-23v-23zM145 693q0 -2 -0.5 -3.5t0.5 -3.5h3v8q-1 0 -1.5 -0.5t-1.5 -0.5zM143 670h5v8q-3 0 -4 -1q0 -1 -0.5 -1.5t-0.5 -1.5v-4zM143 662q-1 -2 -1 -7q2 -1 3 -0.5t3 0.5v7q-1 0 -1 1q-1 0 -2 -0.5t-2 -0.5z
M242 534q0 4 -2 8q-3 4 -8 4h-118q-6 0 -9 -4q-3 -3 -3 -8v-214q0 -6 3 -9q4 -4 9 -4h29q5 0 7 4q3 3 3 9v79h63q5 0 8 3t3 8v29q0 4 -3 7t-8 3h-63v45h79q5 0 8 4q2 4 2 8v28zM394 534q0 5 -3 8q-3 4 -7 4h-119q-5 0 -8 -4q-4 -4 -4 -8v-214q0 -5 4 -9t8 -4h30q3 0 7 4
q3 3 3 9v79h62q5 0 8 3t3 8v29q0 4 -3 7t-8 3h-62v45h79q4 0 7 4q3 3 3 8v28zM545 534q0 6 -3 8q-1 4 -7 4h-118q-6 0 -9 -4q-3 -3 -3 -8v-214q0 -6 3 -9q4 -4 9 -4h29q3 0 7 4q3 3 3 9v79h63q4 0 7 3q4 4 4 8v29q0 3 -4 7q-3 3 -7 3h-63v45h79q6 0 7 4q3 2 3 8v28zM29 74
q9 0 12 -7t3 -16q0 -8 -3 -16t-12 -8t-12 8t-3 16q0 5 1.5 12t6.5 9q4 2 7 2zM36 51q0 6 -1.5 11t-5.5 5q-2 0 -4 -2t-2.5 -7t-0.5 -7q0 -4 1 -10.5t6 -6.5q2 0 4 2q3 6 3 15zM69 28h-1l-13 28v-28h-6h-1v45h1h5h1l10 -23l3 -6v29h1h5h1v-45h-1h-5zM81 73h1h6v-38h14l1 -1
v-6h-1h-20h-1v45zM121 28h-6h-1v20l-10 24v1h1h6l4 -9q1 -2 2 -5.5t1 -4.5q0 2 1 5t2 5l3 9h1h6h1v-1l-11 -24v-20zM157 28v45h25v-6v-1h-18v-12h15v-1v-6h-15v-19h-1h-6zM226 28h-7v45h12q13 0 13 -14q0 -8 -5 -12l7 -19h-9l-5 16h-6v-16zM226 66v-15q7 0 9 1t2 3v4
q0 7 -9 7h-2zM303 73h25v-6v-1h-18v-12h15q1 0 1 -1v-6h-1h-15v-12h18v-1v-6h-25v45zM345 73h1h4h1l14 -45h-1h-6l-3 8h-14q-2 -6 -2 -8h-7zM349 57q-1 5 -1 3.5t-1 -3.5l-4 -14h10zM369 73h6h1v-38h13l1 -1v-6h-1h-20v45zM415 28v45h1h24h1v-6q0 -1 -1 -1h-18v-12h15
q1 0 1 -1v-6h-1h-15v-19h-6h-1zM445 73h1h5h1v-45h-1h-5h-1v45zM471 27q-4 0 -8 2q-2 2 -4 6t-2 7v10v8q1 2 1 3.5t1 3.5q2 4 4 5q4 2 7 2q4 0 5 -1q1 0 5 -2q2 -2 3 -4q2 -4 2 -7q0 -1 -1 -1h-1q-1 0 -1 -0.5t-1 -0.5h-2h-1q0 1 -0.5 1.5t-0.5 1.5q0 2 -0.5 2t-0.5 1l-2 2
q-1 1 -3 1t-2.5 -0.5t-1.5 -0.5q-2 -2 -2 -4q0 -1 -0.5 -2t-0.5 -2v-6v-7q1 -2 1 -5l2 -4q2 -2 4 -2t3 1l2 2q1 1 1 4q1 1 1 4h-5h-1v7h1h12h1v-24h-4l-1 5q0 -1 -2 -3l-2 -2q-2 0 -3 -1h-3zM512 47h-13v-19h-6h-1v45h1h6v-19h13v19h1h6v-45h-6h-1v19zM551 73v-6v-1h-10v-38
h-1h-5h-1v38h-9l-1 1v6h1h26zM555 73h1h24h1v-6q0 -1 -1 -1h-18v-12h15q1 0 1 -1v-6h-1h-15v-12h18q1 0 1 -1v-6h-1h-24h-1v45zM593 28h-6v45h12q4 0 5 -1q2 -1 4 -3q1 -1 3 -5q0 -1 0.5 -2t0.5 -3q0 -3 -2 -7q0 -2 -3 -5l6 -19h-1h-6h-1l-5 16h-1h-1h-2h-3v-16zM593 66v-15
h3q2 0 3 1q2 0 3 1q2 0 2 2q0 1 0.5 1.5t0.5 2.5q0 7 -9 7h-3zM616 62q0 4 1 5t1.5 2t1.5 2q2 2 4 2q1 1 5 1q3 0 4 -1q2 0 4 -2l3 -3q1 -1 1 -2t1 -3q0 -1 -1 -1t-1 -0.5t-2 -0.5l-2 -1h-1v1q-1 1 -1 2t-0.5 1t-0.5 1l-2 1q-1 1 -3 1q-1 0 -3 -2t-2 -3t0.5 -1.5t0.5 -1.5
l2 -2q1 -1 1.5 -1t1.5 -1l4 -2l2 -2q1 0 3 -2t2 -5q1 -1 1 -5q0 -6 -3 -9t-10 -3q-4 0 -5 1t-2 1.5t-2 1.5q-2 2 -3 4q0 1 -0.5 2t-0.5 2v1q1 1 4 1q1 1 3 1l1 -2q0 -1 0.5 -1.5t0.5 -1.5l2 -2q1 -1 2 -1q3 0 5 2q1 1 1 3v2l-2 2q0 1 -0.5 1t-0.5 1l-2 2q-1 1 -2 1.5t-2 1.5
q-2 1 -4 3q-3 1 -4 4q-1 1 -1 5zM199 74q9 0 12 -7t3 -16q0 -8 -3 -16t-12 -8t-12 8t-3 16q0 5 1.5 12t6.5 9q4 2 7 2zM206 51q0 6 -1.5 11t-5.5 5q-2 0 -4 -2t-2.5 -7t-0.5 -7q0 -4 1 -10.5t6 -6.5q2 0 4 2q3 6 3 15zM279 28h-7v45h12q13 0 13 -14q0 -8 -5 -12l7 -19h-9
l-5 16h-6v-16zM279 66v-15q7 0 9 1t2 3v4q0 7 -9 7h-2z" />
    <glyph glyph-name="A" unicode="A" 
d="M195 676q4 12 14 17.5t21 5.5h70q6 0 16 -5.5t14 -17.5l190 -635q1 -3 1 -10q0 -12 -8.5 -21.5t-22.5 -9.5h-85q-8 0 -18.5 5.5t-13.5 16.5l-31 103h-162q-5 -18 -11.5 -46.5t-13.5 -51.5q-4 -13 -14 -20t-21 -7h-85q-14 0 -24.5 13.5t-5.5 27.5zM261 396l-38 -122h76z
" />
    <glyph glyph-name="B" unicode="B" horiz-adv-x="497" 
d="M184 437h26q37 0 55 15t18 48q0 29 -18.5 42t-48.5 13h-32v-118zM42 665q0 15 9.5 24.5t25.5 9.5h167q39 0 74.5 -18t63 -46.5t44 -64t16.5 -70.5q0 -48 -19 -77t-40 -44q34 -29 56.5 -68.5t22.5 -92.5q0 -102 -57.5 -160t-160.5 -58h-167q-16 0 -25.5 9.5t-9.5 25.5v630
zM214 148q88 0 88 68q0 35 -22.5 56.5t-66.5 21.5h-29v-146h30z" />
    <glyph glyph-name="C" unicode="C" horiz-adv-x="493" 
d="M440 275q11 -4 20.5 -14.5t9.5 -21.5q-9 -50 -26.5 -94.5t-45.5 -78t-68 -53t-95 -19.5q-70 0 -113.5 31.5t-68 81.5t-33 113t-8.5 126q0 68 8.5 133t32 115.5t65.5 81t110 30.5q41 0 79.5 -9t69 -34t52 -68t29.5 -110q0 -17 -6 -25.5t-14 -10.5q-9 -3 -22.5 -6.5
t-27 -6.5t-25 -5t-17.5 -2q-11 0 -22.5 6.5t-13.5 12.5q-5 21 -11 40.5t-14.5 35t-21 24.5t-30.5 9q-24 0 -37 -17t-19.5 -45t-8 -62.5t-1.5 -70.5q0 -39 2 -78t9 -71t20 -52t36 -20q22 0 35 11t21.5 27.5t14.5 36t13 36t16.5 27.5t25.5 11z" />
    <glyph glyph-name="D" unicode="D" horiz-adv-x="484" 
d="M191 148q40 0 60.5 10.5t29.5 35.5t10 65.5t1 100.5q0 51 -2 88t-12 60t-30.5 34t-55.5 11l-18 -1v-404h17zM16 665q0 16 9.5 25.5t23.5 9.5h124q48 0 93 -7.5t81 -36.5q30 -24 50 -59t32.5 -75t17.5 -82.5t5 -81.5q0 -35 -3.5 -80.5t-14.5 -91t-32 -86t-56 -65.5
q-39 -25 -85.5 -30t-89.5 -5h-122q-14 0 -23.5 9.5t-9.5 25.5v630z" />
    <glyph glyph-name="E" unicode="E" horiz-adv-x="451" 
d="M10 665q0 15 9.5 24.5t25.5 9.5h348q15 0 23.5 -9.5t8.5 -24.5v-82q0 -16 -8.5 -25.5t-23.5 -9.5h-231v-132h191q15 0 24.5 -9t9.5 -22v-83q0 -15 -9.5 -24.5t-24.5 -9.5h-191v-117h231q15 0 23.5 -9.5t8.5 -24.5v-82q0 -16 -8.5 -25.5t-23.5 -9.5h-348q-16 0 -25.5 9.5
t-9.5 25.5v630z" />
    <glyph glyph-name="F" unicode="F" horiz-adv-x="445" 
d="M54 0q-16 0 -25.5 9.5t-9.5 25.5v630q0 15 9.5 24.5t25.5 9.5h348q15 0 22.5 -9.5t7.5 -24.5v-82q0 -16 -7.5 -25.5t-22.5 -9.5h-232v-132h184q14 0 23 -9t9 -22v-83q0 -15 -9 -24.5t-23 -9.5h-184v-233q0 -16 -8.5 -25.5t-21.5 -9.5h-86v0z" />
    <glyph glyph-name="G" unicode="G" horiz-adv-x="513" 
d="M225 -6q-70 0 -112.5 32t-65.5 84.5t-30.5 119t-7.5 135.5t8.5 131t31.5 108.5t63.5 74t105.5 27.5q40 0 78.5 -9t70.5 -33.5t54.5 -67.5t31.5 -110q0 -15 -11.5 -25t-28.5 -15.5t-36.5 -8t-36.5 -2.5q-10 0 -17.5 4t-9.5 9q-6 22 -12 43.5t-15 37.5t-23 26t-35 10
q-26 0 -40 -16.5t-21 -43.5t-8.5 -61t-1.5 -70q0 -45 2 -88.5t9.5 -77.5t22 -54.5t39.5 -20.5q41 0 58 32t22 83h-59q-13 0 -21 7.5t-8 21.5v85q0 14 8 21t21 7h186q13 0 21 -7t8 -21v-342q0 -20 -19 -20h-56q-9 0 -14 5t-6 11l-3 27q-30 -32 -68.5 -40.5t-74.5 -8.5z" />
    <glyph glyph-name="H" unicode="H" horiz-adv-x="531" 
d="M323 272h-128v-237q0 -16 -9 -25.5t-21 -9.5h-88q-16 0 -25.5 9.5t-9.5 25.5v630q0 15 9.5 24.5t25.5 9.5h88q12 0 21 -9.5t9 -24.5v-245h128v245q0 15 9.5 24.5t25.5 9.5h85q14 0 23.5 -9.5t9.5 -24.5v-630q0 -16 -9.5 -25.5t-23.5 -9.5h-85q-16 0 -25.5 9.5t-9.5 25.5
v237z" />
    <glyph glyph-name="I" unicode="I" horiz-adv-x="204" 
d="M21 665q0 15 9.5 24.5t25.5 9.5h83q14 0 22 -9.5t8 -24.5v-630q0 -16 -8 -25.5t-22 -9.5h-83q-16 0 -25.5 9.5t-9.5 25.5v630z" />
    <glyph glyph-name="J" unicode="J" horiz-adv-x="406" 
d="M49 46q11 49 17.5 70t8.5 26q2 4 8 5.5t12 1.5q19 0 36.5 -7t25.5 -7q22 0 33.5 6t16.5 19t5.5 33.5t0.5 49.5v426q0 14 7.5 22t21.5 8h83q14 0 21.5 -8t7.5 -22v-424q0 -58 -7 -104.5t-27.5 -79.5t-56.5 -50.5t-94 -17.5q-19 0 -40 4t-39 11t-29.5 16.5t-11.5 21.5z" />
    <glyph glyph-name="K" unicode="K" horiz-adv-x="474" 
d="M222 265q-14 -21 -24 -35t-21 -34v-161q0 -16 -8 -25.5t-22 -9.5h-86q-16 0 -25.5 9.5t-9.5 25.5v630q0 15 9.5 24.5t25.5 9.5h86q14 0 22 -9.5t8 -24.5v-188q7 12 15.5 26t22 36t34.5 57t54 89q5 5 13 10.5t16 5.5h94q12 0 20.5 -10t8.5 -24q0 -8 -5 -18l-131 -219
l146 -376q1 -5 1.5 -9t0.5 -8q0 -16 -7.5 -26.5t-22.5 -10.5h-91q-8 0 -19 7.5t-14 16.5z" />
    <glyph glyph-name="L" unicode="L" horiz-adv-x="375" 
d="M23 665q0 15 9.5 24.5t24.5 9.5h79q16 0 25.5 -9.5t9.5 -24.5v-517h168q14 0 23 -9.5t9 -24.5v-79q0 -16 -9 -25.5t-23 -9.5h-282q-15 0 -24.5 9.5t-9.5 25.5v630z" />
    <glyph glyph-name="M" unicode="M" horiz-adv-x="702" 
d="M486 288l-84 -259q-5 -9 -15.5 -19t-20.5 -10h-73q-8 0 -17.5 10.5t-14.5 18.5l-66 220q0 -54 1 -107.5t1 -106.5q0 -16 -9.5 -25.5t-25.5 -9.5h-86q-12 0 -21 9.5t-9 25.5v630q0 15 9 24.5t21 9.5h99q10 0 21 -11.5t16 -22.5l70 -212l56 -188l64 197l72 203q5 10 16 22
t22 12h87q15 0 22.5 -9.5t7.5 -24.5v-630q0 -16 -7.5 -25.5t-22.5 -9.5h-79q-16 0 -25 10t-9 25v253z" />
    <glyph glyph-name="N" unicode="N" horiz-adv-x="514" 
d="M356 1q-7 0 -17.5 7.5t-15.5 13.5l-59 128l-73 158q1 -18 1.5 -36.5t0.5 -31.5v-205q0 -16 -8.5 -25.5t-21.5 -9.5h-83q-16 0 -25.5 9.5t-9.5 25.5v630q0 15 9.5 24.5t25.5 9.5h75q9 0 18 -9.5t14 -19.5l135 -300v295q0 15 9.5 24.5t24.5 9.5h83q13 0 22 -9.5t9 -24.5
v-630q0 -16 -9 -25.5t-22 -9.5z" />
    <glyph glyph-name="O" unicode="O" horiz-adv-x="483" 
d="M231 706q115 0 174 -88.5t59 -256.5q0 -69 -8 -134.5t-32.5 -117.5t-69.5 -83.5t-119 -31.5t-119.5 31.5t-70.5 81.5t-33.5 113t-8.5 126q0 68 8.5 133t33 115.5t69.5 81t117 30.5zM303 360q0 34 -2 68.5t-10 62t-24.5 45t-44.5 17.5q-23 0 -35 -17t-17.5 -44.5
t-6.5 -61.5t-1 -68q0 -39 2 -78t9 -71t21.5 -52t39.5 -20q24 0 38 18.5t20.5 49.5t8.5 70.5t2 80.5z" />
    <glyph glyph-name="P" unicode="P" horiz-adv-x="460" 
d="M171 35q0 -16 -8 -25.5t-21 -9.5h-78q-16 0 -25.5 9.5t-9.5 25.5v630q0 15 9.5 24.5t25.5 9.5h151q51 0 92 -18.5t69 -50.5t43 -75.5t15 -93.5q0 -48 -14.5 -88.5t-45 -70t-77.5 -47t-111 -19.5h-15v-201zM281 461q0 52 -30 70.5t-80 18.5v-167q56 0 83 15t27 63z" />
    <glyph glyph-name="Q" unicode="Q" horiz-adv-x="493" 
d="M230 706q108 0 164 -88.5t56 -256.5q0 -42 -2.5 -83t-9.5 -78.5t-18.5 -71t-30.5 -60.5q10 -10 23 -16t26 -11t24.5 -11.5t18.5 -18.5l-60 -109q-3 -5 -15 -5q-8 0 -25 5.5t-39 17.5t-46 30.5t-44 44.5q-5 0 -9 -0.5t-9 -0.5q-70 0 -113 31.5t-67 81.5t-32 113t-8 126
q0 68 8 133t31.5 115.5t66 81t110.5 30.5zM297 360q0 34 -1.5 68.5t-8.5 62t-21 45t-39 17.5q-22 0 -34 -17t-18 -44.5t-7 -61.5t-1 -68q0 -39 1.5 -78t8.5 -71t20 -52t36 -20q22 0 35 18.5t19.5 49.5t8 70.5t1.5 80.5z" />
    <glyph glyph-name="R" unicode="R" horiz-adv-x="470" 
d="M184 35q-1 -16 -9.5 -25.5t-20.5 -9.5h-83q-16 0 -25.5 9.5t-9.5 25.5v630q0 15 9.5 24.5t25.5 9.5h162q51 0 90.5 -18.5t66.5 -50.5t40.5 -75.5t13.5 -93.5q0 -57 -14 -103.5t-52 -74.5v-1q5 -15 11.5 -32.5t16 -43.5t22.5 -65.5t33 -98.5q5 -13 -5 -27.5t-25 -14.5h-95
q-10 0 -21 7.5t-13 14.5l-72 214h-46v-201zM184 550v-167h8q48 0 76.5 15t28.5 63q0 47 -24 68t-77 21h-12z" />
    <glyph glyph-name="S" unicode="S" horiz-adv-x="448" 
d="M23 512q0 90 48 143t141 53q34 0 66.5 -7.5t61 -26t51.5 -50t38 -79.5q4 -15 0.5 -23t-17.5 -15q-20 -9 -42 -16.5t-42 -14.5q-14 -5 -28 2.5t-17 24.5q-5 24 -22 41.5t-43 17.5q-8 0 -17.5 -3.5t-17.5 -10.5t-13.5 -18.5t-5.5 -26.5q0 -21 11.5 -35.5t32.5 -28.5
t50.5 -30t65.5 -40q19 -12 39 -28t36 -37.5t26 -49t10 -63.5q0 -43 -16.5 -78.5t-45 -62t-65.5 -41.5t-79 -16t-76 12t-60 36.5t-44 55.5t-28 69q-4 18 3.5 27t20.5 16l63 26q12 5 26.5 0.5t22.5 -22.5q13 -32 29.5 -55.5t46.5 -23.5q26 0 42 17t16 35q0 31 -19.5 49
t-53.5 41q-35 24 -70 48.5t-63 53t-45 61t-17 73.5z" />
    <glyph glyph-name="T" unicode="T" horiz-adv-x="462" 
d="M401 700q16 0 23 -9.5t7 -25.5v-79q0 -15 -7 -24.5t-23 -9.5h-107v-517q0 -16 -7.5 -25.5t-23.5 -9.5h-83q-16 0 -25.5 9.5t-9.5 25.5v517h-107q-16 0 -25 9.5t-9 24.5v79q0 16 9 25.5t25 9.5h363z" />
    <glyph glyph-name="U" unicode="U" horiz-adv-x="513" 
d="M446 700q13 0 22 -9.5t9 -25.5v-332q0 -69 -6.5 -130.5t-28.5 -108t-64 -74t-113 -27.5q-69 0 -113 27t-69 72.5t-34.5 104.5t-9.5 122v346q0 16 9.5 25.5t25.5 9.5h92q14 0 22 -9.5t8 -25.5v-331q0 -36 2 -70.5t9 -61.5t20.5 -44t36.5 -17q22 0 35.5 15.5t20.5 41.5
t9 61t2 73v333q0 16 9.5 25.5t24.5 9.5h81z" />
    <glyph glyph-name="V" unicode="V" horiz-adv-x="534" 
d="M265 300l94 381q2 7 11 12.5t17 5.5h87q16 0 25.5 -13.5t9.5 -27.5l-175 -635q-5 -7 -13.5 -15t-16.5 -8h-80q-9 0 -19 8t-15 15l-170 635q0 14 9 27.5t20 13.5h94q11 0 19.5 -3t10.5 -8z" />
    <glyph glyph-name="W" unicode="W" horiz-adv-x="773" 
d="M535 285q7 26 13 48t11.5 44t11.5 47.5t14.5 60t19.5 81t26 110.5q3 9 11 16t17 7h87q14 0 22 -11.5t7 -24.5l-175 -643q-5 -6 -12.5 -13t-15.5 -7h-81q-8 0 -16 5t-10 12l-88 368v-3l-84 -365q-2 -7 -10 -12t-17 -5h-80q-8 0 -15.5 7t-11.5 13q-44 157 -89 321.5
t-87 321.5q-1 13 7.5 24.5t20.5 11.5h94q8 0 16 -5.5t10 -11.5l99 -397l76 391q1 12 22 23h101q10 0 18 -5.5t10 -13.5z" />
    <glyph glyph-name="X" unicode="X" horiz-adv-x="436" 
d="M285 359l145 -318q1 -4 1.5 -7t0.5 -6q0 -12 -7.5 -20t-21.5 -8h-99q-8 0 -16.5 15t-20 41t-26 62t-34.5 78q-3 -8 -6.5 -17.5l-10.5 -28.5t-19.5 -49.5t-33.5 -80.5q-4 -7 -12.5 -13.5t-14.5 -6.5h-94q-14 0 -22.5 7.5t-8.5 19.5q0 6 3 14l144 318q-39 82 -63.5 134
t-39.5 83.5t-23 49.5t-15 33q-4 8 -4 12q0 11 8 19.5t21 8.5h99q8 0 15.5 -6t10.5 -12l70 -163q3 9 7.5 18.5t11.5 26t18 42t29 66.5q4 8 15.5 18t16.5 10h94q14 0 21.5 -9.5t7.5 -20.5q0 -4 -2 -10z" />
    <glyph glyph-name="Y" unicode="Y" horiz-adv-x="438" 
d="M287 35q0 -16 -8.5 -25.5t-23.5 -9.5h-84q-16 0 -25 9.5t-9 25.5v272l-140 343q-3 6 -3 14q0 14 8 24.5t24 10.5h80q20 0 31.5 -16.5t19.5 -30.5l56 -153q4 11 8.5 23.5t11.5 30.5t17.5 44.5t27.5 65.5q8 15 15 25.5t22 10.5h86q13 0 20 -12.5t7 -27.5q0 -5 -2 -15
l-139 -337v-272z" />
    <glyph glyph-name="Z" unicode="Z" horiz-adv-x="454" 
d="M3 120l231 432h-174q-15 0 -24.5 9.5t-9.5 24.5v79q0 16 9.5 25.5t24.5 9.5h328q16 0 25 -9.5t9 -25.5v-70l-229 -447h203q16 0 23.5 -9.5t7.5 -24.5v-79q0 -16 -7.5 -25.5t-23.5 -9.5h-359q-16 0 -25 9.5t-9 25.5v85z" />
    <glyph glyph-name="bracketleft" unicode="[" horiz-adv-x="377" 
d="M68 -53q-12 0 -21 9t-9 22v760q0 16 9 25.5t21 9.5h231q16 0 25.5 -9.5t9.5 -25.5v-81q0 -14 -9.5 -23t-25.5 -9h-113v-530h113q16 0 25.5 -9.5t9.5 -25.5v-82q0 -13 -9.5 -22t-25.5 -9h-231z" />
    <glyph glyph-name="backslash" unicode="\" horiz-adv-x="425" 
d="M371 42q5 -16 -6 -29t-26 -13h-84q-14 0 -22 7t-11 16v-1l-211 631q-5 19 4.5 32.5t29.5 13.5h86q5 0 15.5 -10t16.5 -21z" />
    <glyph glyph-name="bracketright" unicode="]" horiz-adv-x="394" 
d="M63 -53q-12 0 -21 9t-9 22v82q0 16 9 25.5t21 9.5h116v530h-116q-12 0 -21 9t-9 23v81q0 16 9 25.5t21 9.5h231q16 0 25.5 -9.5t9.5 -25.5v-760q0 -13 -9.5 -22t-25.5 -9h-231z" />
    <glyph glyph-name="underscore" unicode="_" horiz-adv-x="587" 
d="M454 147q14 0 23.5 -9.5t9.5 -23.5v-80q0 -16 -9.5 -25.5t-23.5 -9.5h-347q-14 0 -23 9.5t-9 25.5v80q0 14 9 23.5t23 9.5h347z" />
    <glyph glyph-name="grave" unicode="`" horiz-adv-x="611" 
d="M384 627q1 -3 1 -10q0 -14 -11 -24t-25 -10h-71q-11 0 -19.5 8t-13.5 15l-49 162q-1 2 -1 8q0 13 11 23t25 10h70q9 0 19 -11t15 -22z" />
    <glyph glyph-name="a" unicode="a" 
d="M195 676q4 12 14 17.5t21 5.5h70q6 0 16 -5.5t14 -17.5l190 -635q1 -3 1 -10q0 -12 -8.5 -21.5t-22.5 -9.5h-85q-8 0 -18.5 5.5t-13.5 16.5l-31 103h-162q-5 -18 -11.5 -46.5t-13.5 -51.5q-4 -13 -14 -20t-21 -7h-85q-14 0 -24.5 13.5t-5.5 27.5zM261 396l-38 -122h76z
" />
    <glyph glyph-name="b" unicode="b" horiz-adv-x="497" 
d="M184 437h26q37 0 55 15t18 48q0 29 -18.5 42t-48.5 13h-32v-118zM42 665q0 15 9.5 24.5t25.5 9.5h167q39 0 74.5 -18t63 -46.5t44 -64t16.5 -70.5q0 -48 -19 -77t-40 -44q34 -29 56.5 -68.5t22.5 -92.5q0 -102 -57.5 -160t-160.5 -58h-167q-16 0 -25.5 9.5t-9.5 25.5v630
zM214 148q88 0 88 68q0 35 -22.5 56.5t-66.5 21.5h-29v-146h30z" />
    <glyph glyph-name="c" unicode="c" horiz-adv-x="493" 
d="M440 275q11 -4 20.5 -14.5t9.5 -21.5q-9 -50 -26.5 -94.5t-45.5 -78t-68 -53t-95 -19.5q-70 0 -113.5 31.5t-68 81.5t-33 113t-8.5 126q0 68 8.5 133t32 115.5t65.5 81t110 30.5q41 0 79.5 -9t69 -34t52 -68t29.5 -110q0 -17 -6 -25.5t-14 -10.5q-9 -3 -22.5 -6.5
t-27 -6.5t-25 -5t-17.5 -2q-11 0 -22.5 6.5t-13.5 12.5q-5 21 -11 40.5t-14.5 35t-21 24.5t-30.5 9q-24 0 -37 -17t-19.5 -45t-8 -62.5t-1.5 -70.5q0 -39 2 -78t9 -71t20 -52t36 -20q22 0 35 11t21.5 27.5t14.5 36t13 36t16.5 27.5t25.5 11z" />
    <glyph glyph-name="d" unicode="d" horiz-adv-x="484" 
d="M191 148q40 0 60.5 10.5t29.5 35.5t10 65.5t1 100.5q0 51 -2 88t-12 60t-30.5 34t-55.5 11l-18 -1v-404h17zM16 665q0 16 9.5 25.5t23.5 9.5h124q48 0 93 -7.5t81 -36.5q30 -24 50 -59t32.5 -75t17.5 -82.5t5 -81.5q0 -35 -3.5 -80.5t-14.5 -91t-32 -86t-56 -65.5
q-39 -25 -85.5 -30t-89.5 -5h-122q-14 0 -23.5 9.5t-9.5 25.5v630z" />
    <glyph glyph-name="e" unicode="e" horiz-adv-x="451" 
d="M10 665q0 15 9.5 24.5t25.5 9.5h348q15 0 23.5 -9.5t8.5 -24.5v-82q0 -16 -8.5 -25.5t-23.5 -9.5h-231v-132h191q15 0 24.5 -9t9.5 -22v-83q0 -15 -9.5 -24.5t-24.5 -9.5h-191v-117h231q15 0 23.5 -9.5t8.5 -24.5v-82q0 -16 -8.5 -25.5t-23.5 -9.5h-348q-16 0 -25.5 9.5
t-9.5 25.5v630z" />
    <glyph glyph-name="f" unicode="f" horiz-adv-x="445" 
d="M54 0q-16 0 -25.5 9.5t-9.5 25.5v630q0 15 9.5 24.5t25.5 9.5h348q15 0 22.5 -9.5t7.5 -24.5v-82q0 -16 -7.5 -25.5t-22.5 -9.5h-232v-132h184q14 0 23 -9t9 -22v-83q0 -15 -9 -24.5t-23 -9.5h-184v-233q0 -16 -8.5 -25.5t-21.5 -9.5h-86v0z" />
    <glyph glyph-name="g" unicode="g" horiz-adv-x="513" 
d="M225 -6q-70 0 -112.5 32t-65.5 84.5t-30.5 119t-7.5 135.5t8.5 131t31.5 108.5t63.5 74t105.5 27.5q40 0 78.5 -9t70.5 -33.5t54.5 -67.5t31.5 -110q0 -15 -11.5 -25t-28.5 -15.5t-36.5 -8t-36.5 -2.5q-10 0 -17.5 4t-9.5 9q-6 22 -12 43.5t-15 37.5t-23 26t-35 10
q-26 0 -40 -16.5t-21 -43.5t-8.5 -61t-1.5 -70q0 -45 2 -88.5t9.5 -77.5t22 -54.5t39.5 -20.5q41 0 58 32t22 83h-59q-13 0 -21 7.5t-8 21.5v85q0 14 8 21t21 7h186q13 0 21 -7t8 -21v-342q0 -20 -19 -20h-56q-9 0 -14 5t-6 11l-3 27q-30 -32 -68.5 -40.5t-74.5 -8.5z" />
    <glyph glyph-name="h" unicode="h" horiz-adv-x="531" 
d="M323 272h-128v-237q0 -16 -9 -25.5t-21 -9.5h-88q-16 0 -25.5 9.5t-9.5 25.5v630q0 15 9.5 24.5t25.5 9.5h88q12 0 21 -9.5t9 -24.5v-245h128v245q0 15 9.5 24.5t25.5 9.5h85q14 0 23.5 -9.5t9.5 -24.5v-630q0 -16 -9.5 -25.5t-23.5 -9.5h-85q-16 0 -25.5 9.5t-9.5 25.5
v237z" />
    <glyph glyph-name="i" unicode="i" horiz-adv-x="204" 
d="M21 665q0 15 9.5 24.5t25.5 9.5h83q14 0 22 -9.5t8 -24.5v-630q0 -16 -8 -25.5t-22 -9.5h-83q-16 0 -25.5 9.5t-9.5 25.5v630z" />
    <glyph glyph-name="j" unicode="j" horiz-adv-x="406" 
d="M49 46q11 49 17.5 70t8.5 26q2 4 8 5.5t12 1.5q19 0 36.5 -7t25.5 -7q22 0 33.5 6t16.5 19t5.5 33.5t0.5 49.5v426q0 14 7.5 22t21.5 8h83q14 0 21.5 -8t7.5 -22v-424q0 -58 -7 -104.5t-27.5 -79.5t-56.5 -50.5t-94 -17.5q-19 0 -40 4t-39 11t-29.5 16.5t-11.5 21.5z" />
    <glyph glyph-name="k" unicode="k" horiz-adv-x="474" 
d="M222 265q-14 -21 -24 -35t-21 -34v-161q0 -16 -8 -25.5t-22 -9.5h-86q-16 0 -25.5 9.5t-9.5 25.5v630q0 15 9.5 24.5t25.5 9.5h86q14 0 22 -9.5t8 -24.5v-188q7 12 15.5 26t22 36t34.5 57t54 89q5 5 13 10.5t16 5.5h94q12 0 20.5 -10t8.5 -24q0 -8 -5 -18l-131 -219
l146 -376q1 -5 1.5 -9t0.5 -8q0 -16 -7.5 -26.5t-22.5 -10.5h-91q-8 0 -19 7.5t-14 16.5z" />
    <glyph glyph-name="l" unicode="l" horiz-adv-x="375" 
d="M23 665q0 15 9.5 24.5t24.5 9.5h79q16 0 25.5 -9.5t9.5 -24.5v-517h168q14 0 23 -9.5t9 -24.5v-79q0 -16 -9 -25.5t-23 -9.5h-282q-15 0 -24.5 9.5t-9.5 25.5v630z" />
    <glyph glyph-name="m" unicode="m" horiz-adv-x="702" 
d="M486 288l-84 -259q-5 -9 -15.5 -19t-20.5 -10h-73q-8 0 -17.5 10.5t-14.5 18.5l-66 220q0 -54 1 -107.5t1 -106.5q0 -16 -9.5 -25.5t-25.5 -9.5h-86q-12 0 -21 9.5t-9 25.5v630q0 15 9 24.5t21 9.5h99q10 0 21 -11.5t16 -22.5l70 -212l56 -188l64 197l72 203q5 10 16 22
t22 12h87q15 0 22.5 -9.5t7.5 -24.5v-630q0 -16 -7.5 -25.5t-22.5 -9.5h-79q-16 0 -25 10t-9 25v253z" />
    <glyph glyph-name="n" unicode="n" horiz-adv-x="514" 
d="M356 1q-7 0 -17.5 7.5t-15.5 13.5l-59 128l-73 158q1 -18 1.5 -36.5t0.5 -31.5v-205q0 -16 -8.5 -25.5t-21.5 -9.5h-83q-16 0 -25.5 9.5t-9.5 25.5v630q0 15 9.5 24.5t25.5 9.5h75q9 0 18 -9.5t14 -19.5l135 -300v295q0 15 9.5 24.5t24.5 9.5h83q13 0 22 -9.5t9 -24.5
v-630q0 -16 -9 -25.5t-22 -9.5z" />
    <glyph glyph-name="o" unicode="o" horiz-adv-x="483" 
d="M231 706q115 0 174 -88.5t59 -256.5q0 -69 -8 -134.5t-32.5 -117.5t-69.5 -83.5t-119 -31.5t-119.5 31.5t-70.5 81.5t-33.5 113t-8.5 126q0 68 8.5 133t33 115.5t69.5 81t117 30.5zM303 360q0 34 -2 68.5t-10 62t-24.5 45t-44.5 17.5q-23 0 -35 -17t-17.5 -44.5
t-6.5 -61.5t-1 -68q0 -39 2 -78t9 -71t21.5 -52t39.5 -20q24 0 38 18.5t20.5 49.5t8.5 70.5t2 80.5z" />
    <glyph glyph-name="p" unicode="p" horiz-adv-x="460" 
d="M171 35q0 -16 -8 -25.5t-21 -9.5h-78q-16 0 -25.5 9.5t-9.5 25.5v630q0 15 9.5 24.5t25.5 9.5h151q51 0 92 -18.5t69 -50.5t43 -75.5t15 -93.5q0 -48 -14.5 -88.5t-45 -70t-77.5 -47t-111 -19.5h-15v-201zM281 461q0 52 -30 70.5t-80 18.5v-167q56 0 83 15t27 63z" />
    <glyph glyph-name="q" unicode="q" horiz-adv-x="493" 
d="M230 706q108 0 164 -88.5t56 -256.5q0 -42 -2.5 -83t-9.5 -78.5t-18.5 -71t-30.5 -60.5q10 -10 23 -16t26 -11t24.5 -11.5t18.5 -18.5l-60 -109q-3 -5 -15 -5q-8 0 -25 5.5t-39 17.5t-46 30.5t-44 44.5q-5 0 -9 -0.5t-9 -0.5q-70 0 -113 31.5t-67 81.5t-32 113t-8 126
q0 68 8 133t31.5 115.5t66 81t110.5 30.5zM297 360q0 34 -1.5 68.5t-8.5 62t-21 45t-39 17.5q-22 0 -34 -17t-18 -44.5t-7 -61.5t-1 -68q0 -39 1.5 -78t8.5 -71t20 -52t36 -20q22 0 35 18.5t19.5 49.5t8 70.5t1.5 80.5z" />
    <glyph glyph-name="r" unicode="r" horiz-adv-x="470" 
d="M184 35q-1 -16 -9.5 -25.5t-20.5 -9.5h-83q-16 0 -25.5 9.5t-9.5 25.5v630q0 15 9.5 24.5t25.5 9.5h162q51 0 90.5 -18.5t66.5 -50.5t40.5 -75.5t13.5 -93.5q0 -57 -14 -103.5t-52 -74.5v-1q5 -15 11.5 -32.5t16 -43.5t22.5 -65.5t33 -98.5q5 -13 -5 -27.5t-25 -14.5h-95
q-10 0 -21 7.5t-13 14.5l-72 214h-46v-201zM184 550v-167h8q48 0 76.5 15t28.5 63q0 47 -24 68t-77 21h-12z" />
    <glyph glyph-name="s" unicode="s" horiz-adv-x="448" 
d="M23 512q0 90 48 143t141 53q34 0 66.5 -7.5t61 -26t51.5 -50t38 -79.5q4 -15 0.5 -23t-17.5 -15q-20 -9 -42 -16.5t-42 -14.5q-14 -5 -28 2.5t-17 24.5q-5 24 -22 41.5t-43 17.5q-8 0 -17.5 -3.5t-17.5 -10.5t-13.5 -18.5t-5.5 -26.5q0 -21 11.5 -35.5t32.5 -28.5
t50.5 -30t65.5 -40q19 -12 39 -28t36 -37.5t26 -49t10 -63.5q0 -43 -16.5 -78.5t-45 -62t-65.5 -41.5t-79 -16t-76 12t-60 36.5t-44 55.5t-28 69q-4 18 3.5 27t20.5 16l63 26q12 5 26.5 0.5t22.5 -22.5q13 -32 29.5 -55.5t46.5 -23.5q26 0 42 17t16 35q0 31 -19.5 49
t-53.5 41q-35 24 -70 48.5t-63 53t-45 61t-17 73.5z" />
    <glyph glyph-name="t" unicode="t" horiz-adv-x="462" 
d="M401 700q16 0 23 -9.5t7 -25.5v-79q0 -15 -7 -24.5t-23 -9.5h-107v-517q0 -16 -7.5 -25.5t-23.5 -9.5h-83q-16 0 -25.5 9.5t-9.5 25.5v517h-107q-16 0 -25 9.5t-9 24.5v79q0 16 9 25.5t25 9.5h363z" />
    <glyph glyph-name="u" unicode="u" horiz-adv-x="513" 
d="M446 700q13 0 22 -9.5t9 -25.5v-332q0 -69 -6.5 -130.5t-28.5 -108t-64 -74t-113 -27.5q-69 0 -113 27t-69 72.5t-34.5 104.5t-9.5 122v346q0 16 9.5 25.5t25.5 9.5h92q14 0 22 -9.5t8 -25.5v-331q0 -36 2 -70.5t9 -61.5t20.5 -44t36.5 -17q22 0 35.5 15.5t20.5 41.5
t9 61t2 73v333q0 16 9.5 25.5t24.5 9.5h81z" />
    <glyph glyph-name="v" unicode="v" horiz-adv-x="534" 
d="M265 300l94 381q2 7 11 12.5t17 5.5h87q16 0 25.5 -13.5t9.5 -27.5l-175 -635q-5 -7 -13.5 -15t-16.5 -8h-80q-9 0 -19 8t-15 15l-170 635q0 14 9 27.5t20 13.5h94q11 0 19.5 -3t10.5 -8z" />
    <glyph glyph-name="w" unicode="w" horiz-adv-x="773" 
d="M535 285q7 26 13 48t11.5 44t11.5 47.5t14.5 60t19.5 81t26 110.5q3 9 11 16t17 7h87q14 0 22 -11.5t7 -24.5l-175 -643q-5 -6 -12.5 -13t-15.5 -7h-81q-8 0 -16 5t-10 12l-88 368v-3l-84 -365q-2 -7 -10 -12t-17 -5h-80q-8 0 -15.5 7t-11.5 13q-44 157 -89 321.5
t-87 321.5q-1 13 7.5 24.5t20.5 11.5h94q8 0 16 -5.5t10 -11.5l99 -397l76 391q1 12 22 23h101q10 0 18 -5.5t10 -13.5z" />
    <glyph glyph-name="x" unicode="x" horiz-adv-x="436" 
d="M285 359l145 -318q1 -4 1.5 -7t0.5 -6q0 -12 -7.5 -20t-21.5 -8h-99q-8 0 -16.5 15t-20 41t-26 62t-34.5 78q-3 -8 -6.5 -17.5l-10.5 -28.5t-19.5 -49.5t-33.5 -80.5q-4 -7 -12.5 -13.5t-14.5 -6.5h-94q-14 0 -22.5 7.5t-8.5 19.5q0 6 3 14l144 318q-39 82 -63.5 134
t-39.5 83.5t-23 49.5t-15 33q-4 8 -4 12q0 11 8 19.5t21 8.5h99q8 0 15.5 -6t10.5 -12l70 -163q3 9 7.5 18.5t11.5 26t18 42t29 66.5q4 8 15.5 18t16.5 10h94q14 0 21.5 -9.5t7.5 -20.5q0 -4 -2 -10z" />
    <glyph glyph-name="y" unicode="y" horiz-adv-x="438" 
d="M287 35q0 -16 -8.5 -25.5t-23.5 -9.5h-84q-16 0 -25 9.5t-9 25.5v272l-140 343q-3 6 -3 14q0 14 8 24.5t24 10.5h80q20 0 31.5 -16.5t19.5 -30.5l56 -153q4 11 8.5 23.5t11.5 30.5t17.5 44.5t27.5 65.5q8 15 15 25.5t22 10.5h86q13 0 20 -12.5t7 -27.5q0 -5 -2 -15
l-139 -337v-272z" />
    <glyph glyph-name="z" unicode="z" horiz-adv-x="454" 
d="M3 120l231 432h-174q-15 0 -24.5 9.5t-9.5 24.5v79q0 16 9.5 25.5t24.5 9.5h328q16 0 25 -9.5t9 -25.5v-70l-229 -447h203q16 0 23.5 -9.5t7.5 -24.5v-79q0 -16 -7.5 -25.5t-23.5 -9.5h-359q-16 0 -25 9.5t-9 25.5v85z" />
    <glyph glyph-name="braceleft" unicode="{" horiz-adv-x="323" 
d="M13 369q0 5 4 12.5t9 12.5l47 32q4 61 14.5 122t33.5 109.5t61 78.5t97 30h27q15 0 24.5 -9.5t9.5 -24.5v-75q0 -14 -9.5 -23t-24.5 -9h-20q-23 0 -37.5 -25t-22.5 -62.5t-11 -82.5t-3 -84q0 -10 -9 -19.5t-16 -14.5q8 -3 14 -7q12 -7 14 -14q0 -34 3 -73.5t11 -73
t22 -55.5t36 -22h18q15 0 24.5 -9.5t9.5 -25.5v-74q0 -14 -9.5 -22.5t-24.5 -8.5h-17q-59 0 -99 26t-64.5 68.5t-36 96.5t-14.5 110l-55 51q-6 6 -6 11v54z" />
    <glyph glyph-name="bar" unicode="|" horiz-adv-x="261" 
d="M50 665q0 15 9.5 24.5t24.5 9.5h80q13 0 22 -9.5t9 -24.5v-630q0 -16 -9 -25.5t-22 -9.5h-80q-15 0 -24.5 9.5t-9.5 25.5v630z" />
    <glyph glyph-name="braceright" unicode="}" horiz-adv-x="338" 
d="M340 315q0 -5 -6 -11l-55 -51q-3 -56 -14.5 -110t-36 -96.5t-64.5 -68.5t-99 -26h-17q-15 0 -24.5 8.5t-9.5 22.5v74q0 16 9.5 25.5t24.5 9.5h18q22 0 36 22t22 55.5t11 73t3 73.5q0 3 4.5 7t9.5 7q6 4 14 7q-7 5 -16 14.5t-9 19.5q0 39 -3 84t-11.5 82.5t-23 62.5
t-36.5 25h-20q-15 0 -24.5 9t-9.5 23v75q0 15 9.5 24.5t24.5 9.5h27q58 0 96.5 -30t61.5 -78.5t33.5 -109.5t14.5 -122l47 -32q5 -5 9 -12.5t4 -12.5v-54z" />
    <glyph glyph-name="exclamdown" unicode="&#xa1;" horiz-adv-x="208" 
d="M69 484.013q-14 0 -24.5 -9.99902t-10.5 -23.998l-11 -415.975q-1 -15 8.5 -24.499t25.5 -9.49902h106q11 0 20.5 9.49902t9.5 24.499l-11 415.975q-1 14.999 -10 24.498t-20 9.49902h-83zM155 524.011q13 0 21.5 8.99902q8.5 9 8.5 23.999v106.993q0 15.999 -8.5 25.499
q-8.5 9.49902 -21.5 9.49902h-88q-16 0 -25.5 -9.49902q-9.5 -9.5 -9.5 -25.499v-106.993q0 -14.999 9.5 -23.999q9.5 -8.99902 25.5 -8.99902h88z" />
    <glyph glyph-name="cent" unicode="&#xa2;" horiz-adv-x="477" 
d="M179 583q0 14 15 14h65q14 0 14 -14v-58q16 -4 33.5 -13.5t33.5 -25t27.5 -39t14.5 -55.5q0 -5 -4.5 -10t-9.5 -5h-62q-4 0 -9 3t-5 7q0 16 -7 25t-12 12v-139q3 6 6.5 15.5t7 18.5t8 16t10.5 7h66q5 0 9.5 -5.5t4.5 -11.5q-12 -67 -41 -106.5t-71 -48.5v-54
q0 -14 -14 -14h-65q-15 0 -15 14v55q-62 12 -89.5 55.5t-27.5 120.5q0 82 28 123.5t89 53.5v59zM162 351q0 -29 3.5 -46.5t13.5 -27.5v141q-8 -9 -12.5 -25t-4.5 -42z" />
    <glyph glyph-name="sterling" unicode="&#xa3;" horiz-adv-x="446" 
d="M362 384q16 0 25.5 -9.5t9.5 -25.5v-76q0 -16 -9.5 -24t-25.5 -8h-172l-28 -103h234q16 0 23.5 -8.5t7.5 -22.5v-73q0 -16 -7.5 -25.5t-23.5 -9.5h-377q-11 0 -21 10t-10 24q0 5 1 7q13 50 27.5 99t27.5 100q-15 0 -24 8t-9 23v79q0 16 9.5 25.5t25.5 9.5h15v119
q0 43 13 80t38 63.5t60 41.5t79 15q60 0 111.5 -35t80.5 -94q3 -6 3 -14q0 -14 -8 -22l-57 -57q-13 -13 -26 -13q-20 0 -30 26q-12 29 -31.5 48t-42.5 19q-27 0 -38.5 -16t-11.5 -42v-119h161z" />
    <glyph glyph-name="yen" unicode="&#xa5;" horiz-adv-x="447" 
d="M106 413q-5 9 -8 19h1l-17 30l-83 191q-2 6 -2 11q0 13 8.5 24t24.5 11h88q8 0 18 -9t14 -17l67 -144l4 8l-1 -1q2 6 5.5 12t5.5 12l48 106q2 5 7.5 10.5t11.5 10.5t11.5 8.5t8.5 3.5h86q13 0 22 -11t9 -24q0 -5 -2 -11l-108 -240h62q15 0 24.5 -9t9.5 -21v-63
q0 -16 -9.5 -25.5t-24.5 -9.5h-98v-38h98q15 0 24.5 -8.5t9.5 -24.5v-64q0 -15 -9.5 -24.5t-24.5 -9.5h-98v-81q0 -16 -8 -25.5t-23 -9.5h-84q-16 0 -25 9.5t-9 25.5v81h-102q-16 0 -25 9.5t-9 24.5v64q0 33 34 33h102v38h-102q-16 0 -25 9.5t-9 25.5v63q0 12 9 21t25 9h68z
" />
    <glyph glyph-name="brokenbar" unicode="&#xa6;" horiz-adv-x="323" 
d="M65 675q0 16 9.5 25.5t25.5 9.5h79q16 0 25 -9.5t9 -25.5v-365q0 -34 -34 -34h-79q-16 0 -25.5 9t-9.5 25v365zM65 170q0 13 9.5 21.5t25.5 8.5h79q16 0 25 -8.5t9 -21.5v-371q0 -34 -34 -34h-79q-16 0 -25.5 9t-9.5 25v371z" />
    <glyph glyph-name="section" unicode="&#xa7;" horiz-adv-x="409" 
d="M39 363q2 49 26 89q-37 40 -34 107q2 70 43 112t113 39q45 -2 83 -31t63 -70v1q8 -9 5 -21.5t-9 -20.5l-48 -50q-13 -13 -33 -2.5t-32 34.5q-5 11 -14 16.5t-20 5.5q-16 1 -16 -17q-1 -19 22 -24q31 -10 60 -25.5t51 -37t35 -50.5t12 -66q-1 -29 -7 -50.5t-22 -41.5
q40 -44 38 -102q-1 -36 -16 -67t-40 -53t-56.5 -34t-65.5 -11q-42 2 -77.5 23.5t-56.5 53.5q-8 14 -9.5 31.5t6.5 24.5h-1l40 37q17 11 32.5 11.5t23.5 -11.5q11 -16 24 -24.5t23 -9.5q13 0 24.5 9.5t12.5 23.5q0 11 -20 21t-46 19q-24 9 -45 25t-36.5 36.5t-24.5 45.5
t-8 54zM174 359q0 -3 4.5 -9t9.5 -11l4 -4q7 4 12.5 9.5t5.5 11.5q1 10 -5.5 15t-14.5 5q-15 0 -16 -17z" />
    <glyph glyph-name="dieresis" unicode="&#xa8;" horiz-adv-x="412" 
d="M20 823q0 14 9.5 22t24.5 8h104q16 0 25.5 -8t9.5 -22v-114q0 -14 -9.5 -22.5t-25.5 -8.5h-104q-15 0 -24.5 8.5t-9.5 22.5v114zM214 823q0 30 31 30h108q12 0 21 -8t9 -22v-114q0 -14 -9 -22.5t-21 -8.5h-108q-16 0 -23.5 8.5t-7.5 22.5v114z" />
    <glyph glyph-name="copyright" unicode="&#xa9;" horiz-adv-x="763" 
d="M15 348q0 67 25.5 126.5t70 104t105 70t129.5 25.5q68 0 127.5 -25.5t104 -70t70 -104t25.5 -126.5q0 -68 -25.5 -127.5t-70 -103.5t-104 -69.5t-127.5 -25.5q-69 0 -129.5 25.5t-105 69.5t-70 103.5t-25.5 127.5zM134 348q0 -43 16 -81.5t44.5 -67.5t67 -46t83.5 -17
q43 0 81 17t66.5 46t45 67.5t16.5 81.5t-16.5 81.5t-45 67.5t-66.5 46t-81 17q-45 0 -83.5 -17t-67 -46t-44.5 -67.5t-16 -81.5zM460 315q7 -2 12.5 -6.5t5.5 -9.5q-5 -22 -15.5 -41.5t-27 -34.5t-40.5 -23.5t-57 -8.5q-42 0 -68 14t-40.5 36t-19.5 49.5t-5 55.5
q0 30 5 58.5t19.5 50.5t39.5 35.5t65 13.5q24 0 47 -4t41 -15t31 -29.5t18 -48.5q0 -8 -3.5 -11.5t-8.5 -4.5l-27.5 -5t-24.5 -3q-8 -1 -15 2t-9 6q-7 19 -15.5 33.5t-30.5 14.5q-14 0 -22 -7.5t-12 -19.5t-4.5 -27.5t-0.5 -31.5q0 -17 1 -34t5 -31t12 -23t21 -9q12 0 21 5
t15 13t10 17t6 18q2 5 9.5 8.5t14.5 3.5z" />
    <glyph glyph-name="guillemotleft" unicode="&#xab;" horiz-adv-x="768" 
d="M54 291q-12 10 -13 26t10 24q12 8 25 19t37 31.5t63 53t101 83.5q5 4 12 9t22 5h101q11 0 20 -5.5t14.5 -13t5.5 -16t-7 -15.5l-218 -174q9 -9 22 -19t36.5 -28t60 -46.5t91.5 -74.5q6 -7 7 -16.5t-2.5 -18t-11 -14.5t-18.5 -6h-104q-10 0 -18 4q-4 2 -6 4zM319 291
q-12 10 -13 26t10 24q12 8 25 19t37 31.5t63 53t101 83.5q5 4 12 9t22 5h101q11 0 20 -5.5t14.5 -13t5.5 -16t-7 -15.5l-218 -174q9 -9 22 -19t36.5 -28t60 -46.5t91.5 -74.5q6 -7 7 -16.5t-2.5 -18t-11 -14.5t-18.5 -6h-104q-10 0 -18 4q-4 2 -6 4z" />
    <glyph glyph-name="logicalnot" unicode="&#xac;" horiz-adv-x="562" 
d="M378 205q-14 0 -22.5 9.5t-8.5 24.5v74h-281q-16 0 -25.5 9t-9.5 25v76q0 16 9.5 24.5t25.5 8.5h386q16 0 25.5 -8.5t9.5 -24.5v-184q0 -15 -9.5 -24.5t-25.5 -9.5h-74z" />
    <glyph glyph-name="registered" unicode="&#xae;" horiz-adv-x="722" 
d="M14 342q0 69 25.5 128.5t70 103.5t105 69.5t129.5 25.5q68 0 127.5 -25.5t104 -69.5t70 -103.5t25.5 -128.5q0 -68 -25.5 -127t-70 -103t-104 -69.5t-127.5 -25.5q-69 0 -129.5 25.5t-105 69.5t-70 103t-25.5 127zM135 342q0 -42 16 -80t44.5 -66.5t66.5 -45t82 -16.5
q42 0 80 16.5t66 45t44.5 66.5t16.5 80t-16.5 80.5t-44.5 67.5t-66 46t-80 17q-44 0 -82 -17t-66.5 -46t-44.5 -67.5t-16 -80.5zM326 292h22l33 -99q2 -3 6.5 -6.5t9.5 -3.5h44q7 0 11.5 7t2.5 12q-9 28 -15 46t-10.5 30.5t-7.5 20.5t-6 15q18 13 24.5 34.5t6.5 48.5
q0 47 -25 78.5t-73 31.5h-75q-16 0 -16 -16v-292q0 -16 16 -16h38q14 0 14 16v93zM332 438q47 0 47 -41q0 -23 -13 -29.5t-36 -6.5h-4v77h6z" />
    <glyph glyph-name="macron" unicode="&#xaf;" horiz-adv-x="433" 
d="M326 789q14 0 22 -7.5t8 -22.5v-82q0 -16 -8 -25t-22 -9h-256q-12 0 -21 9t-9 25v82q0 15 9 22.5t21 7.5h256z" />
    <glyph glyph-name="degree" unicode="&#xb0;" horiz-adv-x="331" 
d="M8 559q0 32 11.5 59t31.5 47t47.5 31.5t59.5 11.5t59.5 -11.5t47.5 -31.5t31.5 -47t11.5 -59q0 -31 -11.5 -58.5t-31.5 -48t-47.5 -32.5t-59.5 -12t-59.5 12t-47.5 32.5t-31.5 48t-11.5 58.5zM140 561q0 -8 5 -14.5t13 -6.5t12.5 6.5t4.5 14.5q0 6 -4.5 10.5t-12.5 4.5
t-13 -4.5t-5 -10.5z" />
    <glyph glyph-name="plusminus" unicode="&#xb1;" horiz-adv-x="351" 
d="M97 420v52q0 14 9 22t22 8h73q16 0 25 -8t9 -22v-52h52q16 0 25.5 -9t9.5 -25v-74q0 -16 -9.5 -25.5t-25.5 -9.5h-52v-51q0 -30 -34 -30h-73q-13 0 -22 8t-9 22v51h-50q-16 0 -25.5 9.5t-9.5 25.5v74q0 16 9.5 25t25.5 9h50zM288 160q16 0 25.5 -9.5t9.5 -24.5v-81
q0 -15 -9.5 -24.5t-25.5 -9.5h-240q-16 0 -25.5 9.5t-9.5 24.5v81q0 15 9.5 24.5t25.5 9.5h240z" />
    <glyph glyph-name="acute" unicode="&#xb4;" horiz-adv-x="645" 
d="M262 796q2 8 13 15.5t22 7.5h71q16 0 26.5 -14t5.5 -31l-50 -159q-2 -8 -12 -15t-18 -7h-71q-16 0 -27 13t-7 27z" />
    <glyph glyph-name="mu" unicode="&#xb5;" horiz-adv-x="517" 
d="M402 470q15 0 24.5 -9t9.5 -25l-1 -408q0 -15 -9.5 -24.5t-24.5 -9.5h-69q-8 0 -16.5 5t-13.5 13q-32 -16 -66 -16q-23 0 -40 1.5t-34 9.5v-182q0 -16 -8.5 -25t-21.5 -9h-73q-13 0 -21.5 9t-8.5 25v611q0 16 8.5 25t21.5 9h74q13 0 21 -9t8 -25v-113q0 -36 2 -70.5
t9.5 -61t22 -43t39.5 -16.5q21 0 33.5 12.5t18.5 34t8 50.5t3 62v145q0 16 9.5 25t24.5 9h70z" />
    <glyph glyph-name="paragraph" unicode="&#xb6;" horiz-adv-x="601" 
d="M251 236q-25 0 -43 0.5t-37 2.5q-47 4 -82.5 23.5t-60 49t-37 68t-12.5 81.5q0 50 15.5 93.5t44.5 75.5t70 50.5t93 18.5h336q15 0 24.5 -9.5t9.5 -24.5v-630q0 -16 -9.5 -25.5t-24.5 -9.5h-92q-11 0 -15 9q-2 4 -2 10l-5 540h-46v-411v-132q0 -12 -5 -14t-12 -2h-85
q-16 0 -20.5 4.5t-4.5 20.5v211zM246 550q-1 0 -1.5 0.5t-1.5 0.5h-19q-41 0 -68.5 -22.5t-27.5 -67.5q0 -42 27.5 -60t68.5 -18h27v167h-5z" />
    <glyph glyph-name="glyph113" unicode="&#xb7;" horiz-adv-x="339" 
d="M80 398q0 16 9.5 25.5t24.5 9.5h103q16 0 25.5 -9.5t9.5 -25.5v-110q0 -16 -9.5 -25.5t-25.5 -9.5h-103q-15 0 -24.5 9.5t-9.5 25.5v110z" />
    <glyph glyph-name="cedilla" unicode="&#xb8;" horiz-adv-x="686" 
d="M310 75h48q9 0 14 -5.5t5 -12.5t-3 -11l-27 -36q19 -12 31.5 -31.5t12.5 -45.5q0 -27 -10.5 -48.5t-28 -36t-39 -22.5t-42.5 -8q-9 0 -25 1.5t-31 6t-24.5 12.5t-5.5 20l16 49q4 13 20 13q5 0 20.5 -6t31.5 -6q10 0 17 4.5t7 17.5q0 6 -11.5 8t-25 4.5t-24.5 8t-11 19.5
q0 10 5 18q22 32 31.5 50t20.5 26l14 9z" />
    <glyph glyph-name="guillemotright" unicode="&#xbb;" horiz-adv-x="736" 
d="M710.003 291q12 10 13 26q0.999023 16 -10 24q-11.999 8 -24.998 19t-36.998 31.5q-23.998 20.5 -62.9961 53t-100.994 83.5q-4.99902 4 -11.999 9t-21.999 5h-100.993q-11 0 -19.999 -5.5t-14.499 -13t-5.5 -16t7 -15.5l217.986 -174q-8.99902 -9 -21.998 -19
q-13 -10 -36.498 -28q-23.499 -18 -59.9961 -46.5q-36.498 -28.5 -91.4951 -74.5q-5.99902 -7 -6.99902 -16.5t2.5 -18q3.49902 -8.5 10.999 -14.5q7.49902 -6 18.499 -6h103.993q10 0 17.999 4q4 2 6 4zM445.003 291q12 10 13 26q0.999023 16 -10 24q-11.999 8 -24.998 19
t-36.998 31.5q-23.998 20.5 -62.9961 53t-100.994 83.5q-4.99902 4 -11.999 9t-21.999 5h-100.993q-11 0 -19.999 -5.5t-14.499 -13t-5.5 -16t7 -15.5l217.986 -174q-8.99902 -9 -21.998 -19q-13 -10 -36.498 -28q-23.499 -18 -59.9961 -46.5q-36.498 -28.5 -91.4951 -74.5
q-5.99902 -7 -6.99902 -16.5t2.5 -18q3.49902 -8.5 10.999 -14.5q7.49902 -6 18.499 -6h103.993q10 0 17.999 4q4 2 6 4z" />
    <glyph glyph-name="questiondown" unicode="&#xbf;" horiz-adv-x="512" 
d="M263.009 510.013q11 0 16.999 -5.5q6 -5.49902 9 -13.999q3 -8.49902 4 -18.999q1 -10.499 1 -21.498q0 -40.998 -10.5 -70.4961q-10.499 -29.498 -36.498 -55.4961q-25.998 -24.999 -45.9971 -48.9971q-16.999 -19.999 -31.498 -40.998q-14.499 -20.998 -14.499 -34.998
q0 -24.998 12.499 -38.9971q12.5 -13.999 40.498 -13.999q13.999 0 23.998 10.499q10 10.499 16.499 26.998q6.5 16.499 10.5 35.498q3.99902 18.999 6.99902 36.998q2 9.99902 11 16.999q8.99902 6.99902 26.998 6.99902l81.9951 -16.999q14.999 0 21.998 -11.999
q7 -11.999 7 -26.998q-6 -53.9971 -20.499 -95.4941q-14.499 -41.498 -38.9971 -69.9961q-24.499 -28.498 -61.4961 -43.4971q-36.998 -14.999 -88.9951 -14.999q-44.9971 0 -82.4951 14.499q-37.4971 14.499 -64.9961 40.9971q-27.498 26.499 -42.9971 62.9961
q-15.499 36.498 -15.499 80.4951q0 29.998 9.99902 51.9971q10 21.999 24.999 40.498q14.999 18.498 32.998 35.4971t33.998 37.998t28.498 47.4971t15.499 62.4961q0 15.999 9.49902 25.499q9.5 9.49902 25.499 9.49902h82.9941zM177.015 542.011
q-15.999 0 -25.499 8.99902q-9.49902 9 -9.49902 23.999v106.993q0 15.999 9.49902 25.499q9.5 9.49902 25.499 9.49902h85.9941q14 0 21.999 -9.49902q8 -9.5 8 -25.499v-106.993q0 -14.999 -8 -23.999q-7.99902 -8.99902 -21.999 -8.99902h-85.9941z" />
    <glyph glyph-name="Agrave" unicode="&#xc0;" 
d="M195 676q4 12 14 17.5t21 5.5h70q6 0 16 -5.5t14 -17.5l190 -635q1 -3 1 -10q0 -12 -8.5 -21.5t-22.5 -9.5h-85q-8 0 -18.5 5.5t-13.5 16.5l-31 103h-162q-5 -18 -11.5 -46.5t-13.5 -51.5q-4 -13 -14 -20t-21 -7h-85q-14 0 -24.5 13.5t-5.5 27.5zM261 396l-38 -122h76z
M330 785q1 -3 1 -10q0 -14 -11 -24t-25 -10h-71q-11 0 -19.5 8t-13.5 15l-49 162q-1 2 -1 8q0 13 11 23t25 10h70q9 0 19 -11t15 -22z" />
    <glyph glyph-name="Aacute" unicode="&#xc1;" 
d="M195 676q4 12 14 17.5t21 5.5h70q6 0 16 -5.5t14 -17.5l190 -635q1 -3 1 -10q0 -12 -8.5 -21.5t-22.5 -9.5h-85q-8 0 -18.5 5.5t-13.5 16.5l-31 103h-162q-5 -18 -11.5 -46.5t-13.5 -51.5q-4 -13 -14 -20t-21 -7h-85q-14 0 -24.5 13.5t-5.5 27.5zM261 396l-38 -122h76z
M239 945q2 8 13 15.5t22 7.5h71q16 0 26.5 -14t5.5 -31l-50 -159q-2 -8 -12 -15t-18 -7h-71q-16 0 -27 13t-7 27z" />
    <glyph glyph-name="Acircumflex" unicode="&#xc2;" 
d="M195 676q4 12 14 17.5t21 5.5h70q6 0 16 -5.5t14 -17.5l190 -635q1 -3 1 -10q0 -12 -8.5 -21.5t-22.5 -9.5h-85q-8 0 -18.5 5.5t-13.5 16.5l-31 103h-162q-5 -18 -11.5 -46.5t-13.5 -51.5q-4 -13 -14 -20t-21 -7h-85q-14 0 -24.5 13.5t-5.5 27.5zM261 396l-38 -122h76z
M252 805l-15 -20q-5 -10 -12.5 -16.5t-15.5 -6.5h-73q-17 0 -27 9t-10 20q0 5 3 11q33 58 51.5 94.5t29 56.5t17 27.5t16.5 7.5h68q8 0 16.5 -4.5t13.5 -11.5l84 -161v1q6 -9 6 -19q0 -13 -9 -22t-26 -9h-77q-9 0 -18 7t-12 14z" />
    <glyph glyph-name="Atilde" unicode="&#xc3;" 
d="M195 676q4 12 14 17.5t21 5.5h70q6 0 16 -5.5t14 -17.5l190 -635q1 -3 1 -10q0 -12 -8.5 -21.5t-22.5 -9.5h-85q-8 0 -18.5 5.5t-13.5 16.5l-31 103h-162q-5 -18 -11.5 -46.5t-13.5 -51.5q-4 -13 -14 -20t-21 -7h-85q-14 0 -24.5 13.5t-5.5 27.5zM261 396l-38 -122h76z
M125 793q-15 0 -23 9t-8 23q-2 26 2 52t16 47t33.5 34t56.5 13q32 0 52 -12t38 -29q6 22 29 22h73q14 0 23.5 -8.5t11.5 -20.5q1 -7 1.5 -15t0.5 -16q0 -22 -5.5 -43.5t-18 -39t-34 -28t-53.5 -10.5q-26 0 -47.5 11.5t-37.5 25.5q-8 -15 -33 -15h-77z" />
    <glyph glyph-name="Adieresis" unicode="&#xc4;" 
d="M195 676q4 12 14 17.5t21 5.5h70q6 0 16 -5.5t14 -17.5l190 -635q1 -3 1 -10q0 -12 -8.5 -21.5t-22.5 -9.5h-85q-8 0 -18.5 5.5t-13.5 16.5l-31 103h-162q-5 -18 -11.5 -46.5t-13.5 -51.5q-4 -13 -14 -20t-21 -7h-85q-14 0 -24.5 13.5t-5.5 27.5zM261 396l-38 -122h76z
M71 886q0 14 9.5 22t24.5 8h104q16 0 25.5 -8t9.5 -22v-114q0 -14 -9.5 -22.5t-25.5 -8.5h-104q-15 0 -24.5 8.5t-9.5 22.5v114zM265 886q0 30 31 30h108q12 0 21 -8t9 -22v-114q0 -14 -9 -22.5t-21 -8.5h-108q-16 0 -23.5 8.5t-7.5 22.5v114z" />
    <glyph glyph-name="Aring" unicode="&#xc5;" 
d="M195 676q4 12 14 17.5t21 5.5h70q6 0 16 -5.5t14 -17.5l190 -635q1 -3 1 -10q0 -12 -8.5 -21.5t-22.5 -9.5h-85q-8 0 -18.5 5.5t-13.5 16.5l-31 103h-162q-5 -18 -11.5 -46.5t-13.5 -51.5q-4 -13 -14 -20t-21 -7h-85q-14 0 -24.5 13.5t-5.5 27.5zM261 396l-38 -122h76z
M142 857q0 26 9.5 48t26 38t39.5 25t50 9q25 0 47 -9t38.5 -25t26 -38t9.5 -48t-9.5 -48t-26 -38.5t-38.5 -26t-47 -9.5q-27 0 -50 9.5t-39.5 26t-26 38.5t-9.5 48zM256 856q0 -8 9 -8q8 0 8 8t-8 8q-9 0 -9 -8z" />
    <glyph glyph-name="AE" unicode="&#xc6;" horiz-adv-x="959" 
d="M412 130l-163 -3q-8 -25 -16.5 -49.5t-18.5 -53.5q-5 -8 -14 -16t-18 -8h-86q-17 0 -28.5 13t-6.5 29q50 155 102.5 316.5t102.5 316.5q4 11 14 17.5t21 6.5h463q16 0 25.5 -9.5t9.5 -24.5v-80q0 -15 -9.5 -24.5t-25.5 -9.5h-317q2 -2 2 -5l37 -126h223q16 0 23.5 -9.5
t7.5 -25.5v-79q0 -15 -7.5 -24.5t-23.5 -9.5h-175l42 -124h188q16 0 25.5 -9.5t9.5 -24.5v-79q0 -16 -9.5 -25.5t-25.5 -9.5h-286q-11 0 -20 10.5t-14 18.5zM302 278h69q-9 24 -16.5 50t-18.5 60z" />
    <glyph glyph-name="Ccedilla" unicode="&#xc7;" horiz-adv-x="490" 
d="M440 275q11 -4 20.5 -14.5t9.5 -21.5q-9 -50 -26.5 -94.5t-45.5 -78t-68 -53t-95 -19.5q-70 0 -113.5 31.5t-68 81.5t-33 113t-8.5 126q0 68 8.5 133t32 115.5t65.5 81t110 30.5q41 0 79.5 -9t69 -34t52 -68t29.5 -110q0 -17 -6 -25.5t-14 -10.5q-9 -3 -22.5 -6.5
t-27 -6.5t-25 -5t-17.5 -2q-11 0 -22.5 6.5t-13.5 12.5q-5 21 -11 40.5t-14.5 35t-21 24.5t-30.5 9q-24 0 -37 -17t-19.5 -45t-8 -62.5t-1.5 -70.5q0 -39 2 -78t9 -71t20 -52t36 -20q22 0 35 11t21.5 27.5t14.5 36t13 36t16.5 27.5t25.5 11zM244 55h48q9 0 14 -5.5t5 -12.5
t-3 -11l-27 -36q19 -12 31.5 -31.5t12.5 -45.5q0 -27 -10.5 -48.5t-28 -36t-39 -22.5t-42.5 -8q-9 0 -25 1.5t-31 6t-24.5 12.5t-5.5 20l16 49q4 13 20 13q5 0 20.5 -6t31.5 -6q10 0 17 4.5t7 17.5q0 6 -11.5 8t-25 4.5t-24.5 8t-11 19.5q0 10 5 18q22 32 31.5 50t20.5 26
l14 9z" />
    <glyph glyph-name="Egrave" unicode="&#xc8;" horiz-adv-x="455" 
d="M10 665q0 15 9.5 24.5t25.5 9.5h348q15 0 23.5 -9.5t8.5 -24.5v-82q0 -16 -8.5 -25.5t-23.5 -9.5h-231v-132h191q15 0 24.5 -9t9.5 -22v-83q0 -15 -9.5 -24.5t-24.5 -9.5h-191v-117h231q15 0 23.5 -9.5t8.5 -24.5v-82q0 -16 -8.5 -25.5t-23.5 -9.5h-348q-16 0 -25.5 9.5
t-9.5 25.5v630zM274 784q1 -3 1 -10q0 -14 -11 -24t-25 -10h-71q-11 0 -19.5 8t-13.5 15l-49 162q-1 2 -1 8q0 13 11 23t25 10h70q9 0 19 -11t15 -22z" />
    <glyph glyph-name="Eacute" unicode="&#xc9;" horiz-adv-x="455" 
d="M10 665q0 15 9.5 24.5t25.5 9.5h348q15 0 23.5 -9.5t8.5 -24.5v-82q0 -16 -8.5 -25.5t-23.5 -9.5h-231v-132h191q15 0 24.5 -9t9.5 -22v-83q0 -15 -9.5 -24.5t-24.5 -9.5h-191v-117h231q15 0 23.5 -9.5t8.5 -24.5v-82q0 -16 -8.5 -25.5t-23.5 -9.5h-348q-16 0 -25.5 9.5
t-9.5 25.5v630zM156 944q2 8 13 15.5t22 7.5h71q16 0 26.5 -14t5.5 -31l-50 -159q-2 -8 -12 -15t-18 -7h-71q-16 0 -27 13t-7 27z" />
    <glyph glyph-name="Ecircumflex" unicode="&#xca;" horiz-adv-x="455" 
d="M10 665q0 15 9.5 24.5t25.5 9.5h348q15 0 23.5 -9.5t8.5 -24.5v-82q0 -16 -8.5 -25.5t-23.5 -9.5h-231v-132h191q15 0 24.5 -9t9.5 -22v-83q0 -15 -9.5 -24.5t-24.5 -9.5h-191v-117h231q15 0 23.5 -9.5t8.5 -24.5v-82q0 -16 -8.5 -25.5t-23.5 -9.5h-348q-16 0 -25.5 9.5
t-9.5 25.5v630zM208 783l-15 -20q-5 -10 -12.5 -16.5t-15.5 -6.5h-73q-17 0 -27 9t-10 20q0 5 3 11q33 58 51.5 94.5t29 56.5t17 27.5t16.5 7.5h68q8 0 16.5 -4.5t13.5 -11.5l84 -161v1q6 -9 6 -19q0 -13 -9 -22t-26 -9h-77q-9 0 -18 7t-12 14z" />
    <glyph glyph-name="Edieresis" unicode="&#xcb;" horiz-adv-x="455" 
d="M10 665q0 15 9.5 24.5t25.5 9.5h348q15 0 23.5 -9.5t8.5 -24.5v-82q0 -16 -8.5 -25.5t-23.5 -9.5h-231v-132h191q15 0 24.5 -9t9.5 -22v-83q0 -15 -9.5 -24.5t-24.5 -9.5h-191v-117h231q15 0 23.5 -9.5t8.5 -24.5v-82q0 -16 -8.5 -25.5t-23.5 -9.5h-348q-16 0 -25.5 9.5
t-9.5 25.5v630zM24 888q0 14 9.5 22t24.5 8h104q16 0 25.5 -8t9.5 -22v-114q0 -14 -9.5 -22.5t-25.5 -8.5h-104q-15 0 -24.5 8.5t-9.5 22.5v114zM218 888q0 30 31 30h108q12 0 21 -8t9 -22v-114q0 -14 -9 -22.5t-21 -8.5h-108q-16 0 -23.5 8.5t-7.5 22.5v114z" />
    <glyph glyph-name="Igrave" unicode="&#xcc;" horiz-adv-x="250" 
d="M50 665q0 15 9.5 24.5t25.5 9.5h83q14 0 22 -9.5t8 -24.5v-630q0 -16 -8 -25.5t-22 -9.5h-83q-16 0 -25.5 9.5t-9.5 25.5v630zM191 785q1 -3 1 -10q0 -14 -11 -24t-25 -10h-71q-11 0 -19.5 8t-13.5 15l-49 162q-1 2 -1 8q0 13 11 23t25 10h70q9 0 19 -11t15 -22z" />
    <glyph glyph-name="Iacute" unicode="&#xcd;" horiz-adv-x="227" 
d="M35 665q0 15 9.5 24.5t25.5 9.5h83q14 0 22 -9.5t8 -24.5v-630q0 -16 -8 -25.5t-22 -9.5h-83q-16 0 -25.5 9.5t-9.5 25.5v630zM69 943q2 8 13 15.5t22 7.5h71q16 0 26.5 -14t5.5 -31l-50 -159q-2 -8 -12 -15t-18 -7h-71q-16 0 -27 13t-7 27z" />
    <glyph glyph-name="Icircumflex" unicode="&#xce;" horiz-adv-x="354" 
d="M102 665q0 15 9.5 24.5t25.5 9.5h83q14 0 22 -9.5t8 -24.5v-630q0 -16 -8 -25.5t-22 -9.5h-83q-16 0 -25.5 9.5t-9.5 25.5v630zM172 783l-15 -20q-5 -10 -12.5 -16.5t-15.5 -6.5h-73q-17 0 -27 9t-10 20q0 5 3 11q33 58 51.5 94.5t29 56.5t17 27.5t16.5 7.5h68
q8 0 16.5 -4.5t13.5 -11.5l84 -161v1q6 -9 6 -19q0 -13 -9 -22t-26 -9h-77q-9 0 -18 7t-12 14z" />
    <glyph glyph-name="Idieresis" unicode="&#xcf;" horiz-adv-x="401" 
d="M126 665q0 15 9.5 24.5t25.5 9.5h83q14 0 22 -9.5t8 -24.5v-630q0 -16 -8 -25.5t-22 -9.5h-83q-16 0 -25.5 9.5t-9.5 25.5v630zM19 890q0 14 9.5 22t24.5 8h104q16 0 25.5 -8t9.5 -22v-114q0 -14 -9.5 -22.5t-25.5 -8.5h-104q-15 0 -24.5 8.5t-9.5 22.5v114zM213 890
q0 30 31 30h108q12 0 21 -8t9 -22v-114q0 -14 -9 -22.5t-21 -8.5h-108q-16 0 -23.5 8.5t-7.5 22.5v114z" />
    <glyph glyph-name="Eth" unicode="&#xd0;" horiz-adv-x="491" 
d="M209 148q40 0 60.5 10.5t29.5 35.5t10 65.5t1 100.5q0 51 -2 88t-12 60t-30.5 34t-55.5 11l-18 -1v-404h17zM34 665q0 16 9.5 25.5t23.5 9.5h124q48 0 93 -7.5t81 -36.5q30 -24 50 -59t32.5 -75t17.5 -82.5t5 -81.5q0 -35 -3.5 -80.5t-14.5 -91t-32 -86t-56 -65.5
q-39 -25 -85.5 -30t-89.5 -5h-122q-14 0 -23.5 9.5t-9.5 25.5v630zM105.413 389.43q10.374 0 16.5342 -7.90625q6.15918 -7.90625 6.15918 -20.3896v-67.4092q0 -12.4834 -6.15918 -20.3887q-6.16016 -7.90625 -16.5342 -7.90625h-155.61q-10.374 0 -16.5332 7.90625
q-6.16016 7.90527 -6.16016 20.3887v67.4092q0 12.4834 6.16016 20.3896q6.15918 7.90625 16.5332 7.90625h155.61z" />
    <glyph glyph-name="Ntilde" unicode="&#xd1;" horiz-adv-x="530" 
d="M356 1q-7 0 -17.5 7.5t-15.5 13.5l-59 128l-73 158q1 -18 1.5 -36.5t0.5 -31.5v-205q0 -16 -8.5 -25.5t-21.5 -9.5h-83q-16 0 -25.5 9.5t-9.5 25.5v630q0 15 9.5 24.5t25.5 9.5h75q9 0 18 -9.5t14 -19.5l135 -300v295q0 15 9.5 24.5t24.5 9.5h83q13 0 22 -9.5t9 -24.5
v-630q0 -16 -9 -25.5t-22 -9.5zM102 793q-15 0 -23 9t-8 23q-2 26 2 52t16 47t33.5 34t56.5 13q32 0 52 -12t38 -29q6 22 29 22h73q14 0 23.5 -8.5t11.5 -20.5q1 -7 1.5 -15t0.5 -16q0 -22 -5.5 -43.5t-18 -39t-34 -28t-53.5 -10.5q-26 0 -47.5 11.5t-37.5 25.5
q-8 -15 -33 -15h-77z" />
    <glyph glyph-name="Ograve" unicode="&#xd2;" horiz-adv-x="500" 
d="M231 706q115 0 174 -88.5t59 -256.5q0 -69 -8 -134.5t-32.5 -117.5t-69.5 -83.5t-119 -31.5t-119.5 31.5t-70.5 81.5t-33.5 113t-8.5 126q0 68 8.5 133t33 115.5t69.5 81t117 30.5zM303 360q0 34 -2 68.5t-10 62t-24.5 45t-44.5 17.5q-23 0 -35 -17t-17.5 -44.5
t-6.5 -61.5t-1 -68q0 -39 2 -78t9 -71t21.5 -52t39.5 -20q24 0 38 18.5t20.5 49.5t8.5 70.5t2 80.5zM322 786q1 -3 1 -10q0 -14 -11 -24t-25 -10h-71q-11 0 -19.5 8t-13.5 15l-49 162q-1 2 -1 8q0 13 11 23t25 10h70q9 0 19 -11t15 -22z" />
    <glyph glyph-name="Oacute" unicode="&#xd3;" horiz-adv-x="500" 
d="M231 706q115 0 174 -88.5t59 -256.5q0 -69 -8 -134.5t-32.5 -117.5t-69.5 -83.5t-119 -31.5t-119.5 31.5t-70.5 81.5t-33.5 113t-8.5 126q0 68 8.5 133t33 115.5t69.5 81t117 30.5zM303 360q0 34 -2 68.5t-10 62t-24.5 45t-44.5 17.5q-23 0 -35 -17t-17.5 -44.5
t-6.5 -61.5t-1 -68q0 -39 2 -78t9 -71t21.5 -52t39.5 -20q24 0 38 18.5t20.5 49.5t8.5 70.5t2 80.5zM201 946q2 8 13 15.5t22 7.5h71q16 0 26.5 -14t5.5 -31l-50 -159q-2 -8 -12 -15t-18 -7h-71q-16 0 -27 13t-7 27z" />
    <glyph glyph-name="Ocircumflex" unicode="&#xd4;" horiz-adv-x="500" 
d="M231 706q115 0 174 -88.5t59 -256.5q0 -69 -8 -134.5t-32.5 -117.5t-69.5 -83.5t-119 -31.5t-119.5 31.5t-70.5 81.5t-33.5 113t-8.5 126q0 68 8.5 133t33 115.5t69.5 81t117 30.5zM303 360q0 34 -2 68.5t-10 62t-24.5 45t-44.5 17.5q-23 0 -35 -17t-17.5 -44.5
t-6.5 -61.5t-1 -68q0 -39 2 -78t9 -71t21.5 -52t39.5 -20q24 0 38 18.5t20.5 49.5t8.5 70.5t2 80.5zM217 783l-15 -20q-5 -10 -12.5 -16.5t-15.5 -6.5h-73q-17 0 -27 9t-10 20q0 5 3 11q33 58 51.5 94.5t29 56.5t17 27.5t16.5 7.5h68q8 0 16.5 -4.5t13.5 -11.5l84 -161v1
q6 -9 6 -19q0 -13 -9 -22t-26 -9h-77q-9 0 -18 7t-12 14z" />
    <glyph glyph-name="Otilde" unicode="&#xd5;" horiz-adv-x="500" 
d="M231 706q115 0 174 -88.5t59 -256.5q0 -69 -8 -134.5t-32.5 -117.5t-69.5 -83.5t-119 -31.5t-119.5 31.5t-70.5 81.5t-33.5 113t-8.5 126q0 68 8.5 133t33 115.5t69.5 81t117 30.5zM303 360q0 34 -2 68.5t-10 62t-24.5 45t-44.5 17.5q-23 0 -35 -17t-17.5 -44.5
t-6.5 -61.5t-1 -68q0 -39 2 -78t9 -71t21.5 -52t39.5 -20q24 0 38 18.5t20.5 49.5t8.5 70.5t2 80.5zM96 793q-15 0 -23 9t-8 23q-2 26 2 52t16 47t33.5 34t56.5 13q32 0 52 -12t38 -29q6 22 29 22h73q14 0 23.5 -8.5t11.5 -20.5q1 -7 1.5 -15t0.5 -16q0 -22 -5.5 -43.5
t-18 -39t-34 -28t-53.5 -10.5q-26 0 -47.5 11.5t-37.5 25.5q-8 -15 -33 -15h-77z" />
    <glyph glyph-name="Odieresis" unicode="&#xd6;" horiz-adv-x="500" 
d="M231 706q115 0 174 -88.5t59 -256.5q0 -69 -8 -134.5t-32.5 -117.5t-69.5 -83.5t-119 -31.5t-119.5 31.5t-70.5 81.5t-33.5 113t-8.5 126q0 68 8.5 133t33 115.5t69.5 81t117 30.5zM303 360q0 34 -2 68.5t-10 62t-24.5 45t-44.5 17.5q-23 0 -35 -17t-17.5 -44.5
t-6.5 -61.5t-1 -68q0 -39 2 -78t9 -71t21.5 -52t39.5 -20q24 0 38 18.5t20.5 49.5t8.5 70.5t2 80.5zM38 888q0 14 9.5 22t24.5 8h104q16 0 25.5 -8t9.5 -22v-114q0 -14 -9.5 -22.5t-25.5 -8.5h-104q-15 0 -24.5 8.5t-9.5 22.5v114zM232 888q0 30 31 30h108q12 0 21 -8t9 -22
v-114q0 -14 -9 -22.5t-21 -8.5h-108q-16 0 -23.5 8.5t-7.5 22.5v114z" />
    <glyph glyph-name="multiply" unicode="&#xd7;" horiz-adv-x="322" 
d="M58 318l-36 36q-10 10 -9.5 22.5t9.5 21.5l52 51q24 24 45 3l37 -37l37 37q11 11 24 11.5t24 -10.5l53 -53q11 -11 11 -24.5t-11 -24.5l-37 -37l36 -36q21 -21 -3 -45l-51 -52q-9 -9 -21 -10t-23 10l-36 36l-35 -36q-11 -11 -24.5 -11t-24.5 11l-53 53q-11 11 -10.5 24
t11.5 24z" />
    <glyph glyph-name="Oslash" unicode="&#xd8;" horiz-adv-x="460" 
d="M416 585q12 -39 18 -96t6 -128q0 -69 -6.5 -134.5t-28 -117.5t-63.5 -83.5t-113 -31.5q-16 0 -32.5 0.5t-30.5 2.5q-6 -20 -15.5 -26t-18.5 -6h-88q-34 0 -34 32v7.5t2 8.5l41 94q-28 54 -34.5 115.5t-6.5 123.5q0 68 7.5 133t30 115.5t64 81t108.5 30.5h3q11 0 31 -0.5
t45 -5.5q5 11 15.5 19.5t20.5 8.5h86q17 0 25 -11t8 -24q0 -5 -2 -13zM292 360q0 30 0.5 64t-5 62.5t-20.5 47.5t-45 19q-23 0 -35 -17t-17.5 -44.5t-6.5 -61.5t-1 -68q0 -39 1.5 -78t8.5 -71t20 -52t36 -20q22 0 35 18.5t19.5 49.5t8 70.5t1.5 80.5z" />
    <glyph glyph-name="Ugrave" unicode="&#xd9;" horiz-adv-x="526" 
d="M445 700q13 0 22 -9.5t9 -25.5v-332q0 -69 -6.5 -130.5t-28.5 -108t-64 -74t-113 -27.5q-69 0 -113 27t-69 72.5t-34.5 104.5t-9.5 122v346q0 16 9.5 25.5t25.5 9.5h92q14 0 22 -9.5t8 -25.5v-331q0 -36 2 -70.5t9 -61.5t20.5 -44t36.5 -17q22 0 35.5 15.5t20.5 41.5
t9 61t2 73v333q0 16 9.5 25.5t24.5 9.5h81zM322 785q1 -3 1 -10q0 -14 -11 -24t-25 -10h-71q-11 0 -19.5 8t-13.5 15l-49 162q-1 2 -1 8q0 13 11 23t25 10h70q9 0 19 -11t15 -22z" />
    <glyph glyph-name="Uacute" unicode="&#xda;" horiz-adv-x="526" 
d="M445 700q13 0 22 -9.5t9 -25.5v-332q0 -69 -6.5 -130.5t-28.5 -108t-64 -74t-113 -27.5q-69 0 -113 27t-69 72.5t-34.5 104.5t-9.5 122v346q0 16 9.5 25.5t25.5 9.5h92q14 0 22 -9.5t8 -25.5v-331q0 -36 2 -70.5t9 -61.5t20.5 -44t36.5 -17q22 0 35.5 15.5t20.5 41.5
t9 61t2 73v333q0 16 9.5 25.5t24.5 9.5h81zM212 943q2 8 13 15.5t22 7.5h71q16 0 26.5 -14t5.5 -31l-50 -159q-2 -8 -12 -15t-18 -7h-71q-16 0 -27 13t-7 27z" />
    <glyph glyph-name="Ucircumflex" unicode="&#xdb;" horiz-adv-x="526" 
d="M445 700q13 0 22 -9.5t9 -25.5v-332q0 -69 -6.5 -130.5t-28.5 -108t-64 -74t-113 -27.5q-69 0 -113 27t-69 72.5t-34.5 104.5t-9.5 122v346q0 16 9.5 25.5t25.5 9.5h92q14 0 22 -9.5t8 -25.5v-331q0 -36 2 -70.5t9 -61.5t20.5 -44t36.5 -17q22 0 35.5 15.5t20.5 41.5
t9 61t2 73v333q0 16 9.5 25.5t24.5 9.5h81zM251 783l-15 -20q-5 -10 -12.5 -16.5t-15.5 -6.5h-73q-17 0 -27 9t-10 20q0 5 3 11q33 58 51.5 94.5t29 56.5t17 27.5t16.5 7.5h68q8 0 16.5 -4.5t13.5 -11.5l84 -161v1q6 -9 6 -19q0 -13 -9 -22t-26 -9h-77q-9 0 -18 7t-12 14z
" />
    <glyph glyph-name="Udieresis" unicode="&#xdc;" horiz-adv-x="529" 
d="M446 700q13 0 22 -9.5t9 -25.5v-332q0 -69 -6.5 -130.5t-28.5 -108t-64 -74t-113 -27.5q-69 0 -113 27t-69 72.5t-34.5 104.5t-9.5 122v346q0 16 9.5 25.5t25.5 9.5h92q14 0 22 -9.5t8 -25.5v-331q0 -36 2 -70.5t9 -61.5t20.5 -44t36.5 -17q22 0 35.5 15.5t20.5 41.5
t9 61t2 73v333q0 16 9.5 25.5t24.5 9.5h81zM73 888q0 14 9.5 22t24.5 8h104q16 0 25.5 -8t9.5 -22v-114q0 -14 -9.5 -22.5t-25.5 -8.5h-104q-15 0 -24.5 8.5t-9.5 22.5v114zM267 888q0 30 31 30h108q12 0 21 -8t9 -22v-114q0 -14 -9 -22.5t-21 -8.5h-108q-16 0 -23.5 8.5
t-7.5 22.5v114z" />
    <glyph glyph-name="Yacute" unicode="&#xdd;" horiz-adv-x="481" 
d="M296 35q0 -16 -8.5 -25.5t-23.5 -9.5h-84q-16 0 -25 9.5t-9 25.5v272l-140 343q-3 6 -3 14q0 14 8 24.5t24 10.5h80q20 0 31.5 -16.5t19.5 -30.5l56 -153q4 11 8.5 23.5t11.5 30.5t17.5 44.5t27.5 65.5q8 15 15 25.5t22 10.5h86q13 0 20 -12.5t7 -27.5q0 -5 -2 -15
l-139 -337v-272zM201 945q2 8 13 15.5t22 7.5h71q16 0 26.5 -14t5.5 -31l-50 -159q-2 -8 -12 -15t-18 -7h-71q-16 0 -27 13t-7 27z" />
    <glyph glyph-name="Thorn" unicode="&#xde;" horiz-adv-x="545" 
d="M63 665q0 15 9 24.5t24 9.5h72q16 0 25.5 -9.5t9.5 -24.5v-93h33q51 0 92.5 -18t70.5 -49.5t44.5 -74.5t15.5 -93q0 -45 -15.5 -86t-44 -71.5t-69 -49t-90.5 -18.5h-38v-77q0 -15 -9.5 -24.5t-25.5 -9.5h-71q-15 0 -24 9.5t-9 24.5v630zM202 431v-177h34q41 0 62 22
t21 61q0 20 -5.5 37.5t-16 30.5t-26 20t-35.5 6h-34z" />
    <glyph glyph-name="germandbls" unicode="&#xdf;" horiz-adv-x="532" 
d="M186 35q0 -15 -9.5 -25t-22.5 -10h-77q-16 0 -24.5 10t-8.5 25v635q0 35 33 35h159q38 0 73 -10t60.5 -29.5t39 -48.5t8.5 -68q-3 -23 -14.5 -46t-23.5 -43t-21.5 -36t-8.5 -26t20 -22.5t42 -33.5t42 -52.5t19 -79.5q0 -53 -11.5 -92.5t-37 -65.5t-67.5 -39t-103 -13
q-17 0 -26 10t-9 25v73q0 35 35 35q37 0 56.5 10.5t19.5 46.5q0 21 -18 43t-39 46t-39 50t-18 55q0 22 13 43.5t26 42t20.5 38t-4.5 31.5q-4 5 -8 7.5t-12 3t-23 0.5h-41v-525z" />
    <glyph glyph-name="agrave" unicode="&#xe0;" 
d="M195 676q4 12 14 17.5t21 5.5h70q6 0 16 -5.5t14 -17.5l190 -635q1 -3 1 -10q0 -12 -8.5 -21.5t-22.5 -9.5h-85q-8 0 -18.5 5.5t-13.5 16.5l-31 103h-162q-5 -18 -11.5 -46.5t-13.5 -51.5q-4 -13 -14 -20t-21 -7h-85q-14 0 -24.5 13.5t-5.5 27.5zM261 396l-38 -122h76z
M330 785q1 -3 1 -10q0 -14 -11 -24t-25 -10h-71q-11 0 -19.5 8t-13.5 15l-49 162q-1 2 -1 8q0 13 11 23t25 10h70q9 0 19 -11t15 -22z" />
    <glyph glyph-name="aacute" unicode="&#xe1;" 
d="M195 676q4 12 14 17.5t21 5.5h70q6 0 16 -5.5t14 -17.5l190 -635q1 -3 1 -10q0 -12 -8.5 -21.5t-22.5 -9.5h-85q-8 0 -18.5 5.5t-13.5 16.5l-31 103h-162q-5 -18 -11.5 -46.5t-13.5 -51.5q-4 -13 -14 -20t-21 -7h-85q-14 0 -24.5 13.5t-5.5 27.5zM261 396l-38 -122h76z
M239 945q2 8 13 15.5t22 7.5h71q16 0 26.5 -14t5.5 -31l-50 -159q-2 -8 -12 -15t-18 -7h-71q-16 0 -27 13t-7 27z" />
    <glyph glyph-name="acircumflex" unicode="&#xe2;" 
d="M195 676q4 12 14 17.5t21 5.5h70q6 0 16 -5.5t14 -17.5l190 -635q1 -3 1 -10q0 -12 -8.5 -21.5t-22.5 -9.5h-85q-8 0 -18.5 5.5t-13.5 16.5l-31 103h-162q-5 -18 -11.5 -46.5t-13.5 -51.5q-4 -13 -14 -20t-21 -7h-85q-14 0 -24.5 13.5t-5.5 27.5zM261 396l-38 -122h76z
M252 805l-15 -20q-5 -10 -12.5 -16.5t-15.5 -6.5h-73q-17 0 -27 9t-10 20q0 5 3 11q33 58 51.5 94.5t29 56.5t17 27.5t16.5 7.5h68q8 0 16.5 -4.5t13.5 -11.5l84 -161v1q6 -9 6 -19q0 -13 -9 -22t-26 -9h-77q-9 0 -18 7t-12 14z" />
    <glyph glyph-name="atilde" unicode="&#xe3;" 
d="M195 676q4 12 14 17.5t21 5.5h70q6 0 16 -5.5t14 -17.5l190 -635q1 -3 1 -10q0 -12 -8.5 -21.5t-22.5 -9.5h-85q-8 0 -18.5 5.5t-13.5 16.5l-31 103h-162q-5 -18 -11.5 -46.5t-13.5 -51.5q-4 -13 -14 -20t-21 -7h-85q-14 0 -24.5 13.5t-5.5 27.5zM261 396l-38 -122h76z
M125 793q-15 0 -23 9t-8 23q-2 26 2 52t16 47t33.5 34t56.5 13q32 0 52 -12t38 -29q6 22 29 22h73q14 0 23.5 -8.5t11.5 -20.5q1 -7 1.5 -15t0.5 -16q0 -22 -5.5 -43.5t-18 -39t-34 -28t-53.5 -10.5q-26 0 -47.5 11.5t-37.5 25.5q-8 -15 -33 -15h-77z" />
    <glyph glyph-name="adieresis" unicode="&#xe4;" 
d="M195 676q4 12 14 17.5t21 5.5h70q6 0 16 -5.5t14 -17.5l190 -635q1 -3 1 -10q0 -12 -8.5 -21.5t-22.5 -9.5h-85q-8 0 -18.5 5.5t-13.5 16.5l-31 103h-162q-5 -18 -11.5 -46.5t-13.5 -51.5q-4 -13 -14 -20t-21 -7h-85q-14 0 -24.5 13.5t-5.5 27.5zM261 396l-38 -122h76z
M71 886q0 14 9.5 22t24.5 8h104q16 0 25.5 -8t9.5 -22v-114q0 -14 -9.5 -22.5t-25.5 -8.5h-104q-15 0 -24.5 8.5t-9.5 22.5v114zM265 886q0 30 31 30h108q12 0 21 -8t9 -22v-114q0 -14 -9 -22.5t-21 -8.5h-108q-16 0 -23.5 8.5t-7.5 22.5v114z" />
    <glyph glyph-name="aring" unicode="&#xe5;" 
d="M195 676q4 12 14 17.5t21 5.5h70q6 0 16 -5.5t14 -17.5l190 -635q1 -3 1 -10q0 -12 -8.5 -21.5t-22.5 -9.5h-85q-8 0 -18.5 5.5t-13.5 16.5l-31 103h-162q-5 -18 -11.5 -46.5t-13.5 -51.5q-4 -13 -14 -20t-21 -7h-85q-14 0 -24.5 13.5t-5.5 27.5zM261 396l-38 -122h76z
M142 857q0 26 9.5 48t26 38t39.5 25t50 9q25 0 47 -9t38.5 -25t26 -38t9.5 -48t-9.5 -48t-26 -38.5t-38.5 -26t-47 -9.5q-27 0 -50 9.5t-39.5 26t-26 38.5t-9.5 48zM256 856q0 -8 9 -8q8 0 8 8t-8 8q-9 0 -9 -8z" />
    <glyph glyph-name="ae" unicode="&#xe6;" horiz-adv-x="959" 
d="M412 130l-163 -3q-8 -25 -16.5 -49.5t-18.5 -53.5q-5 -8 -14 -16t-18 -8h-86q-17 0 -28.5 13t-6.5 29q50 155 102.5 316.5t102.5 316.5q4 11 14 17.5t21 6.5h463q16 0 25.5 -9.5t9.5 -24.5v-80q0 -15 -9.5 -24.5t-25.5 -9.5h-317q2 -2 2 -5l37 -126h223q16 0 23.5 -9.5
t7.5 -25.5v-79q0 -15 -7.5 -24.5t-23.5 -9.5h-175l42 -124h188q16 0 25.5 -9.5t9.5 -24.5v-79q0 -16 -9.5 -25.5t-25.5 -9.5h-286q-11 0 -20 10.5t-14 18.5zM302 278h69q-9 24 -16.5 50t-18.5 60z" />
    <glyph glyph-name="ccedilla" unicode="&#xe7;" horiz-adv-x="490" 
d="M440 275q11 -4 20.5 -14.5t9.5 -21.5q-9 -50 -26.5 -94.5t-45.5 -78t-68 -53t-95 -19.5q-70 0 -113.5 31.5t-68 81.5t-33 113t-8.5 126q0 68 8.5 133t32 115.5t65.5 81t110 30.5q41 0 79.5 -9t69 -34t52 -68t29.5 -110q0 -17 -6 -25.5t-14 -10.5q-9 -3 -22.5 -6.5
t-27 -6.5t-25 -5t-17.5 -2q-11 0 -22.5 6.5t-13.5 12.5q-5 21 -11 40.5t-14.5 35t-21 24.5t-30.5 9q-24 0 -37 -17t-19.5 -45t-8 -62.5t-1.5 -70.5q0 -39 2 -78t9 -71t20 -52t36 -20q22 0 35 11t21.5 27.5t14.5 36t13 36t16.5 27.5t25.5 11zM244 55h48q9 0 14 -5.5t5 -12.5
t-3 -11l-27 -36q19 -12 31.5 -31.5t12.5 -45.5q0 -27 -10.5 -48.5t-28 -36t-39 -22.5t-42.5 -8q-9 0 -25 1.5t-31 6t-24.5 12.5t-5.5 20l16 49q4 13 20 13q5 0 20.5 -6t31.5 -6q10 0 17 4.5t7 17.5q0 6 -11.5 8t-25 4.5t-24.5 8t-11 19.5q0 10 5 18q22 32 31.5 50t20.5 26
l14 9z" />
    <glyph glyph-name="egrave" unicode="&#xe8;" horiz-adv-x="455" 
d="M10 665q0 15 9.5 24.5t25.5 9.5h348q15 0 23.5 -9.5t8.5 -24.5v-82q0 -16 -8.5 -25.5t-23.5 -9.5h-231v-132h191q15 0 24.5 -9t9.5 -22v-83q0 -15 -9.5 -24.5t-24.5 -9.5h-191v-117h231q15 0 23.5 -9.5t8.5 -24.5v-82q0 -16 -8.5 -25.5t-23.5 -9.5h-348q-16 0 -25.5 9.5
t-9.5 25.5v630zM274 784q1 -3 1 -10q0 -14 -11 -24t-25 -10h-71q-11 0 -19.5 8t-13.5 15l-49 162q-1 2 -1 8q0 13 11 23t25 10h70q9 0 19 -11t15 -22z" />
    <glyph glyph-name="eacute" unicode="&#xe9;" horiz-adv-x="455" 
d="M10 665q0 15 9.5 24.5t25.5 9.5h348q15 0 23.5 -9.5t8.5 -24.5v-82q0 -16 -8.5 -25.5t-23.5 -9.5h-231v-132h191q15 0 24.5 -9t9.5 -22v-83q0 -15 -9.5 -24.5t-24.5 -9.5h-191v-117h231q15 0 23.5 -9.5t8.5 -24.5v-82q0 -16 -8.5 -25.5t-23.5 -9.5h-348q-16 0 -25.5 9.5
t-9.5 25.5v630zM156 944q2 8 13 15.5t22 7.5h71q16 0 26.5 -14t5.5 -31l-50 -159q-2 -8 -12 -15t-18 -7h-71q-16 0 -27 13t-7 27z" />
    <glyph glyph-name="ecircumflex" unicode="&#xea;" horiz-adv-x="455" 
d="M10 665q0 15 9.5 24.5t25.5 9.5h348q15 0 23.5 -9.5t8.5 -24.5v-82q0 -16 -8.5 -25.5t-23.5 -9.5h-231v-132h191q15 0 24.5 -9t9.5 -22v-83q0 -15 -9.5 -24.5t-24.5 -9.5h-191v-117h231q15 0 23.5 -9.5t8.5 -24.5v-82q0 -16 -8.5 -25.5t-23.5 -9.5h-348q-16 0 -25.5 9.5
t-9.5 25.5v630zM208 783l-15 -20q-5 -10 -12.5 -16.5t-15.5 -6.5h-73q-17 0 -27 9t-10 20q0 5 3 11q33 58 51.5 94.5t29 56.5t17 27.5t16.5 7.5h68q8 0 16.5 -4.5t13.5 -11.5l84 -161v1q6 -9 6 -19q0 -13 -9 -22t-26 -9h-77q-9 0 -18 7t-12 14z" />
    <glyph glyph-name="edieresis" unicode="&#xeb;" horiz-adv-x="455" 
d="M10 665q0 15 9.5 24.5t25.5 9.5h348q15 0 23.5 -9.5t8.5 -24.5v-82q0 -16 -8.5 -25.5t-23.5 -9.5h-231v-132h191q15 0 24.5 -9t9.5 -22v-83q0 -15 -9.5 -24.5t-24.5 -9.5h-191v-117h231q15 0 23.5 -9.5t8.5 -24.5v-82q0 -16 -8.5 -25.5t-23.5 -9.5h-348q-16 0 -25.5 9.5
t-9.5 25.5v630zM24 888q0 14 9.5 22t24.5 8h104q16 0 25.5 -8t9.5 -22v-114q0 -14 -9.5 -22.5t-25.5 -8.5h-104q-15 0 -24.5 8.5t-9.5 22.5v114zM218 888q0 30 31 30h108q12 0 21 -8t9 -22v-114q0 -14 -9 -22.5t-21 -8.5h-108q-16 0 -23.5 8.5t-7.5 22.5v114z" />
    <glyph glyph-name="igrave" unicode="&#xec;" horiz-adv-x="250" 
d="M50 665q0 15 9.5 24.5t25.5 9.5h83q14 0 22 -9.5t8 -24.5v-630q0 -16 -8 -25.5t-22 -9.5h-83q-16 0 -25.5 9.5t-9.5 25.5v630zM191 785q1 -3 1 -10q0 -14 -11 -24t-25 -10h-71q-11 0 -19.5 8t-13.5 15l-49 162q-1 2 -1 8q0 13 11 23t25 10h70q9 0 19 -11t15 -22z" />
    <glyph glyph-name="iacute" unicode="&#xed;" horiz-adv-x="227" 
d="M35 665q0 15 9.5 24.5t25.5 9.5h83q14 0 22 -9.5t8 -24.5v-630q0 -16 -8 -25.5t-22 -9.5h-83q-16 0 -25.5 9.5t-9.5 25.5v630zM69 943q2 8 13 15.5t22 7.5h71q16 0 26.5 -14t5.5 -31l-50 -159q-2 -8 -12 -15t-18 -7h-71q-16 0 -27 13t-7 27z" />
    <glyph glyph-name="icircumflex" unicode="&#xee;" horiz-adv-x="354" 
d="M102 665q0 15 9.5 24.5t25.5 9.5h83q14 0 22 -9.5t8 -24.5v-630q0 -16 -8 -25.5t-22 -9.5h-83q-16 0 -25.5 9.5t-9.5 25.5v630zM172 783l-15 -20q-5 -10 -12.5 -16.5t-15.5 -6.5h-73q-17 0 -27 9t-10 20q0 5 3 11q33 58 51.5 94.5t29 56.5t17 27.5t16.5 7.5h68
q8 0 16.5 -4.5t13.5 -11.5l84 -161v1q6 -9 6 -19q0 -13 -9 -22t-26 -9h-77q-9 0 -18 7t-12 14z" />
    <glyph glyph-name="idieresis" unicode="&#xef;" horiz-adv-x="401" 
d="M126 665q0 15 9.5 24.5t25.5 9.5h83q14 0 22 -9.5t8 -24.5v-630q0 -16 -8 -25.5t-22 -9.5h-83q-16 0 -25.5 9.5t-9.5 25.5v630zM19 890q0 14 9.5 22t24.5 8h104q16 0 25.5 -8t9.5 -22v-114q0 -14 -9.5 -22.5t-25.5 -8.5h-104q-15 0 -24.5 8.5t-9.5 22.5v114zM213 890
q0 30 31 30h108q12 0 21 -8t9 -22v-114q0 -14 -9 -22.5t-21 -8.5h-108q-16 0 -23.5 8.5t-7.5 22.5v114z" />
    <glyph glyph-name="ntilde" unicode="&#xf1;" horiz-adv-x="530" 
d="M356 1q-7 0 -17.5 7.5t-15.5 13.5l-59 128l-73 158q1 -18 1.5 -36.5t0.5 -31.5v-205q0 -16 -8.5 -25.5t-21.5 -9.5h-83q-16 0 -25.5 9.5t-9.5 25.5v630q0 15 9.5 24.5t25.5 9.5h75q9 0 18 -9.5t14 -19.5l135 -300v295q0 15 9.5 24.5t24.5 9.5h83q13 0 22 -9.5t9 -24.5
v-630q0 -16 -9 -25.5t-22 -9.5zM102 793q-15 0 -23 9t-8 23q-2 26 2 52t16 47t33.5 34t56.5 13q32 0 52 -12t38 -29q6 22 29 22h73q14 0 23.5 -8.5t11.5 -20.5q1 -7 1.5 -15t0.5 -16q0 -22 -5.5 -43.5t-18 -39t-34 -28t-53.5 -10.5q-26 0 -47.5 11.5t-37.5 25.5
q-8 -15 -33 -15h-77z" />
    <glyph glyph-name="ograve" unicode="&#xf2;" horiz-adv-x="500" 
d="M231 706q115 0 174 -88.5t59 -256.5q0 -69 -8 -134.5t-32.5 -117.5t-69.5 -83.5t-119 -31.5t-119.5 31.5t-70.5 81.5t-33.5 113t-8.5 126q0 68 8.5 133t33 115.5t69.5 81t117 30.5zM303 360q0 34 -2 68.5t-10 62t-24.5 45t-44.5 17.5q-23 0 -35 -17t-17.5 -44.5
t-6.5 -61.5t-1 -68q0 -39 2 -78t9 -71t21.5 -52t39.5 -20q24 0 38 18.5t20.5 49.5t8.5 70.5t2 80.5zM322 786q1 -3 1 -10q0 -14 -11 -24t-25 -10h-71q-11 0 -19.5 8t-13.5 15l-49 162q-1 2 -1 8q0 13 11 23t25 10h70q9 0 19 -11t15 -22z" />
    <glyph glyph-name="oacute" unicode="&#xf3;" horiz-adv-x="500" 
d="M231 706q115 0 174 -88.5t59 -256.5q0 -69 -8 -134.5t-32.5 -117.5t-69.5 -83.5t-119 -31.5t-119.5 31.5t-70.5 81.5t-33.5 113t-8.5 126q0 68 8.5 133t33 115.5t69.5 81t117 30.5zM303 360q0 34 -2 68.5t-10 62t-24.5 45t-44.5 17.5q-23 0 -35 -17t-17.5 -44.5
t-6.5 -61.5t-1 -68q0 -39 2 -78t9 -71t21.5 -52t39.5 -20q24 0 38 18.5t20.5 49.5t8.5 70.5t2 80.5zM201 946q2 8 13 15.5t22 7.5h71q16 0 26.5 -14t5.5 -31l-50 -159q-2 -8 -12 -15t-18 -7h-71q-16 0 -27 13t-7 27z" />
    <glyph glyph-name="ocircumflex" unicode="&#xf4;" horiz-adv-x="500" 
d="M231 706q115 0 174 -88.5t59 -256.5q0 -69 -8 -134.5t-32.5 -117.5t-69.5 -83.5t-119 -31.5t-119.5 31.5t-70.5 81.5t-33.5 113t-8.5 126q0 68 8.5 133t33 115.5t69.5 81t117 30.5zM303 360q0 34 -2 68.5t-10 62t-24.5 45t-44.5 17.5q-23 0 -35 -17t-17.5 -44.5
t-6.5 -61.5t-1 -68q0 -39 2 -78t9 -71t21.5 -52t39.5 -20q24 0 38 18.5t20.5 49.5t8.5 70.5t2 80.5zM217 783l-15 -20q-5 -10 -12.5 -16.5t-15.5 -6.5h-73q-17 0 -27 9t-10 20q0 5 3 11q33 58 51.5 94.5t29 56.5t17 27.5t16.5 7.5h68q8 0 16.5 -4.5t13.5 -11.5l84 -161v1
q6 -9 6 -19q0 -13 -9 -22t-26 -9h-77q-9 0 -18 7t-12 14z" />
    <glyph glyph-name="otilde" unicode="&#xf5;" horiz-adv-x="500" 
d="M231 706q115 0 174 -88.5t59 -256.5q0 -69 -8 -134.5t-32.5 -117.5t-69.5 -83.5t-119 -31.5t-119.5 31.5t-70.5 81.5t-33.5 113t-8.5 126q0 68 8.5 133t33 115.5t69.5 81t117 30.5zM303 360q0 34 -2 68.5t-10 62t-24.5 45t-44.5 17.5q-23 0 -35 -17t-17.5 -44.5
t-6.5 -61.5t-1 -68q0 -39 2 -78t9 -71t21.5 -52t39.5 -20q24 0 38 18.5t20.5 49.5t8.5 70.5t2 80.5zM96 793q-15 0 -23 9t-8 23q-2 26 2 52t16 47t33.5 34t56.5 13q32 0 52 -12t38 -29q6 22 29 22h73q14 0 23.5 -8.5t11.5 -20.5q1 -7 1.5 -15t0.5 -16q0 -22 -5.5 -43.5
t-18 -39t-34 -28t-53.5 -10.5q-26 0 -47.5 11.5t-37.5 25.5q-8 -15 -33 -15h-77z" />
    <glyph glyph-name="odieresis" unicode="&#xf6;" horiz-adv-x="500" 
d="M231 706q115 0 174 -88.5t59 -256.5q0 -69 -8 -134.5t-32.5 -117.5t-69.5 -83.5t-119 -31.5t-119.5 31.5t-70.5 81.5t-33.5 113t-8.5 126q0 68 8.5 133t33 115.5t69.5 81t117 30.5zM303 360q0 34 -2 68.5t-10 62t-24.5 45t-44.5 17.5q-23 0 -35 -17t-17.5 -44.5
t-6.5 -61.5t-1 -68q0 -39 2 -78t9 -71t21.5 -52t39.5 -20q24 0 38 18.5t20.5 49.5t8.5 70.5t2 80.5zM38 888q0 14 9.5 22t24.5 8h104q16 0 25.5 -8t9.5 -22v-114q0 -14 -9.5 -22.5t-25.5 -8.5h-104q-15 0 -24.5 8.5t-9.5 22.5v114zM232 888q0 30 31 30h108q12 0 21 -8t9 -22
v-114q0 -14 -9 -22.5t-21 -8.5h-108q-16 0 -23.5 8.5t-7.5 22.5v114z" />
    <glyph glyph-name="divide" unicode="&#xf7;" horiz-adv-x="339" 
d="M277 390q16 0 25.5 -9.5t9.5 -24.5v-81q0 -15 -9.5 -24.5t-25.5 -9.5h-240q-16 0 -25.5 9.5t-9.5 24.5v81q0 15 9.5 24.5t25.5 9.5h240zM72 177q0 16 9.5 25.5t24.5 9.5h103q16 0 25.5 -9.5t9.5 -25.5v-110q0 -16 -9.5 -25.5t-25.5 -9.5h-103q-15 0 -24.5 9.5t-9.5 25.5
v110zM67 563q0 16 9.5 25.5t24.5 9.5h103q16 0 25.5 -9.5t9.5 -25.5v-110q0 -16 -9.5 -25.5t-25.5 -9.5h-103q-15 0 -24.5 9.5t-9.5 25.5v110z" />
    <glyph glyph-name="oslash" unicode="&#xf8;" horiz-adv-x="460" 
d="M416 585q12 -39 18 -96t6 -128q0 -69 -6.5 -134.5t-28 -117.5t-63.5 -83.5t-113 -31.5q-16 0 -32.5 0.5t-30.5 2.5q-6 -20 -15.5 -26t-18.5 -6h-88q-34 0 -34 32v7.5t2 8.5l41 94q-28 54 -34.5 115.5t-6.5 123.5q0 68 7.5 133t30 115.5t64 81t108.5 30.5h3q11 0 31 -0.5
t45 -5.5q5 11 15.5 19.5t20.5 8.5h86q17 0 25 -11t8 -24q0 -5 -2 -13zM292 360q0 30 0.5 64t-5 62.5t-20.5 47.5t-45 19q-23 0 -35 -17t-17.5 -44.5t-6.5 -61.5t-1 -68q0 -39 1.5 -78t8.5 -71t20 -52t36 -20q22 0 35 18.5t19.5 49.5t8 70.5t1.5 80.5z" />
    <glyph glyph-name="ugrave" unicode="&#xf9;" horiz-adv-x="526" 
d="M445 700q13 0 22 -9.5t9 -25.5v-332q0 -69 -6.5 -130.5t-28.5 -108t-64 -74t-113 -27.5q-69 0 -113 27t-69 72.5t-34.5 104.5t-9.5 122v346q0 16 9.5 25.5t25.5 9.5h92q14 0 22 -9.5t8 -25.5v-331q0 -36 2 -70.5t9 -61.5t20.5 -44t36.5 -17q22 0 35.5 15.5t20.5 41.5
t9 61t2 73v333q0 16 9.5 25.5t24.5 9.5h81zM322 785q1 -3 1 -10q0 -14 -11 -24t-25 -10h-71q-11 0 -19.5 8t-13.5 15l-49 162q-1 2 -1 8q0 13 11 23t25 10h70q9 0 19 -11t15 -22z" />
    <glyph glyph-name="uacute" unicode="&#xfa;" horiz-adv-x="526" 
d="M445 700q13 0 22 -9.5t9 -25.5v-332q0 -69 -6.5 -130.5t-28.5 -108t-64 -74t-113 -27.5q-69 0 -113 27t-69 72.5t-34.5 104.5t-9.5 122v346q0 16 9.5 25.5t25.5 9.5h92q14 0 22 -9.5t8 -25.5v-331q0 -36 2 -70.5t9 -61.5t20.5 -44t36.5 -17q22 0 35.5 15.5t20.5 41.5
t9 61t2 73v333q0 16 9.5 25.5t24.5 9.5h81zM212 943q2 8 13 15.5t22 7.5h71q16 0 26.5 -14t5.5 -31l-50 -159q-2 -8 -12 -15t-18 -7h-71q-16 0 -27 13t-7 27z" />
    <glyph glyph-name="ucircumflex" unicode="&#xfb;" horiz-adv-x="526" 
d="M445 700q13 0 22 -9.5t9 -25.5v-332q0 -69 -6.5 -130.5t-28.5 -108t-64 -74t-113 -27.5q-69 0 -113 27t-69 72.5t-34.5 104.5t-9.5 122v346q0 16 9.5 25.5t25.5 9.5h92q14 0 22 -9.5t8 -25.5v-331q0 -36 2 -70.5t9 -61.5t20.5 -44t36.5 -17q22 0 35.5 15.5t20.5 41.5
t9 61t2 73v333q0 16 9.5 25.5t24.5 9.5h81zM251 783l-15 -20q-5 -10 -12.5 -16.5t-15.5 -6.5h-73q-17 0 -27 9t-10 20q0 5 3 11q33 58 51.5 94.5t29 56.5t17 27.5t16.5 7.5h68q8 0 16.5 -4.5t13.5 -11.5l84 -161v1q6 -9 6 -19q0 -13 -9 -22t-26 -9h-77q-9 0 -18 7t-12 14z
" />
    <glyph glyph-name="udieresis" unicode="&#xfc;" horiz-adv-x="529" 
d="M446 700q13 0 22 -9.5t9 -25.5v-332q0 -69 -6.5 -130.5t-28.5 -108t-64 -74t-113 -27.5q-69 0 -113 27t-69 72.5t-34.5 104.5t-9.5 122v346q0 16 9.5 25.5t25.5 9.5h92q14 0 22 -9.5t8 -25.5v-331q0 -36 2 -70.5t9 -61.5t20.5 -44t36.5 -17q22 0 35.5 15.5t20.5 41.5
t9 61t2 73v333q0 16 9.5 25.5t24.5 9.5h81zM73 888q0 14 9.5 22t24.5 8h104q16 0 25.5 -8t9.5 -22v-114q0 -14 -9.5 -22.5t-25.5 -8.5h-104q-15 0 -24.5 8.5t-9.5 22.5v114zM267 888q0 30 31 30h108q12 0 21 -8t9 -22v-114q0 -14 -9 -22.5t-21 -8.5h-108q-16 0 -23.5 8.5
t-7.5 22.5v114z" />
    <glyph glyph-name="yacute" unicode="&#xfd;" horiz-adv-x="481" 
d="M296 35q0 -16 -8.5 -25.5t-23.5 -9.5h-84q-16 0 -25 9.5t-9 25.5v272l-140 343q-3 6 -3 14q0 14 8 24.5t24 10.5h80q20 0 31.5 -16.5t19.5 -30.5l56 -153q4 11 8.5 23.5t11.5 30.5t17.5 44.5t27.5 65.5q8 15 15 25.5t22 10.5h86q13 0 20 -12.5t7 -27.5q0 -5 -2 -15
l-139 -337v-272zM201 945q2 8 13 15.5t22 7.5h71q16 0 26.5 -14t5.5 -31l-50 -159q-2 -8 -12 -15t-18 -7h-71q-16 0 -27 13t-7 27z" />
    <glyph glyph-name="ydieresis" unicode="&#xff;" horiz-adv-x="481" 
d="M296 35q0 -16 -8.5 -25.5t-23.5 -9.5h-84q-16 0 -25 9.5t-9 25.5v272l-140 343q-3 6 -3 14q0 14 8 24.5t24 10.5h80q20 0 31.5 -16.5t19.5 -30.5l56 -153q4 11 8.5 23.5t11.5 30.5t17.5 44.5t27.5 65.5q8 15 15 25.5t22 10.5h86q13 0 20 -12.5t7 -27.5q0 -5 -2 -15
l-139 -337v-272zM62 883q0 14 9.5 22t24.5 8h104q16 0 25.5 -8t9.5 -22v-114q0 -14 -9.5 -22.5t-25.5 -8.5h-104q-15 0 -24.5 8.5t-9.5 22.5v114zM256 883q0 30 31 30h108q12 0 21 -8t9 -22v-114q0 -14 -9 -22.5t-21 -8.5h-108q-16 0 -23.5 8.5t-7.5 22.5v114z" />
    <glyph glyph-name="Amacron" unicode="&#x100;" 
d="M195 676q4 12 14 17.5t21 5.5h70q6 0 16 -5.5t14 -17.5l190 -635q1 -3 1 -10q0 -12 -8.5 -21.5t-22.5 -9.5h-85q-8 0 -18.5 5.5t-13.5 16.5l-31 103h-162q-5 -18 -11.5 -46.5t-13.5 -51.5q-4 -13 -14 -20t-21 -7h-85q-14 0 -24.5 13.5t-5.5 27.5zM261 396l-38 -122h76z
M383 921q14 0 22 -7.5t8 -22.5v-82q0 -16 -8 -25t-22 -9h-256q-12 0 -21 9t-9 25v82q0 15 9 22.5t21 7.5h256z" />
    <glyph glyph-name="amacron" unicode="&#x101;" 
d="M195 676q4 12 14 17.5t21 5.5h70q6 0 16 -5.5t14 -17.5l190 -635q1 -3 1 -10q0 -12 -8.5 -21.5t-22.5 -9.5h-85q-8 0 -18.5 5.5t-13.5 16.5l-31 103h-162q-5 -18 -11.5 -46.5t-13.5 -51.5q-4 -13 -14 -20t-21 -7h-85q-14 0 -24.5 13.5t-5.5 27.5zM261 396l-38 -122h76z
M383 921q14 0 22 -7.5t8 -22.5v-82q0 -16 -8 -25t-22 -9h-256q-12 0 -21 9t-9 25v82q0 15 9 22.5t21 7.5h256z" />
    <glyph glyph-name="Abreve" unicode="&#x102;" 
d="M195 676q4 12 14 17.5t21 5.5h70q6 0 16 -5.5t14 -17.5l190 -635q1 -3 1 -10q0 -12 -8.5 -21.5t-22.5 -9.5h-85q-8 0 -18.5 5.5t-13.5 16.5l-31 103h-162q-5 -18 -11.5 -46.5t-13.5 -51.5q-4 -13 -14 -20t-21 -7h-85q-14 0 -24.5 13.5t-5.5 27.5zM261 396l-38 -122h76z
M222 934q8 0 18.5 -11t11.5 -22q1 -5 4.5 -10t10.5 -5q5 0 9 4.5t4 9.5q0 15 7 24.5t21 9.5h75q16 0 25.5 -9.5t9.5 -24.5q0 -33 -12 -62.5t-32.5 -51.5t-48 -35t-58.5 -13q-32 0 -60 13t-48.5 35t-32.5 51.5t-13 62.5q0 15 9 24.5t25 9.5h75z" />
    <glyph glyph-name="abreve" unicode="&#x103;" 
d="M195 676q4 12 14 17.5t21 5.5h70q6 0 16 -5.5t14 -17.5l190 -635q1 -3 1 -10q0 -12 -8.5 -21.5t-22.5 -9.5h-85q-8 0 -18.5 5.5t-13.5 16.5l-31 103h-162q-5 -18 -11.5 -46.5t-13.5 -51.5q-4 -13 -14 -20t-21 -7h-85q-14 0 -24.5 13.5t-5.5 27.5zM261 396l-38 -122h76z
M222 934q8 0 18.5 -11t11.5 -22q1 -5 4.5 -10t10.5 -5q5 0 9 4.5t4 9.5q0 15 7 24.5t21 9.5h75q16 0 25.5 -9.5t9.5 -24.5q0 -33 -12 -62.5t-32.5 -51.5t-48 -35t-58.5 -13q-32 0 -60 13t-48.5 35t-32.5 51.5t-13 62.5q0 15 9 24.5t25 9.5h75z" />
    <glyph glyph-name="Aogonek" unicode="&#x104;" 
d="M195 676q4 12 14 17.5t21 5.5h70q6 0 16 -5.5t14 -17.5l190 -635q1 -3 1 -10q0 -12 -8.5 -21.5t-22.5 -9.5h-85q-8 0 -18.5 5.5t-13.5 16.5l-31 103h-162q-5 -18 -11.5 -46.5t-13.5 -51.5q-4 -13 -14 -20t-21 -7h-85q-14 0 -24.5 13.5t-5.5 27.5zM261 396l-38 -122h76z
M480 61q10 0 17 -7.5t14 -13.5t8.5 -14.5t1.5 -10.5q0 -3 -9.5 -12t-23.5 -21t-30.5 -25.5t-30 -25.5t-22.5 -20.5t-7 -10.5q2 -3 9 -1.5t16 6l20 10l21 10.5q12 5 24.5 -3t15.5 -26l9 -56q2 -11 0.5 -17t-4 -9.5t-5 -5l-2.5 -1.5q-29 -15 -56 -21.5t-47 -6.5
q-60 0 -94.5 29t-34.5 83q0 23 6.5 43t24.5 40.5t49 41.5t80 45h50z" />
    <glyph glyph-name="aogonek" unicode="&#x105;" 
d="M195 676q4 12 14 17.5t21 5.5h70q6 0 16 -5.5t14 -17.5l190 -635q1 -3 1 -10q0 -12 -8.5 -21.5t-22.5 -9.5h-85q-8 0 -18.5 5.5t-13.5 16.5l-31 103h-162q-5 -18 -11.5 -46.5t-13.5 -51.5q-4 -13 -14 -20t-21 -7h-85q-14 0 -24.5 13.5t-5.5 27.5zM261 396l-38 -122h76z
M480 61q10 0 17 -7.5t14 -13.5t8.5 -14.5t1.5 -10.5q0 -3 -9.5 -12t-23.5 -21t-30.5 -25.5t-30 -25.5t-22.5 -20.5t-7 -10.5q2 -3 9 -1.5t16 6l20 10l21 10.5q12 5 24.5 -3t15.5 -26l9 -56q2 -11 0.5 -17t-4 -9.5t-5 -5l-2.5 -1.5q-29 -15 -56 -21.5t-47 -6.5
q-60 0 -94.5 29t-34.5 83q0 23 6.5 43t24.5 40.5t49 41.5t80 45h50z" />
    <glyph glyph-name="Cacute" unicode="&#x106;" horiz-adv-x="490" 
d="M440 275q11 -4 20.5 -14.5t9.5 -21.5q-9 -50 -26.5 -94.5t-45.5 -78t-68 -53t-95 -19.5q-70 0 -113.5 31.5t-68 81.5t-33 113t-8.5 126q0 68 8.5 133t32 115.5t65.5 81t110 30.5q41 0 79.5 -9t69 -34t52 -68t29.5 -110q0 -17 -6 -25.5t-14 -10.5q-9 -3 -22.5 -6.5
t-27 -6.5t-25 -5t-17.5 -2q-11 0 -22.5 6.5t-13.5 12.5q-5 21 -11 40.5t-14.5 35t-21 24.5t-30.5 9q-24 0 -37 -17t-19.5 -45t-8 -62.5t-1.5 -70.5q0 -39 2 -78t9 -71t20 -52t36 -20q22 0 35 11t21.5 27.5t14.5 36t13 36t16.5 27.5t25.5 11zM195 945q2 8 13 15.5t22 7.5h71
q16 0 26.5 -14t5.5 -31l-50 -159q-2 -8 -12 -15t-18 -7h-71q-16 0 -27 13t-7 27z" />
    <glyph glyph-name="cacute" unicode="&#x107;" horiz-adv-x="490" 
d="M440 275q11 -4 20.5 -14.5t9.5 -21.5q-9 -50 -26.5 -94.5t-45.5 -78t-68 -53t-95 -19.5q-70 0 -113.5 31.5t-68 81.5t-33 113t-8.5 126q0 68 8.5 133t32 115.5t65.5 81t110 30.5q41 0 79.5 -9t69 -34t52 -68t29.5 -110q0 -17 -6 -25.5t-14 -10.5q-9 -3 -22.5 -6.5
t-27 -6.5t-25 -5t-17.5 -2q-11 0 -22.5 6.5t-13.5 12.5q-5 21 -11 40.5t-14.5 35t-21 24.5t-30.5 9q-24 0 -37 -17t-19.5 -45t-8 -62.5t-1.5 -70.5q0 -39 2 -78t9 -71t20 -52t36 -20q22 0 35 11t21.5 27.5t14.5 36t13 36t16.5 27.5t25.5 11zM195 945q2 8 13 15.5t22 7.5h71
q16 0 26.5 -14t5.5 -31l-50 -159q-2 -8 -12 -15t-18 -7h-71q-16 0 -27 13t-7 27z" />
    <glyph glyph-name="Ccircumflex" unicode="&#x108;" horiz-adv-x="493" 
d="M440 275q11 -4 20.5 -14.5t9.5 -21.5q-9 -50 -26.5 -94.5t-45.5 -78t-68 -53t-95 -19.5q-70 0 -113.5 31.5t-68 81.5t-33 113t-8.5 126q0 68 8.5 133t32 115.5t65.5 81t110 30.5q41 0 79.5 -9t69 -34t52 -68t29.5 -110q0 -17 -6 -25.5t-14 -10.5q-9 -3 -22.5 -6.5
t-27 -6.5t-25 -5t-17.5 -2q-11 0 -22.5 6.5t-13.5 12.5q-5 21 -11 40.5t-14.5 35t-21 24.5t-30.5 9q-24 0 -37 -17t-19.5 -45t-8 -62.5t-1.5 -70.5q0 -39 2 -78t9 -71t20 -52t36 -20q22 0 35 11t21.5 27.5t14.5 36t13 36t16.5 27.5t25.5 11zM245 856l-15 -20
q-5 -10 -12.5 -16.5t-15.5 -6.5h-73q-17 0 -27 9t-10 20q0 5 3 11q33 58 51.5 94.5t29 56.5t17 27.5t16.5 7.5h68q8 0 16.5 -4.5t13.5 -11.5l84 -161v1q6 -9 6 -19q0 -13 -9 -22t-26 -9h-77q-9 0 -18 7t-12 14z" />
    <glyph glyph-name="ccircumflex" unicode="&#x109;" horiz-adv-x="493" 
d="M440 275q11 -4 20.5 -14.5t9.5 -21.5q-9 -50 -26.5 -94.5t-45.5 -78t-68 -53t-95 -19.5q-70 0 -113.5 31.5t-68 81.5t-33 113t-8.5 126q0 68 8.5 133t32 115.5t65.5 81t110 30.5q41 0 79.5 -9t69 -34t52 -68t29.5 -110q0 -17 -6 -25.5t-14 -10.5q-9 -3 -22.5 -6.5
t-27 -6.5t-25 -5t-17.5 -2q-11 0 -22.5 6.5t-13.5 12.5q-5 21 -11 40.5t-14.5 35t-21 24.5t-30.5 9q-24 0 -37 -17t-19.5 -45t-8 -62.5t-1.5 -70.5q0 -39 2 -78t9 -71t20 -52t36 -20q22 0 35 11t21.5 27.5t14.5 36t13 36t16.5 27.5t25.5 11zM245 856l-15 -20
q-5 -10 -12.5 -16.5t-15.5 -6.5h-73q-17 0 -27 9t-10 20q0 5 3 11q33 58 51.5 94.5t29 56.5t17 27.5t16.5 7.5h68q8 0 16.5 -4.5t13.5 -11.5l84 -161v1q6 -9 6 -19q0 -13 -9 -22t-26 -9h-77q-9 0 -18 7t-12 14z" />
    <glyph glyph-name="Cdotaccent" unicode="&#x10a;" horiz-adv-x="490" 
d="M440 275q11 -4 20.5 -14.5t9.5 -21.5q-9 -50 -26.5 -94.5t-45.5 -78t-68 -53t-95 -19.5q-70 0 -113.5 31.5t-68 81.5t-33 113t-8.5 126q0 68 8.5 133t32 115.5t65.5 81t110 30.5q41 0 79.5 -9t69 -34t52 -68t29.5 -110q0 -17 -6 -25.5t-14 -10.5q-9 -3 -22.5 -6.5
t-27 -6.5t-25 -5t-17.5 -2q-11 0 -22.5 6.5t-13.5 12.5q-5 21 -11 40.5t-14.5 35t-21 24.5t-30.5 9q-24 0 -37 -17t-19.5 -45t-8 -62.5t-1.5 -70.5q0 -39 2 -78t9 -71t20 -52t36 -20q22 0 35 11t21.5 27.5t14.5 36t13 36t16.5 27.5t25.5 11zM157 889q0 16 9.5 25.5t24.5 9.5
h103q16 0 25.5 -9.5t9.5 -25.5v-110q0 -16 -9.5 -25.5t-25.5 -9.5h-103q-15 0 -24.5 9.5t-9.5 25.5v110z" />
    <glyph glyph-name="cdotaccent" unicode="&#x10b;" horiz-adv-x="490" 
d="M440 275q11 -4 20.5 -14.5t9.5 -21.5q-9 -50 -26.5 -94.5t-45.5 -78t-68 -53t-95 -19.5q-70 0 -113.5 31.5t-68 81.5t-33 113t-8.5 126q0 68 8.5 133t32 115.5t65.5 81t110 30.5q41 0 79.5 -9t69 -34t52 -68t29.5 -110q0 -17 -6 -25.5t-14 -10.5q-9 -3 -22.5 -6.5
t-27 -6.5t-25 -5t-17.5 -2q-11 0 -22.5 6.5t-13.5 12.5q-5 21 -11 40.5t-14.5 35t-21 24.5t-30.5 9q-24 0 -37 -17t-19.5 -45t-8 -62.5t-1.5 -70.5q0 -39 2 -78t9 -71t20 -52t36 -20q22 0 35 11t21.5 27.5t14.5 36t13 36t16.5 27.5t25.5 11zM157 889q0 16 9.5 25.5t24.5 9.5
h103q16 0 25.5 -9.5t9.5 -25.5v-110q0 -16 -9.5 -25.5t-25.5 -9.5h-103q-15 0 -24.5 9.5t-9.5 25.5v110z" />
    <glyph glyph-name="Ccaron" unicode="&#x10c;" horiz-adv-x="490" 
d="M440 275q11 -4 20.5 -14.5t9.5 -21.5q-9 -50 -26.5 -94.5t-45.5 -78t-68 -53t-95 -19.5q-70 0 -113.5 31.5t-68 81.5t-33 113t-8.5 126q0 68 8.5 133t32 115.5t65.5 81t110 30.5q41 0 79.5 -9t69 -34t52 -68t29.5 -110q0 -17 -6 -25.5t-14 -10.5q-9 -3 -22.5 -6.5
t-27 -6.5t-25 -5t-17.5 -2q-11 0 -22.5 6.5t-13.5 12.5q-5 21 -11 40.5t-14.5 35t-21 24.5t-30.5 9q-24 0 -37 -17t-19.5 -45t-8 -62.5t-1.5 -70.5q0 -39 2 -78t9 -71t20 -52t36 -20q22 0 35 11t21.5 27.5t14.5 36t13 36t16.5 27.5t25.5 11zM241 946q3 7 12 14t18 7h77
q17 0 26 -9.5t9 -21.5q0 -10 -6 -19v1l-84 -161q-5 -7 -13.5 -11.5t-16.5 -4.5h-68q-10 0 -16.5 7.5t-17 27.5t-29 56.5t-51.5 94.5q-3 4 -3 11q0 11 10 20t27 9h71q8 0 14.5 -6t13.5 -15l17 -22z" />
    <glyph glyph-name="ccaron" unicode="&#x10d;" horiz-adv-x="490" 
d="M440 275q11 -4 20.5 -14.5t9.5 -21.5q-9 -50 -26.5 -94.5t-45.5 -78t-68 -53t-95 -19.5q-70 0 -113.5 31.5t-68 81.5t-33 113t-8.5 126q0 68 8.5 133t32 115.5t65.5 81t110 30.5q41 0 79.5 -9t69 -34t52 -68t29.5 -110q0 -17 -6 -25.5t-14 -10.5q-9 -3 -22.5 -6.5
t-27 -6.5t-25 -5t-17.5 -2q-11 0 -22.5 6.5t-13.5 12.5q-5 21 -11 40.5t-14.5 35t-21 24.5t-30.5 9q-24 0 -37 -17t-19.5 -45t-8 -62.5t-1.5 -70.5q0 -39 2 -78t9 -71t20 -52t36 -20q22 0 35 11t21.5 27.5t14.5 36t13 36t16.5 27.5t25.5 11zM241 946q3 7 12 14t18 7h77
q17 0 26 -9.5t9 -21.5q0 -10 -6 -19v1l-84 -161q-5 -7 -13.5 -11.5t-16.5 -4.5h-68q-10 0 -16.5 7.5t-17 27.5t-29 56.5t-51.5 94.5q-3 4 -3 11q0 11 10 20t27 9h71q8 0 14.5 -6t13.5 -15l17 -22z" />
    <glyph glyph-name="Dcaron" unicode="&#x10e;" horiz-adv-x="531" 
d="M193 148q40 0 60.5 10.5t29.5 35.5t10 65.5t1 100.5q0 51 -2 88t-12 60t-30.5 34t-55.5 11l-18 -1v-404h17zM18 665q0 16 9.5 25.5t23.5 9.5h124q48 0 93 -7.5t81 -36.5q30 -24 50 -59t32.5 -75t17.5 -82.5t5 -81.5q0 -35 -3.5 -80.5t-14.5 -91t-32 -86t-56 -65.5
q-39 -25 -85.5 -30t-89.5 -5h-122q-14 0 -23.5 9.5t-9.5 25.5v630zM231 944q3 7 12 14t18 7h77q17 0 26 -9.5t9 -21.5q0 -10 -6 -19v1l-84 -161q-5 -7 -13.5 -11.5t-16.5 -4.5h-68q-10 0 -16.5 7.5t-17 27.5t-29 56.5t-51.5 94.5q-3 4 -3 11q0 11 10 20t27 9h71q8 0 14.5 -6
t13.5 -15l17 -22z" />
    <glyph glyph-name="dcaron" unicode="&#x10f;" horiz-adv-x="531" 
d="M193 148q40 0 60.5 10.5t29.5 35.5t10 65.5t1 100.5q0 51 -2 88t-12 60t-30.5 34t-55.5 11l-18 -1v-404h17zM18 665q0 16 9.5 25.5t23.5 9.5h124q48 0 93 -7.5t81 -36.5q30 -24 50 -59t32.5 -75t17.5 -82.5t5 -81.5q0 -35 -3.5 -80.5t-14.5 -91t-32 -86t-56 -65.5
q-39 -25 -85.5 -30t-89.5 -5h-122q-14 0 -23.5 9.5t-9.5 25.5v630zM231 944q3 7 12 14t18 7h77q17 0 26 -9.5t9 -21.5q0 -10 -6 -19v1l-84 -161q-5 -7 -13.5 -11.5t-16.5 -4.5h-68q-10 0 -16.5 7.5t-17 27.5t-29 56.5t-51.5 94.5q-3 4 -3 11q0 11 10 20t27 9h71q8 0 14.5 -6
t13.5 -15l17 -22z" />
    <glyph glyph-name="Dcroat" unicode="&#x110;" horiz-adv-x="491" 
d="M201 148q40 0 60.5 10.5t29.5 35.5t10 65.5t1 100.5q0 51 -2 88t-12 60t-30.5 34t-55.5 11l-18 -1v-404h17zM26 665q0 16 9.5 25.5t23.5 9.5h124q48 0 93 -7.5t81 -36.5q30 -24 50 -59t32.5 -75t17.5 -82.5t5 -81.5q0 -35 -3.5 -80.5t-14.5 -91t-32 -86t-56 -65.5
q-39 -25 -85.5 -30t-89.5 -5h-122q-14 0 -23.5 9.5t-9.5 25.5v630zM97.4131 389.43q10.374 0 16.5342 -7.90625q6.15918 -7.90625 6.15918 -20.3896v-67.4092q0 -12.4834 -6.15918 -20.3887q-6.16016 -7.90625 -16.5342 -7.90625h-155.61q-10.374 0 -16.5332 7.90625
q-6.16016 7.90527 -6.16016 20.3887v67.4092q0 12.4834 6.16016 20.3896q6.15918 7.90625 16.5332 7.90625h155.61z" />
    <glyph glyph-name="dcroat" unicode="&#x111;" horiz-adv-x="491" 
d="M201 148q40 0 60.5 10.5t29.5 35.5t10 65.5t1 100.5q0 51 -2 88t-12 60t-30.5 34t-55.5 11l-18 -1v-404h17zM26 665q0 16 9.5 25.5t23.5 9.5h124q48 0 93 -7.5t81 -36.5q30 -24 50 -59t32.5 -75t17.5 -82.5t5 -81.5q0 -35 -3.5 -80.5t-14.5 -91t-32 -86t-56 -65.5
q-39 -25 -85.5 -30t-89.5 -5h-122q-14 0 -23.5 9.5t-9.5 25.5v630zM97.4131 389.43q10.374 0 16.5342 -7.90625q6.15918 -7.90625 6.15918 -20.3896v-67.4092q0 -12.4834 -6.15918 -20.3887q-6.16016 -7.90625 -16.5342 -7.90625h-155.61q-10.374 0 -16.5332 7.90625
q-6.16016 7.90527 -6.16016 20.3887v67.4092q0 12.4834 6.16016 20.3896q6.15918 7.90625 16.5332 7.90625h155.61z" />
    <glyph glyph-name="Emacron" unicode="&#x112;" horiz-adv-x="455" 
d="M10 665q0 15 9.5 24.5t25.5 9.5h348q15 0 23.5 -9.5t8.5 -24.5v-82q0 -16 -8.5 -25.5t-23.5 -9.5h-231v-132h191q15 0 24.5 -9t9.5 -22v-83q0 -15 -9.5 -24.5t-24.5 -9.5h-191v-117h231q15 0 23.5 -9.5t8.5 -24.5v-82q0 -16 -8.5 -25.5t-23.5 -9.5h-348q-16 0 -25.5 9.5
t-9.5 25.5v630zM310 923q14 0 22 -7.5t8 -22.5v-82q0 -16 -8 -25t-22 -9h-256q-12 0 -21 9t-9 25v82q0 15 9 22.5t21 7.5h256z" />
    <glyph glyph-name="emacron" unicode="&#x113;" horiz-adv-x="455" 
d="M10 665q0 15 9.5 24.5t25.5 9.5h348q15 0 23.5 -9.5t8.5 -24.5v-82q0 -16 -8.5 -25.5t-23.5 -9.5h-231v-132h191q15 0 24.5 -9t9.5 -22v-83q0 -15 -9.5 -24.5t-24.5 -9.5h-191v-117h231q15 0 23.5 -9.5t8.5 -24.5v-82q0 -16 -8.5 -25.5t-23.5 -9.5h-348q-16 0 -25.5 9.5
t-9.5 25.5v630zM310 923q14 0 22 -7.5t8 -22.5v-82q0 -16 -8 -25t-22 -9h-256q-12 0 -21 9t-9 25v82q0 15 9 22.5t21 7.5h256z" />
    <glyph glyph-name="Ebreve" unicode="&#x114;" horiz-adv-x="455" 
d="M10 665q0 15 9.5 24.5t25.5 9.5h348q15 0 23.5 -9.5t8.5 -24.5v-82q0 -16 -8.5 -25.5t-23.5 -9.5h-231v-132h191q15 0 24.5 -9t9.5 -22v-83q0 -15 -9.5 -24.5t-24.5 -9.5h-191v-117h231q15 0 23.5 -9.5t8.5 -24.5v-82q0 -16 -8.5 -25.5t-23.5 -9.5h-348q-16 0 -25.5 9.5
t-9.5 25.5v630zM148 935q8 0 18.5 -11t11.5 -22q1 -5 4.5 -10t10.5 -5q5 0 9 4.5t4 9.5q0 15 7 24.5t21 9.5h75q16 0 25.5 -9.5t9.5 -24.5q0 -33 -12 -62.5t-32.5 -51.5t-48 -35t-58.5 -13q-32 0 -60 13t-48.5 35t-32.5 51.5t-13 62.5q0 15 9 24.5t25 9.5h75z" />
    <glyph glyph-name="ebreve" unicode="&#x115;" horiz-adv-x="455" 
d="M10 665q0 15 9.5 24.5t25.5 9.5h348q15 0 23.5 -9.5t8.5 -24.5v-82q0 -16 -8.5 -25.5t-23.5 -9.5h-231v-132h191q15 0 24.5 -9t9.5 -22v-83q0 -15 -9.5 -24.5t-24.5 -9.5h-191v-117h231q15 0 23.5 -9.5t8.5 -24.5v-82q0 -16 -8.5 -25.5t-23.5 -9.5h-348q-16 0 -25.5 9.5
t-9.5 25.5v630zM148 935q8 0 18.5 -11t11.5 -22q1 -5 4.5 -10t10.5 -5q5 0 9 4.5t4 9.5q0 15 7 24.5t21 9.5h75q16 0 25.5 -9.5t9.5 -24.5q0 -33 -12 -62.5t-32.5 -51.5t-48 -35t-58.5 -13q-32 0 -60 13t-48.5 35t-32.5 51.5t-13 62.5q0 15 9 24.5t25 9.5h75z" />
    <glyph glyph-name="Edotaccent" unicode="&#x116;" horiz-adv-x="455" 
d="M10 665q0 15 9.5 24.5t25.5 9.5h348q15 0 23.5 -9.5t8.5 -24.5v-82q0 -16 -8.5 -25.5t-23.5 -9.5h-231v-132h191q15 0 24.5 -9t9.5 -22v-83q0 -15 -9.5 -24.5t-24.5 -9.5h-191v-117h231q15 0 23.5 -9.5t8.5 -24.5v-82q0 -16 -8.5 -25.5t-23.5 -9.5h-348q-16 0 -25.5 9.5
t-9.5 25.5v630zM128 889q0 16 9.5 25.5t24.5 9.5h103q16 0 25.5 -9.5t9.5 -25.5v-110q0 -16 -9.5 -25.5t-25.5 -9.5h-103q-15 0 -24.5 9.5t-9.5 25.5v110z" />
    <glyph glyph-name="edotaccent" unicode="&#x117;" horiz-adv-x="455" 
d="M10 665q0 15 9.5 24.5t25.5 9.5h348q15 0 23.5 -9.5t8.5 -24.5v-82q0 -16 -8.5 -25.5t-23.5 -9.5h-231v-132h191q15 0 24.5 -9t9.5 -22v-83q0 -15 -9.5 -24.5t-24.5 -9.5h-191v-117h231q15 0 23.5 -9.5t8.5 -24.5v-82q0 -16 -8.5 -25.5t-23.5 -9.5h-348q-16 0 -25.5 9.5
t-9.5 25.5v630zM128 889q0 16 9.5 25.5t24.5 9.5h103q16 0 25.5 -9.5t9.5 -25.5v-110q0 -16 -9.5 -25.5t-25.5 -9.5h-103q-15 0 -24.5 9.5t-9.5 25.5v110z" />
    <glyph glyph-name="Eogonek" unicode="&#x118;" horiz-adv-x="451" 
d="M10 665q0 15 9.5 24.5t25.5 9.5h348q15 0 23.5 -9.5t8.5 -24.5v-82q0 -16 -8.5 -25.5t-23.5 -9.5h-231v-132h191q15 0 24.5 -9t9.5 -22v-83q0 -15 -9.5 -24.5t-24.5 -9.5h-191v-117h231q15 0 23.5 -9.5t8.5 -24.5v-82q0 -16 -8.5 -25.5t-23.5 -9.5h-348q-16 0 -25.5 9.5
t-9.5 25.5v630zM384 61q10 0 17 -7.5t14 -13.5t8.5 -14.5t1.5 -10.5q0 -3 -9.5 -12t-23.5 -21t-30.5 -25.5t-30 -25.5t-22.5 -20.5t-7 -10.5q2 -3 9 -1.5t16 6l20 10l21 10.5q12 5 24.5 -3t15.5 -26l9 -56q2 -11 0.5 -17t-4 -9.5t-5 -5l-2.5 -1.5q-29 -15 -56 -21.5
t-47 -6.5q-60 0 -94.5 29t-34.5 83q0 23 6.5 43t24.5 40.5t49 41.5t80 45h50z" />
    <glyph glyph-name="eogonek" unicode="&#x119;" horiz-adv-x="451" 
d="M10 665q0 15 9.5 24.5t25.5 9.5h348q15 0 23.5 -9.5t8.5 -24.5v-82q0 -16 -8.5 -25.5t-23.5 -9.5h-231v-132h191q15 0 24.5 -9t9.5 -22v-83q0 -15 -9.5 -24.5t-24.5 -9.5h-191v-117h231q15 0 23.5 -9.5t8.5 -24.5v-82q0 -16 -8.5 -25.5t-23.5 -9.5h-348q-16 0 -25.5 9.5
t-9.5 25.5v630zM384 61q10 0 17 -7.5t14 -13.5t8.5 -14.5t1.5 -10.5q0 -3 -9.5 -12t-23.5 -21t-30.5 -25.5t-30 -25.5t-22.5 -20.5t-7 -10.5q2 -3 9 -1.5t16 6l20 10l21 10.5q12 5 24.5 -3t15.5 -26l9 -56q2 -11 0.5 -17t-4 -9.5t-5 -5l-2.5 -1.5q-29 -15 -56 -21.5
t-47 -6.5q-60 0 -94.5 29t-34.5 83q0 23 6.5 43t24.5 40.5t49 41.5t80 45h50z" />
    <glyph glyph-name="Ecaron" unicode="&#x11a;" horiz-adv-x="455" 
d="M10 665q0 15 9.5 24.5t25.5 9.5h348q15 0 23.5 -9.5t8.5 -24.5v-82q0 -16 -8.5 -25.5t-23.5 -9.5h-231v-132h191q15 0 24.5 -9t9.5 -22v-83q0 -15 -9.5 -24.5t-24.5 -9.5h-191v-117h231q15 0 23.5 -9.5t8.5 -24.5v-82q0 -16 -8.5 -25.5t-23.5 -9.5h-348q-16 0 -25.5 9.5
t-9.5 25.5v630zM198 947q3 7 12 14t18 7h77q17 0 26 -9.5t9 -21.5q0 -10 -6 -19v1l-84 -161q-5 -7 -13.5 -11.5t-16.5 -4.5h-68q-10 0 -16.5 7.5t-17 27.5t-29 56.5t-51.5 94.5q-3 4 -3 11q0 11 10 20t27 9h71q8 0 14.5 -6t13.5 -15l17 -22z" />
    <glyph glyph-name="ecaron" unicode="&#x11b;" horiz-adv-x="455" 
d="M10 665q0 15 9.5 24.5t25.5 9.5h348q15 0 23.5 -9.5t8.5 -24.5v-82q0 -16 -8.5 -25.5t-23.5 -9.5h-231v-132h191q15 0 24.5 -9t9.5 -22v-83q0 -15 -9.5 -24.5t-24.5 -9.5h-191v-117h231q15 0 23.5 -9.5t8.5 -24.5v-82q0 -16 -8.5 -25.5t-23.5 -9.5h-348q-16 0 -25.5 9.5
t-9.5 25.5v630zM198 947q3 7 12 14t18 7h77q17 0 26 -9.5t9 -21.5q0 -10 -6 -19v1l-84 -161q-5 -7 -13.5 -11.5t-16.5 -4.5h-68q-10 0 -16.5 7.5t-17 27.5t-29 56.5t-51.5 94.5q-3 4 -3 11q0 11 10 20t27 9h71q8 0 14.5 -6t13.5 -15l17 -22z" />
    <glyph glyph-name="Gcircumflex" unicode="&#x11c;" horiz-adv-x="504" 
d="M238 -6q-70 0 -112.5 32t-65.5 84.5t-30.5 119t-7.5 135.5t8.5 131t31.5 108.5t63.5 74t105.5 27.5q40 0 78.5 -9t70.5 -33.5t54.5 -67.5t31.5 -110q0 -15 -11.5 -25t-28.5 -15.5t-36.5 -8t-36.5 -2.5q-10 0 -17.5 4t-9.5 9q-6 22 -12 43.5t-15 37.5t-23 26t-35 10
q-26 0 -40 -16.5t-21 -43.5t-8.5 -61t-1.5 -70q0 -45 2 -88.5t9.5 -77.5t22 -54.5t39.5 -20.5q41 0 58 32t22 83h-59q-13 0 -21 7.5t-8 21.5v85q0 14 8 21t21 7h186q13 0 21 -7t8 -21v-342q0 -20 -19 -20h-56q-9 0 -14 5t-6 11l-3 27q-30 -32 -68.5 -40.5t-74.5 -8.5z
M243 783l-15 -20q-5 -10 -12.5 -16.5t-15.5 -6.5h-73q-17 0 -27 9t-10 20q0 5 3 11q33 58 51.5 94.5t29 56.5t17 27.5t16.5 7.5h68q8 0 16.5 -4.5t13.5 -11.5l84 -161v1q6 -9 6 -19q0 -13 -9 -22t-26 -9h-77q-9 0 -18 7t-12 14z" />
    <glyph glyph-name="gcircumflex" unicode="&#x11d;" horiz-adv-x="504" 
d="M238 -6q-70 0 -112.5 32t-65.5 84.5t-30.5 119t-7.5 135.5t8.5 131t31.5 108.5t63.5 74t105.5 27.5q40 0 78.5 -9t70.5 -33.5t54.5 -67.5t31.5 -110q0 -15 -11.5 -25t-28.5 -15.5t-36.5 -8t-36.5 -2.5q-10 0 -17.5 4t-9.5 9q-6 22 -12 43.5t-15 37.5t-23 26t-35 10
q-26 0 -40 -16.5t-21 -43.5t-8.5 -61t-1.5 -70q0 -45 2 -88.5t9.5 -77.5t22 -54.5t39.5 -20.5q41 0 58 32t22 83h-59q-13 0 -21 7.5t-8 21.5v85q0 14 8 21t21 7h186q13 0 21 -7t8 -21v-342q0 -20 -19 -20h-56q-9 0 -14 5t-6 11l-3 27q-30 -32 -68.5 -40.5t-74.5 -8.5z
M243 783l-15 -20q-5 -10 -12.5 -16.5t-15.5 -6.5h-73q-17 0 -27 9t-10 20q0 5 3 11q33 58 51.5 94.5t29 56.5t17 27.5t16.5 7.5h68q8 0 16.5 -4.5t13.5 -11.5l84 -161v1q6 -9 6 -19q0 -13 -9 -22t-26 -9h-77q-9 0 -18 7t-12 14z" />
    <glyph glyph-name="Gbreve" unicode="&#x11e;" horiz-adv-x="532" 
d="M236 -6q-70 0 -112.5 32t-65.5 84.5t-30.5 119t-7.5 135.5t8.5 131t31.5 108.5t63.5 74t105.5 27.5q40 0 78.5 -9t70.5 -33.5t54.5 -67.5t31.5 -110q0 -15 -11.5 -25t-28.5 -15.5t-36.5 -8t-36.5 -2.5q-10 0 -17.5 4t-9.5 9q-6 22 -12 43.5t-15 37.5t-23 26t-35 10
q-26 0 -40 -16.5t-21 -43.5t-8.5 -61t-1.5 -70q0 -45 2 -88.5t9.5 -77.5t22 -54.5t39.5 -20.5q41 0 58 32t22 83h-59q-13 0 -21 7.5t-8 21.5v85q0 14 8 21t21 7h186q13 0 21 -7t8 -21v-342q0 -20 -19 -20h-56q-9 0 -14 5t-6 11l-3 27q-30 -32 -68.5 -40.5t-74.5 -8.5z
M190 934q8 0 18.5 -11t11.5 -22q1 -5 4.5 -10t10.5 -5q5 0 9 4.5t4 9.5q0 15 7 24.5t21 9.5h75q16 0 25.5 -9.5t9.5 -24.5q0 -33 -12 -62.5t-32.5 -51.5t-48 -35t-58.5 -13q-32 0 -60 13t-48.5 35t-32.5 51.5t-13 62.5q0 15 9 24.5t25 9.5h75z" />
    <glyph glyph-name="gbreve" unicode="&#x11f;" horiz-adv-x="532" 
d="M236 -6q-70 0 -112.5 32t-65.5 84.5t-30.5 119t-7.5 135.5t8.5 131t31.5 108.5t63.5 74t105.5 27.5q40 0 78.5 -9t70.5 -33.5t54.5 -67.5t31.5 -110q0 -15 -11.5 -25t-28.5 -15.5t-36.5 -8t-36.5 -2.5q-10 0 -17.5 4t-9.5 9q-6 22 -12 43.5t-15 37.5t-23 26t-35 10
q-26 0 -40 -16.5t-21 -43.5t-8.5 -61t-1.5 -70q0 -45 2 -88.5t9.5 -77.5t22 -54.5t39.5 -20.5q41 0 58 32t22 83h-59q-13 0 -21 7.5t-8 21.5v85q0 14 8 21t21 7h186q13 0 21 -7t8 -21v-342q0 -20 -19 -20h-56q-9 0 -14 5t-6 11l-3 27q-30 -32 -68.5 -40.5t-74.5 -8.5z
M190 934q8 0 18.5 -11t11.5 -22q1 -5 4.5 -10t10.5 -5q5 0 9 4.5t4 9.5q0 15 7 24.5t21 9.5h75q16 0 25.5 -9.5t9.5 -24.5q0 -33 -12 -62.5t-32.5 -51.5t-48 -35t-58.5 -13q-32 0 -60 13t-48.5 35t-32.5 51.5t-13 62.5q0 15 9 24.5t25 9.5h75z" />
    <glyph glyph-name="Gdotaccent" unicode="&#x120;" horiz-adv-x="507" 
d="M239 -6q-70 0 -112.5 32t-65.5 84.5t-30.5 119t-7.5 135.5t8.5 131t31.5 108.5t63.5 74t105.5 27.5q40 0 78.5 -9t70.5 -33.5t54.5 -67.5t31.5 -110q0 -15 -11.5 -25t-28.5 -15.5t-36.5 -8t-36.5 -2.5q-10 0 -17.5 4t-9.5 9q-6 22 -12 43.5t-15 37.5t-23 26t-35 10
q-26 0 -40 -16.5t-21 -43.5t-8.5 -61t-1.5 -70q0 -45 2 -88.5t9.5 -77.5t22 -54.5t39.5 -20.5q41 0 58 32t22 83h-59q-13 0 -21 7.5t-8 21.5v85q0 14 8 21t21 7h186q13 0 21 -7t8 -21v-342q0 -20 -19 -20h-56q-9 0 -14 5t-6 11l-3 27q-30 -32 -68.5 -40.5t-74.5 -8.5z
M170 892q0 16 9.5 25.5t24.5 9.5h103q16 0 25.5 -9.5t9.5 -25.5v-110q0 -16 -9.5 -25.5t-25.5 -9.5h-103q-15 0 -24.5 9.5t-9.5 25.5v110z" />
    <glyph glyph-name="gdotaccent" unicode="&#x121;" horiz-adv-x="507" 
d="M239 -6q-70 0 -112.5 32t-65.5 84.5t-30.5 119t-7.5 135.5t8.5 131t31.5 108.5t63.5 74t105.5 27.5q40 0 78.5 -9t70.5 -33.5t54.5 -67.5t31.5 -110q0 -15 -11.5 -25t-28.5 -15.5t-36.5 -8t-36.5 -2.5q-10 0 -17.5 4t-9.5 9q-6 22 -12 43.5t-15 37.5t-23 26t-35 10
q-26 0 -40 -16.5t-21 -43.5t-8.5 -61t-1.5 -70q0 -45 2 -88.5t9.5 -77.5t22 -54.5t39.5 -20.5q41 0 58 32t22 83h-59q-13 0 -21 7.5t-8 21.5v85q0 14 8 21t21 7h186q13 0 21 -7t8 -21v-342q0 -20 -19 -20h-56q-9 0 -14 5t-6 11l-3 27q-30 -32 -68.5 -40.5t-74.5 -8.5z
M170 892q0 16 9.5 25.5t24.5 9.5h103q16 0 25.5 -9.5t9.5 -25.5v-110q0 -16 -9.5 -25.5t-25.5 -9.5h-103q-15 0 -24.5 9.5t-9.5 25.5v110z" />
    <glyph glyph-name="Gcommaaccent" unicode="&#x122;" horiz-adv-x="507" 
d="M239 -6q-70 0 -112.5 32t-65.5 84.5t-30.5 119t-7.5 135.5t8.5 131t31.5 108.5t63.5 74t105.5 27.5q40 0 78.5 -9t70.5 -33.5t54.5 -67.5t31.5 -110q0 -15 -11.5 -25t-28.5 -15.5t-36.5 -8t-36.5 -2.5q-10 0 -17.5 4t-9.5 9q-6 22 -12 43.5t-15 37.5t-23 26t-35 10
q-26 0 -40 -16.5t-21 -43.5t-8.5 -61t-1.5 -70q0 -45 2 -88.5t9.5 -77.5t22 -54.5t39.5 -20.5q41 0 58 32t22 83h-59q-13 0 -21 7.5t-8 21.5v85q0 14 8 21t21 7h186q13 0 21 -7t8 -21v-342q0 -20 -19 -20h-56q-9 0 -14 5t-6 11l-3 27q-30 -32 -68.5 -40.5t-74.5 -8.5z
M172 -68q0 16 9 25.5t21 9.5h103q16 0 24.5 -9.5t8.5 -25.5v-94q-5 -57 -44.5 -92t-96.5 -45q-19 -3 -30.5 4t-11.5 26q0 11 -1.5 19t-1.5 10q0 14 9.5 23t24.5 9q2 0 4 2.5t-1 4.5q-7 5 -12 12.5t-5 19.5v101z" />
    <glyph glyph-name="gcommaaccent" unicode="&#x123;" horiz-adv-x="507" 
d="M239 -6q-70 0 -112.5 32t-65.5 84.5t-30.5 119t-7.5 135.5t8.5 131t31.5 108.5t63.5 74t105.5 27.5q40 0 78.5 -9t70.5 -33.5t54.5 -67.5t31.5 -110q0 -15 -11.5 -25t-28.5 -15.5t-36.5 -8t-36.5 -2.5q-10 0 -17.5 4t-9.5 9q-6 22 -12 43.5t-15 37.5t-23 26t-35 10
q-26 0 -40 -16.5t-21 -43.5t-8.5 -61t-1.5 -70q0 -45 2 -88.5t9.5 -77.5t22 -54.5t39.5 -20.5q41 0 58 32t22 83h-59q-13 0 -21 7.5t-8 21.5v85q0 14 8 21t21 7h186q13 0 21 -7t8 -21v-342q0 -20 -19 -20h-56q-9 0 -14 5t-6 11l-3 27q-30 -32 -68.5 -40.5t-74.5 -8.5z
M172 -68q0 16 9 25.5t21 9.5h103q16 0 24.5 -9.5t8.5 -25.5v-94q-5 -57 -44.5 -92t-96.5 -45q-19 -3 -30.5 4t-11.5 26q0 11 -1.5 19t-1.5 10q0 14 9.5 23t24.5 9q2 0 4 2.5t-1 4.5q-7 5 -12 12.5t-5 19.5v101z" />
    <glyph glyph-name="Hcircumflex" unicode="&#x124;" horiz-adv-x="506" 
d="M320 272h-128v-237q0 -16 -9 -25.5t-21 -9.5h-88q-16 0 -25.5 9.5t-9.5 25.5v630q0 15 9.5 24.5t25.5 9.5h88q12 0 21 -9.5t9 -24.5v-245h128v245q0 15 9.5 24.5t25.5 9.5h85q14 0 23.5 -9.5t9.5 -24.5v-630q0 -16 -9.5 -25.5t-23.5 -9.5h-85q-16 0 -25.5 9.5t-9.5 25.5
v237zM260 783l-15 -20q-5 -10 -12.5 -16.5t-15.5 -6.5h-73q-17 0 -27 9t-10 20q0 5 3 11q33 58 51.5 94.5t29 56.5t17 27.5t16.5 7.5h68q8 0 16.5 -4.5t13.5 -11.5l84 -161v1q6 -9 6 -19q0 -13 -9 -22t-26 -9h-77q-9 0 -18 7t-12 14z" />
    <glyph glyph-name="hcircumflex" unicode="&#x125;" horiz-adv-x="506" 
d="M320 272h-128v-237q0 -16 -9 -25.5t-21 -9.5h-88q-16 0 -25.5 9.5t-9.5 25.5v630q0 15 9.5 24.5t25.5 9.5h88q12 0 21 -9.5t9 -24.5v-245h128v245q0 15 9.5 24.5t25.5 9.5h85q14 0 23.5 -9.5t9.5 -24.5v-630q0 -16 -9.5 -25.5t-23.5 -9.5h-85q-16 0 -25.5 9.5t-9.5 25.5
v237zM260 783l-15 -20q-5 -10 -12.5 -16.5t-15.5 -6.5h-73q-17 0 -27 9t-10 20q0 5 3 11q33 58 51.5 94.5t29 56.5t17 27.5t16.5 7.5h68q8 0 16.5 -4.5t13.5 -11.5l84 -161v1q6 -9 6 -19q0 -13 -9 -22t-26 -9h-77q-9 0 -18 7t-12 14z" />
    <glyph glyph-name="Hbar" unicode="&#x126;" horiz-adv-x="506" 
d="M328 242h-138v-207q0 -16 -8.5 -25.5t-21.5 -9.5h-83q-16 0 -25.5 9.5t-9.5 25.5v630q0 15 9.5 24.5t25.5 9.5h83q13 0 21.5 -9.5t8.5 -24.5v-94h138v94q0 15 9.5 24.5t25.5 9.5h80q14 0 23.5 -9.5t9.5 -24.5v-630q0 -16 -9.5 -25.5t-23.5 -9.5h-80q-16 0 -25.5 9.5
t-9.5 25.5v207zM328 370v73h-138v-73h138z" />
    <glyph glyph-name="hbar" unicode="&#x127;" horiz-adv-x="506" 
d="M328 242h-138v-207q0 -16 -8.5 -25.5t-21.5 -9.5h-83q-16 0 -25.5 9.5t-9.5 25.5v630q0 15 9.5 24.5t25.5 9.5h83q13 0 21.5 -9.5t8.5 -24.5v-94h138v94q0 15 9.5 24.5t25.5 9.5h80q14 0 23.5 -9.5t9.5 -24.5v-630q0 -16 -9.5 -25.5t-23.5 -9.5h-80q-16 0 -25.5 9.5
t-9.5 25.5v207zM328 370v73h-138v-73h138z" />
    <glyph glyph-name="Itilde" unicode="&#x128;" horiz-adv-x="230" 
d="M38 665q0 15 9.5 24.5t25.5 9.5h83q14 0 22 -9.5t8 -24.5v-630q0 -16 -8 -25.5t-22 -9.5h-83q-16 0 -25.5 9.5t-9.5 25.5v630zM-38 793q-15 0 -23 9t-8 23q-2 26 2 52t16 47t33.5 34t56.5 13q32 0 52 -12t38 -29q6 22 29 22h73q14 0 23.5 -8.5t11.5 -20.5q1 -7 1.5 -15
t0.5 -16q0 -22 -5.5 -43.5t-18 -39t-34 -28t-53.5 -10.5q-26 0 -47.5 11.5t-37.5 25.5q-8 -15 -33 -15h-77z" />
    <glyph glyph-name="itilde" unicode="&#x129;" horiz-adv-x="230" 
d="M38 665q0 15 9.5 24.5t25.5 9.5h83q14 0 22 -9.5t8 -24.5v-630q0 -16 -8 -25.5t-22 -9.5h-83q-16 0 -25.5 9.5t-9.5 25.5v630zM-38 793q-15 0 -23 9t-8 23q-2 26 2 52t16 47t33.5 34t56.5 13q32 0 52 -12t38 -29q6 22 29 22h73q14 0 23.5 -8.5t11.5 -20.5q1 -7 1.5 -15
t0.5 -16q0 -22 -5.5 -43.5t-18 -39t-34 -28t-53.5 -10.5q-26 0 -47.5 11.5t-37.5 25.5q-8 -15 -33 -15h-77z" />
    <glyph glyph-name="Imacron" unicode="&#x12a;" horiz-adv-x="405" 
d="M128 665q0 15 9.5 24.5t25.5 9.5h83q14 0 22 -9.5t8 -24.5v-630q0 -16 -8 -25.5t-22 -9.5h-83q-16 0 -25.5 9.5t-9.5 25.5v630zM322 916q14 0 22 -7.5t8 -22.5v-82q0 -16 -8 -25t-22 -9h-256q-12 0 -21 9t-9 25v82q0 15 9 22.5t21 7.5h256z" />
    <glyph glyph-name="imacron" unicode="&#x12b;" horiz-adv-x="405" 
d="M128 665q0 15 9.5 24.5t25.5 9.5h83q14 0 22 -9.5t8 -24.5v-630q0 -16 -8 -25.5t-22 -9.5h-83q-16 0 -25.5 9.5t-9.5 25.5v630zM322 916q14 0 22 -7.5t8 -22.5v-82q0 -16 -8 -25t-22 -9h-256q-12 0 -21 9t-9 25v82q0 15 9 22.5t21 7.5h256z" />
    <glyph glyph-name="Ibreve" unicode="&#x12c;" horiz-adv-x="296" 
d="M70 665q0 15 9.5 24.5t25.5 9.5h83q14 0 22 -9.5t8 -24.5v-630q0 -16 -8 -25.5t-22 -9.5h-83q-16 0 -25.5 9.5t-9.5 25.5v630zM94 934q8 0 18.5 -11t11.5 -22q1 -5 4.5 -10t10.5 -5q5 0 9 4.5t4 9.5q0 15 7 24.5t21 9.5h75q16 0 25.5 -9.5t9.5 -24.5q0 -33 -12 -62.5
t-32.5 -51.5t-48 -35t-58.5 -13q-32 0 -60 13t-48.5 35t-32.5 51.5t-13 62.5q0 15 9 24.5t25 9.5h75z" />
    <glyph glyph-name="ibreve" unicode="&#x12d;" horiz-adv-x="296" 
d="M70 665q0 15 9.5 24.5t25.5 9.5h83q14 0 22 -9.5t8 -24.5v-630q0 -16 -8 -25.5t-22 -9.5h-83q-16 0 -25.5 9.5t-9.5 25.5v630zM94 934q8 0 18.5 -11t11.5 -22q1 -5 4.5 -10t10.5 -5q5 0 9 4.5t4 9.5q0 15 7 24.5t21 9.5h75q16 0 25.5 -9.5t9.5 -24.5q0 -33 -12 -62.5
t-32.5 -51.5t-48 -35t-58.5 -13q-32 0 -60 13t-48.5 35t-32.5 51.5t-13 62.5q0 15 9 24.5t25 9.5h75z" />
    <glyph glyph-name="Iogonek" unicode="&#x12e;" horiz-adv-x="204" 
d="M21 665q0 15 9.5 24.5t25.5 9.5h83q14 0 22 -9.5t8 -24.5v-630q0 -16 -8 -25.5t-22 -9.5h-83q-16 0 -25.5 9.5t-9.5 25.5v630zM128 61q10 0 17 -7.5t14 -13.5t8.5 -14.5t1.5 -10.5q0 -3 -9.5 -12t-23.5 -21t-30.5 -25.5t-30 -25.5t-22.5 -20.5t-7 -10.5q2 -3 9 -1.5t16 6
l20 10l21 10.5q12 5 24.5 -3t15.5 -26l9 -56q2 -11 0.5 -17t-4 -9.5t-5 -5l-2.5 -1.5q-29 -15 -56 -21.5t-47 -6.5q-60 0 -94.5 29t-34.5 83q0 23 6.5 43t24.5 40.5t49 41.5t80 45h50z" />
    <glyph glyph-name="iogonek" unicode="&#x12f;" horiz-adv-x="204" 
d="M21 665q0 15 9.5 24.5t25.5 9.5h83q14 0 22 -9.5t8 -24.5v-630q0 -16 -8 -25.5t-22 -9.5h-83q-16 0 -25.5 9.5t-9.5 25.5v630zM128 61q10 0 17 -7.5t14 -13.5t8.5 -14.5t1.5 -10.5q0 -3 -9.5 -12t-23.5 -21t-30.5 -25.5t-30 -25.5t-22.5 -20.5t-7 -10.5q2 -3 9 -1.5t16 6
l20 10l21 10.5q12 5 24.5 -3t15.5 -26l9 -56q2 -11 0.5 -17t-4 -9.5t-5 -5l-2.5 -1.5q-29 -15 -56 -21.5t-47 -6.5q-60 0 -94.5 29t-34.5 83q0 23 6.5 43t24.5 40.5t49 41.5t80 45h50z" />
    <glyph glyph-name="Idotaccent" unicode="&#x130;" horiz-adv-x="231" 
d="M41 665q0 15 9.5 24.5t25.5 9.5h83q14 0 22 -9.5t8 -24.5v-630q0 -16 -8 -25.5t-22 -9.5h-83q-16 0 -25.5 9.5t-9.5 25.5v630zM24 892q0 16 9.5 25.5t24.5 9.5h103q16 0 25.5 -9.5t9.5 -25.5v-110q0 -16 -9.5 -25.5t-25.5 -9.5h-103q-15 0 -24.5 9.5t-9.5 25.5v110z" />
    <glyph glyph-name="IJ" unicode="&#x132;" horiz-adv-x="679" 
d="M99 665q0 15 9.5 24.5t25.5 9.5h83q14 0 22 -9.5t8 -24.5v-630q0 -16 -8 -25.5t-22 -9.5h-83q-16 0 -25.5 9.5t-9.5 25.5v630zM275 46q11 49 17.5 70t8.5 26q2 4 8 5.5t12 1.5q19 0 36.5 -7t25.5 -7q22 0 33.5 6t16.5 19t5.5 33.5t0.5 49.5v426q0 14 7.5 22t21.5 8h83
q14 0 21.5 -8t7.5 -22v-424q0 -58 -7 -104.5t-27.5 -79.5t-56.5 -50.5t-94 -17.5q-19 0 -40 4t-39 11t-29.5 16.5t-11.5 21.5z" />
    <glyph glyph-name="ij" unicode="&#x133;" horiz-adv-x="679" 
d="M99 665q0 15 9.5 24.5t25.5 9.5h83q14 0 22 -9.5t8 -24.5v-630q0 -16 -8 -25.5t-22 -9.5h-83q-16 0 -25.5 9.5t-9.5 25.5v630zM275 46q11 49 17.5 70t8.5 26q2 4 8 5.5t12 1.5q19 0 36.5 -7t25.5 -7q22 0 33.5 6t16.5 19t5.5 33.5t0.5 49.5v426q0 14 7.5 22t21.5 8h83
q14 0 21.5 -8t7.5 -22v-424q0 -58 -7 -104.5t-27.5 -79.5t-56.5 -50.5t-94 -17.5q-19 0 -40 4t-39 11t-29.5 16.5t-11.5 21.5z" />
    <glyph glyph-name="Jcircumflex" unicode="&#x134;" horiz-adv-x="485" 
d="M37 46q11 49 17.5 70t8.5 26q2 4 8 5.5t12 1.5q19 0 36.5 -7t25.5 -7q22 0 33.5 6t16.5 19t5.5 33.5t0.5 49.5v426q0 14 7.5 22t21.5 8h83q14 0 21.5 -8t7.5 -22v-424q0 -58 -7 -104.5t-27.5 -79.5t-56.5 -50.5t-94 -17.5q-19 0 -40 4t-39 11t-29.5 16.5t-11.5 21.5z
M261 783l-15 -20q-5 -10 -12.5 -16.5t-15.5 -6.5h-73q-17 0 -27 9t-10 20q0 5 3 11q33 58 51.5 94.5t29 56.5t17 27.5t16.5 7.5h68q8 0 16.5 -4.5t13.5 -11.5l84 -161v1q6 -9 6 -19q0 -13 -9 -22t-26 -9h-77q-9 0 -18 7t-12 14z" />
    <glyph glyph-name="jcircumflex" unicode="&#x135;" horiz-adv-x="485" 
d="M37 46q11 49 17.5 70t8.5 26q2 4 8 5.5t12 1.5q19 0 36.5 -7t25.5 -7q22 0 33.5 6t16.5 19t5.5 33.5t0.5 49.5v426q0 14 7.5 22t21.5 8h83q14 0 21.5 -8t7.5 -22v-424q0 -58 -7 -104.5t-27.5 -79.5t-56.5 -50.5t-94 -17.5q-19 0 -40 4t-39 11t-29.5 16.5t-11.5 21.5z
M261 783l-15 -20q-5 -10 -12.5 -16.5t-15.5 -6.5h-73q-17 0 -27 9t-10 20q0 5 3 11q33 58 51.5 94.5t29 56.5t17 27.5t16.5 7.5h68q8 0 16.5 -4.5t13.5 -11.5l84 -161v1q6 -9 6 -19q0 -13 -9 -22t-26 -9h-77q-9 0 -18 7t-12 14z" />
    <glyph glyph-name="Kcommaaccent" unicode="&#x136;" horiz-adv-x="485" 
d="M222 265q-14 -21 -24 -35t-21 -34v-161q0 -16 -8 -25.5t-22 -9.5h-86q-16 0 -25.5 9.5t-9.5 25.5v630q0 15 9.5 24.5t25.5 9.5h86q14 0 22 -9.5t8 -24.5v-188q7 12 15.5 26t22 36t34.5 57t54 89q5 5 13 10.5t16 5.5h94q12 0 20.5 -10t8.5 -24q0 -8 -5 -18l-131 -219
l146 -376q1 -5 1.5 -9t0.5 -8q0 -16 -7.5 -26.5t-22.5 -10.5h-91q-8 0 -19 7.5t-14 16.5zM135 -69q0 16 9 25.5t21 9.5h103q16 0 24.5 -9.5t8.5 -25.5v-94q-5 -57 -44.5 -92t-96.5 -45q-19 -3 -30.5 4t-11.5 26q0 11 -1.5 19t-1.5 10q0 14 9.5 23t24.5 9q2 0 4 2.5t-1 4.5
q-7 5 -12 12.5t-5 19.5v101z" />
    <glyph glyph-name="kcommaaccent" unicode="&#x137;" horiz-adv-x="485" 
d="M222 265q-14 -21 -24 -35t-21 -34v-161q0 -16 -8 -25.5t-22 -9.5h-86q-16 0 -25.5 9.5t-9.5 25.5v630q0 15 9.5 24.5t25.5 9.5h86q14 0 22 -9.5t8 -24.5v-188q7 12 15.5 26t22 36t34.5 57t54 89q5 5 13 10.5t16 5.5h94q12 0 20.5 -10t8.5 -24q0 -8 -5 -18l-131 -219
l146 -376q1 -5 1.5 -9t0.5 -8q0 -16 -7.5 -26.5t-22.5 -10.5h-91q-8 0 -19 7.5t-14 16.5zM135 -69q0 16 9 25.5t21 9.5h103q16 0 24.5 -9.5t8.5 -25.5v-94q-5 -57 -44.5 -92t-96.5 -45q-19 -3 -30.5 4t-11.5 26q0 11 -1.5 19t-1.5 10q0 14 9.5 23t24.5 9q2 0 4 2.5t-1 4.5
q-7 5 -12 12.5t-5 19.5v101z" />
    <glyph glyph-name="Lacute" unicode="&#x139;" horiz-adv-x="375" 
d="M23 665q0 15 9.5 24.5t24.5 9.5h79q16 0 25.5 -9.5t9.5 -24.5v-517h168q14 0 23 -9.5t9 -24.5v-79q0 -16 -9 -25.5t-23 -9.5h-282q-15 0 -24.5 9.5t-9.5 25.5v630zM110 960q2 8 13 15.5t22 7.5h71q16 0 26.5 -14t5.5 -31l-50 -159q-2 -8 -12 -15t-18 -7h-71q-16 0 -27 13
t-7 27z" />
    <glyph glyph-name="lacute" unicode="&#x13a;" horiz-adv-x="375" 
d="M23 665q0 15 9.5 24.5t24.5 9.5h79q16 0 25.5 -9.5t9.5 -24.5v-517h168q14 0 23 -9.5t9 -24.5v-79q0 -16 -9 -25.5t-23 -9.5h-282q-15 0 -24.5 9.5t-9.5 25.5v630zM110 960q2 8 13 15.5t22 7.5h71q16 0 26.5 -14t5.5 -31l-50 -159q-2 -8 -12 -15t-18 -7h-71q-16 0 -27 13
t-7 27z" />
    <glyph glyph-name="Lcommaaccent" unicode="&#x13b;" horiz-adv-x="375" 
d="M23 665q0 15 9.5 24.5t24.5 9.5h79q16 0 25.5 -9.5t9.5 -24.5v-517h168q14 0 23 -9.5t9 -24.5v-79q0 -16 -9 -25.5t-23 -9.5h-282q-15 0 -24.5 9.5t-9.5 25.5v630zM114 -85q0 16 9 25.5t21 9.5h103q16 0 24.5 -9.5t8.5 -25.5v-94q-5 -57 -44.5 -92t-96.5 -45
q-19 -3 -30.5 4t-11.5 26q0 11 -1.5 19t-1.5 10q0 14 9.5 23t24.5 9q2 0 4 2.5t-1 4.5q-7 5 -12 12.5t-5 19.5v101z" />
    <glyph glyph-name="lcommaaccent" unicode="&#x13c;" horiz-adv-x="375" 
d="M23 665q0 15 9.5 24.5t24.5 9.5h79q16 0 25.5 -9.5t9.5 -24.5v-517h168q14 0 23 -9.5t9 -24.5v-79q0 -16 -9 -25.5t-23 -9.5h-282q-15 0 -24.5 9.5t-9.5 25.5v630zM114 -85q0 16 9 25.5t21 9.5h103q16 0 24.5 -9.5t8.5 -25.5v-94q-5 -57 -44.5 -92t-96.5 -45
q-19 -3 -30.5 4t-11.5 26q0 11 -1.5 19t-1.5 10q0 14 9.5 23t24.5 9q2 0 4 2.5t-1 4.5q-7 5 -12 12.5t-5 19.5v101z" />
    <glyph glyph-name="Lcaron" unicode="&#x13d;" horiz-adv-x="375" 
d="M23 665q0 15 9.5 24.5t24.5 9.5h79q16 0 25.5 -9.5t9.5 -24.5v-517h168q14 0 23 -9.5t9 -24.5v-79q0 -16 -9 -25.5t-23 -9.5h-282q-15 0 -24.5 9.5t-9.5 25.5v630zM236 670q0 16 9 25.5t21 9.5h103q16 0 24.5 -9.5t8.5 -25.5v-94q-5 -57 -44.5 -92t-96.5 -45
q-19 -3 -30.5 4t-11.5 26q0 11 -1.5 19t-1.5 10q0 14 9.5 23t24.5 9q2 0 4 2.5t-1 4.5q-7 5 -12 12.5t-5 19.5v101z" />
    <glyph glyph-name="lcaron" unicode="&#x13e;" horiz-adv-x="375" 
d="M23 665q0 15 9.5 24.5t24.5 9.5h79q16 0 25.5 -9.5t9.5 -24.5v-517h168q14 0 23 -9.5t9 -24.5v-79q0 -16 -9 -25.5t-23 -9.5h-282q-15 0 -24.5 9.5t-9.5 25.5v630zM236 670q0 16 9 25.5t21 9.5h103q16 0 24.5 -9.5t8.5 -25.5v-94q-5 -57 -44.5 -92t-96.5 -45
q-19 -3 -30.5 4t-11.5 26q0 11 -1.5 19t-1.5 10q0 14 9.5 23t24.5 9q2 0 4 2.5t-1 4.5q-7 5 -12 12.5t-5 19.5v101z" />
    <glyph glyph-name="Ldot" unicode="&#x13f;" horiz-adv-x="395" 
d="M23 665q0 15 9.5 24.5t24.5 9.5h79q16 0 25.5 -9.5t9.5 -24.5v-517h168q14 0 23 -9.5t9 -24.5v-79q0 -16 -9 -25.5t-23 -9.5h-282q-15 0 -24.5 9.5t-9.5 25.5v630zM230 456q0 16 9.5 25.5t24.5 9.5h103q16 0 25.5 -9.5t9.5 -25.5v-110q0 -16 -9.5 -25.5t-25.5 -9.5h-103
q-15 0 -24.5 9.5t-9.5 25.5v110z" />
    <glyph glyph-name="ldot" unicode="&#x140;" horiz-adv-x="395" 
d="M23 665q0 15 9.5 24.5t24.5 9.5h79q16 0 25.5 -9.5t9.5 -24.5v-517h168q14 0 23 -9.5t9 -24.5v-79q0 -16 -9 -25.5t-23 -9.5h-282q-15 0 -24.5 9.5t-9.5 25.5v630zM230 456q0 16 9.5 25.5t24.5 9.5h103q16 0 25.5 -9.5t9.5 -25.5v-110q0 -16 -9.5 -25.5t-25.5 -9.5h-103
q-15 0 -24.5 9.5t-9.5 25.5v110z" />
    <glyph glyph-name="Lslash" unicode="&#x141;" horiz-adv-x="375" 
d="M229 523q9 7 17 7q5 0 13 -3l71 -50q12 -6 12 -21q0 -11 -7 -18l-355 -306q-9 -6 -20 -6q-5 0 -7 2l-73 49q-14 8 -14 21q0 10 7 17zM23 665q0 15 9.5 24.5t24.5 9.5h79q16 0 25.5 -9.5t9.5 -24.5v-517h168q14 0 23 -9.5t9 -24.5v-79q0 -16 -9 -25.5t-23 -9.5h-282
q-15 0 -24.5 9.5t-9.5 25.5v630z" />
    <glyph glyph-name="lslash" unicode="&#x142;" horiz-adv-x="375" 
d="M229 523q9 7 17 7q5 0 13 -3l71 -50q12 -6 12 -21q0 -11 -7 -18l-355 -306q-9 -6 -20 -6q-5 0 -7 2l-73 49q-14 8 -14 21q0 10 7 17zM23 665q0 15 9.5 24.5t24.5 9.5h79q16 0 25.5 -9.5t9.5 -24.5v-517h168q14 0 23 -9.5t9 -24.5v-79q0 -16 -9 -25.5t-23 -9.5h-282
q-15 0 -24.5 9.5t-9.5 25.5v630z" />
    <glyph glyph-name="Nacute" unicode="&#x143;" horiz-adv-x="530" 
d="M356 1q-7 0 -17.5 7.5t-15.5 13.5l-59 128l-73 158q1 -18 1.5 -36.5t0.5 -31.5v-205q0 -16 -8.5 -25.5t-21.5 -9.5h-83q-16 0 -25.5 9.5t-9.5 25.5v630q0 15 9.5 24.5t25.5 9.5h75q9 0 18 -9.5t14 -19.5l135 -300v295q0 15 9.5 24.5t24.5 9.5h83q13 0 22 -9.5t9 -24.5
v-630q0 -16 -9 -25.5t-22 -9.5zM212 946q2 8 13 15.5t22 7.5h71q16 0 26.5 -14t5.5 -31l-50 -159q-2 -8 -12 -15t-18 -7h-71q-16 0 -27 13t-7 27z" />
    <glyph glyph-name="nacute" unicode="&#x144;" horiz-adv-x="530" 
d="M356 1q-7 0 -17.5 7.5t-15.5 13.5l-59 128l-73 158q1 -18 1.5 -36.5t0.5 -31.5v-205q0 -16 -8.5 -25.5t-21.5 -9.5h-83q-16 0 -25.5 9.5t-9.5 25.5v630q0 15 9.5 24.5t25.5 9.5h75q9 0 18 -9.5t14 -19.5l135 -300v295q0 15 9.5 24.5t24.5 9.5h83q13 0 22 -9.5t9 -24.5
v-630q0 -16 -9 -25.5t-22 -9.5zM212 946q2 8 13 15.5t22 7.5h71q16 0 26.5 -14t5.5 -31l-50 -159q-2 -8 -12 -15t-18 -7h-71q-16 0 -27 13t-7 27z" />
    <glyph glyph-name="Ncommaaccent" unicode="&#x145;" horiz-adv-x="530" 
d="M356 1q-7 0 -17.5 7.5t-15.5 13.5l-59 128l-73 158q1 -18 1.5 -36.5t0.5 -31.5v-205q0 -16 -8.5 -25.5t-21.5 -9.5h-83q-16 0 -25.5 9.5t-9.5 25.5v630q0 15 9.5 24.5t25.5 9.5h75q9 0 18 -9.5t14 -19.5l135 -300v295q0 15 9.5 24.5t24.5 9.5h83q13 0 22 -9.5t9 -24.5
v-630q0 -16 -9 -25.5t-22 -9.5zM192 -57q0 16 9 25.5t21 9.5h103q16 0 24.5 -9.5t8.5 -25.5v-94q-5 -57 -44.5 -92t-96.5 -45q-19 -3 -30.5 4t-11.5 26q0 11 -1.5 19t-1.5 10q0 14 9.5 23t24.5 9q2 0 4 2.5t-1 4.5q-7 5 -12 12.5t-5 19.5v101z" />
    <glyph glyph-name="ncommaaccent" unicode="&#x146;" horiz-adv-x="530" 
d="M356 1q-7 0 -17.5 7.5t-15.5 13.5l-59 128l-73 158q1 -18 1.5 -36.5t0.5 -31.5v-205q0 -16 -8.5 -25.5t-21.5 -9.5h-83q-16 0 -25.5 9.5t-9.5 25.5v630q0 15 9.5 24.5t25.5 9.5h75q9 0 18 -9.5t14 -19.5l135 -300v295q0 15 9.5 24.5t24.5 9.5h83q13 0 22 -9.5t9 -24.5
v-630q0 -16 -9 -25.5t-22 -9.5zM192 -57q0 16 9 25.5t21 9.5h103q16 0 24.5 -9.5t8.5 -25.5v-94q-5 -57 -44.5 -92t-96.5 -45q-19 -3 -30.5 4t-11.5 26q0 11 -1.5 19t-1.5 10q0 14 9.5 23t24.5 9q2 0 4 2.5t-1 4.5q-7 5 -12 12.5t-5 19.5v101z" />
    <glyph glyph-name="Ncaron" unicode="&#x147;" horiz-adv-x="514" 
d="M356 1q-7 0 -17.5 7.5t-15.5 13.5l-59 128l-73 158q1 -18 1.5 -36.5t0.5 -31.5v-205q0 -16 -8.5 -25.5t-21.5 -9.5h-83q-16 0 -25.5 9.5t-9.5 25.5v630q0 15 9.5 24.5t25.5 9.5h75q9 0 18 -9.5t14 -19.5l135 -300v295q0 15 9.5 24.5t24.5 9.5h83q13 0 22 -9.5t9 -24.5
v-630q0 -16 -9 -25.5t-22 -9.5zM254 947q3 7 12 14t18 7h77q17 0 26 -9.5t9 -21.5q0 -10 -6 -19v1l-84 -161q-5 -7 -13.5 -11.5t-16.5 -4.5h-68q-10 0 -16.5 7.5t-17 27.5t-29 56.5t-51.5 94.5q-3 4 -3 11q0 11 10 20t27 9h71q8 0 14.5 -6t13.5 -15l17 -22z" />
    <glyph glyph-name="ncaron" unicode="&#x148;" horiz-adv-x="514" 
d="M356 1q-7 0 -17.5 7.5t-15.5 13.5l-59 128l-73 158q1 -18 1.5 -36.5t0.5 -31.5v-205q0 -16 -8.5 -25.5t-21.5 -9.5h-83q-16 0 -25.5 9.5t-9.5 25.5v630q0 15 9.5 24.5t25.5 9.5h75q9 0 18 -9.5t14 -19.5l135 -300v295q0 15 9.5 24.5t24.5 9.5h83q13 0 22 -9.5t9 -24.5
v-630q0 -16 -9 -25.5t-22 -9.5zM254 947q3 7 12 14t18 7h77q17 0 26 -9.5t9 -21.5q0 -10 -6 -19v1l-84 -161q-5 -7 -13.5 -11.5t-16.5 -4.5h-68q-10 0 -16.5 7.5t-17 27.5t-29 56.5t-51.5 94.5q-3 4 -3 11q0 11 10 20t27 9h71q8 0 14.5 -6t13.5 -15l17 -22z" />
    <glyph glyph-name="Eng" unicode="&#x14a;" horiz-adv-x="514" 
d="M364 1q-7 0 -17.5 7.5t-15.5 13.5l-59 128l-73 158q1 -18 1.5 -36.5t0.5 -31.5v-205q0 -16 -8.5 -25.5t-21.5 -9.5h-83q-16 0 -25.5 9.5t-9.5 25.5v630q0 15 9.5 24.5t25.5 9.5h75q9 0 18 -9.5t14 -19.5l135 -300v295q0 15 9.5 24.5t24.5 9.5h83q13 0 22 -9.5t9 -24.5
v-630q0 -16 -9 -25.5t-22 -9.5zM171 -201q11 49 17.5 70t8.5 26q2 4 8 5.5t12 1.5q19 0 36.5 -7t25.5 -7q22 0 33.5 6t16.5 19t5.5 33.5t0.5 49.5v426q0 14 7.5 22t21.5 8h83q14 0 21.5 -8t7.5 -22v-424q0 -58 -7 -104.5t-27.5 -79.5t-56.5 -50.5t-94 -17.5q-19 0 -40 4
t-39 11t-29.5 16.5t-11.5 21.5z" />
    <glyph glyph-name="Omacron" unicode="&#x14c;" horiz-adv-x="500" 
d="M231 706q115 0 174 -88.5t59 -256.5q0 -69 -8 -134.5t-32.5 -117.5t-69.5 -83.5t-119 -31.5t-119.5 31.5t-70.5 81.5t-33.5 113t-8.5 126q0 68 8.5 133t33 115.5t69.5 81t117 30.5zM303 360q0 34 -2 68.5t-10 62t-24.5 45t-44.5 17.5q-23 0 -35 -17t-17.5 -44.5
t-6.5 -61.5t-1 -68q0 -39 2 -78t9 -71t21.5 -52t39.5 -20q24 0 38 18.5t20.5 49.5t8.5 70.5t2 80.5zM351 916q14 0 22 -7.5t8 -22.5v-82q0 -16 -8 -25t-22 -9h-256q-12 0 -21 9t-9 25v82q0 15 9 22.5t21 7.5h256z" />
    <glyph glyph-name="omacron" unicode="&#x14d;" horiz-adv-x="500" 
d="M231 706q115 0 174 -88.5t59 -256.5q0 -69 -8 -134.5t-32.5 -117.5t-69.5 -83.5t-119 -31.5t-119.5 31.5t-70.5 81.5t-33.5 113t-8.5 126q0 68 8.5 133t33 115.5t69.5 81t117 30.5zM303 360q0 34 -2 68.5t-10 62t-24.5 45t-44.5 17.5q-23 0 -35 -17t-17.5 -44.5
t-6.5 -61.5t-1 -68q0 -39 2 -78t9 -71t21.5 -52t39.5 -20q24 0 38 18.5t20.5 49.5t8.5 70.5t2 80.5zM351 916q14 0 22 -7.5t8 -22.5v-82q0 -16 -8 -25t-22 -9h-256q-12 0 -21 9t-9 25v82q0 15 9 22.5t21 7.5h256z" />
    <glyph glyph-name="Obreve" unicode="&#x14e;" horiz-adv-x="500" 
d="M231 706q115 0 174 -88.5t59 -256.5q0 -69 -8 -134.5t-32.5 -117.5t-69.5 -83.5t-119 -31.5t-119.5 31.5t-70.5 81.5t-33.5 113t-8.5 126q0 68 8.5 133t33 115.5t69.5 81t117 30.5zM303 360q0 34 -2 68.5t-10 62t-24.5 45t-44.5 17.5q-23 0 -35 -17t-17.5 -44.5
t-6.5 -61.5t-1 -68q0 -39 2 -78t9 -71t21.5 -52t39.5 -20q24 0 38 18.5t20.5 49.5t8.5 70.5t2 80.5zM178 934q8 0 18.5 -11t11.5 -22q1 -5 4.5 -10t10.5 -5q5 0 9 4.5t4 9.5q0 15 7 24.5t21 9.5h75q16 0 25.5 -9.5t9.5 -24.5q0 -33 -12 -62.5t-32.5 -51.5t-48 -35t-58.5 -13
q-32 0 -60 13t-48.5 35t-32.5 51.5t-13 62.5q0 15 9 24.5t25 9.5h75z" />
    <glyph glyph-name="obreve" unicode="&#x14f;" horiz-adv-x="500" 
d="M231 706q115 0 174 -88.5t59 -256.5q0 -69 -8 -134.5t-32.5 -117.5t-69.5 -83.5t-119 -31.5t-119.5 31.5t-70.5 81.5t-33.5 113t-8.5 126q0 68 8.5 133t33 115.5t69.5 81t117 30.5zM303 360q0 34 -2 68.5t-10 62t-24.5 45t-44.5 17.5q-23 0 -35 -17t-17.5 -44.5
t-6.5 -61.5t-1 -68q0 -39 2 -78t9 -71t21.5 -52t39.5 -20q24 0 38 18.5t20.5 49.5t8.5 70.5t2 80.5zM178 934q8 0 18.5 -11t11.5 -22q1 -5 4.5 -10t10.5 -5q5 0 9 4.5t4 9.5q0 15 7 24.5t21 9.5h75q16 0 25.5 -9.5t9.5 -24.5q0 -33 -12 -62.5t-32.5 -51.5t-48 -35t-58.5 -13
q-32 0 -60 13t-48.5 35t-32.5 51.5t-13 62.5q0 15 9 24.5t25 9.5h75z" />
    <glyph glyph-name="Ohungarumlaut" unicode="&#x150;" horiz-adv-x="500" 
d="M231 706q115 0 174 -88.5t59 -256.5q0 -69 -8 -134.5t-32.5 -117.5t-69.5 -83.5t-119 -31.5t-119.5 31.5t-70.5 81.5t-33.5 113t-8.5 126q0 68 8.5 133t33 115.5t69.5 81t117 30.5zM303 360q0 34 -2 68.5t-10 62t-24.5 45t-44.5 17.5q-23 0 -35 -17t-17.5 -44.5
t-6.5 -61.5t-1 -68q0 -39 2 -78t9 -71t21.5 -52t39.5 -20q24 0 38 18.5t20.5 49.5t8.5 70.5t2 80.5zM278 945q5 7 14 15t20 8h88q14 0 22.5 -9.5t8.5 -22.5q0 -6 -1 -9l-48 -162q-5 -7 -15 -15t-18 -8h-86q-14 0 -24.5 10.5t-10.5 24.5q0 5 1 8zM87 942q4 11 12 18.5t19 7.5
h88q14 0 24.5 -10.5t10.5 -24.5q0 -2 -0.5 -4t-0.5 -4l-52 -158q-5 -8 -12 -16.5t-18 -8.5h-88q-14 0 -25 10.5t-11 24.5q0 6 1 9z" />
    <glyph glyph-name="ohungarumlaut" unicode="&#x151;" horiz-adv-x="500" 
d="M231 706q115 0 174 -88.5t59 -256.5q0 -69 -8 -134.5t-32.5 -117.5t-69.5 -83.5t-119 -31.5t-119.5 31.5t-70.5 81.5t-33.5 113t-8.5 126q0 68 8.5 133t33 115.5t69.5 81t117 30.5zM303 360q0 34 -2 68.5t-10 62t-24.5 45t-44.5 17.5q-23 0 -35 -17t-17.5 -44.5
t-6.5 -61.5t-1 -68q0 -39 2 -78t9 -71t21.5 -52t39.5 -20q24 0 38 18.5t20.5 49.5t8.5 70.5t2 80.5zM278 945q5 7 14 15t20 8h88q14 0 22.5 -9.5t8.5 -22.5q0 -6 -1 -9l-48 -162q-5 -7 -15 -15t-18 -8h-86q-14 0 -24.5 10.5t-10.5 24.5q0 5 1 8zM87 942q4 11 12 18.5t19 7.5
h88q14 0 24.5 -10.5t10.5 -24.5q0 -2 -0.5 -4t-0.5 -4l-52 -158q-5 -8 -12 -16.5t-18 -8.5h-88q-14 0 -25 10.5t-11 24.5q0 6 1 9z" />
    <glyph glyph-name="OE" unicode="&#x152;" horiz-adv-x="789" 
d="M447 556q8 -26 13.5 -61t7.5 -75h152q14 0 22.5 -9.5t8.5 -25.5v-79q0 -15 -8.5 -24.5t-22.5 -9.5h-153q-4 -32 -11 -68t-15 -63h206q16 0 25.5 -9t9.5 -23v-80q0 -16 -9.5 -25.5t-25.5 -9.5h-390q-70 0 -112.5 31.5t-66 81.5t-31.5 113t-8 126q0 68 7.5 133t30 115.5
t64 81t108.5 30.5h405q16 0 25 -9.5t9 -25.5v-82q0 -14 -9 -23.5t-25 -9.5h-207zM320 360q0 22 -1.5 45t-3.5 45t-6 41t-8 33q-4 12 -10.5 19t-13 10t-12.5 3.5t-10 0.5q-24 0 -37.5 -17t-20 -45t-8 -62.5t-1.5 -70.5q0 -39 2 -78t9 -71t20.5 -52t36.5 -20q22 0 34.5 18.5
t19 49.5t8.5 70.5t2 80.5z" />
    <glyph glyph-name="oe" unicode="&#x153;" horiz-adv-x="789" 
d="M447 556q8 -26 13.5 -61t7.5 -75h152q14 0 22.5 -9.5t8.5 -25.5v-79q0 -15 -8.5 -24.5t-22.5 -9.5h-153q-4 -32 -11 -68t-15 -63h206q16 0 25.5 -9t9.5 -23v-80q0 -16 -9.5 -25.5t-25.5 -9.5h-390q-70 0 -112.5 31.5t-66 81.5t-31.5 113t-8 126q0 68 7.5 133t30 115.5
t64 81t108.5 30.5h405q16 0 25 -9.5t9 -25.5v-82q0 -14 -9 -23.5t-25 -9.5h-207zM320 360q0 22 -1.5 45t-3.5 45t-6 41t-8 33q-4 12 -10.5 19t-13 10t-12.5 3.5t-10 0.5q-24 0 -37.5 -17t-20 -45t-8 -62.5t-1.5 -70.5q0 -39 2 -78t9 -71t20.5 -52t36.5 -20q22 0 34.5 18.5
t19 49.5t8.5 70.5t2 80.5z" />
    <glyph glyph-name="Racute" unicode="&#x154;" horiz-adv-x="508" 
d="M184 35q-1 -16 -9.5 -25.5t-20.5 -9.5h-83q-16 0 -25.5 9.5t-9.5 25.5v630q0 15 9.5 24.5t25.5 9.5h162q51 0 90.5 -18.5t66.5 -50.5t40.5 -75.5t13.5 -93.5q0 -57 -14 -103.5t-52 -74.5v-1q5 -15 11.5 -32.5t16 -43.5t22.5 -65.5t33 -98.5q5 -13 -5 -27.5t-25 -14.5h-95
q-10 0 -21 7.5t-13 14.5l-72 214h-46v-201zM184 550v-167h8q48 0 76.5 15t28.5 63q0 47 -24 68t-77 21h-12zM170 944q2 8 13 15.5t22 7.5h71q16 0 26.5 -14t5.5 -31l-50 -159q-2 -8 -12 -15t-18 -7h-71q-16 0 -27 13t-7 27z" />
    <glyph glyph-name="racute" unicode="&#x155;" horiz-adv-x="508" 
d="M184 35q-1 -16 -9.5 -25.5t-20.5 -9.5h-83q-16 0 -25.5 9.5t-9.5 25.5v630q0 15 9.5 24.5t25.5 9.5h162q51 0 90.5 -18.5t66.5 -50.5t40.5 -75.5t13.5 -93.5q0 -57 -14 -103.5t-52 -74.5v-1q5 -15 11.5 -32.5t16 -43.5t22.5 -65.5t33 -98.5q5 -13 -5 -27.5t-25 -14.5h-95
q-10 0 -21 7.5t-13 14.5l-72 214h-46v-201zM184 550v-167h8q48 0 76.5 15t28.5 63q0 47 -24 68t-77 21h-12zM170 944q2 8 13 15.5t22 7.5h71q16 0 26.5 -14t5.5 -31l-50 -159q-2 -8 -12 -15t-18 -7h-71q-16 0 -27 13t-7 27z" />
    <glyph glyph-name="Rcommaaccent" unicode="&#x156;" horiz-adv-x="508" 
d="M184 35q-1 -16 -9.5 -25.5t-20.5 -9.5h-83q-16 0 -25.5 9.5t-9.5 25.5v630q0 15 9.5 24.5t25.5 9.5h162q51 0 90.5 -18.5t66.5 -50.5t40.5 -75.5t13.5 -93.5q0 -57 -14 -103.5t-52 -74.5v-1q5 -15 11.5 -32.5t16 -43.5t22.5 -65.5t33 -98.5q5 -13 -5 -27.5t-25 -14.5h-95
q-10 0 -21 7.5t-13 14.5l-72 214h-46v-201zM184 550v-167h8q48 0 76.5 15t28.5 63q0 47 -24 68t-77 21h-12zM172 -60q0 16 9 25.5t21 9.5h103q16 0 24.5 -9.5t8.5 -25.5v-94q-5 -57 -44.5 -92t-96.5 -45q-19 -3 -30.5 4t-11.5 26q0 11 -1.5 19t-1.5 10q0 14 9.5 23t24.5 9
q2 0 4 2.5t-1 4.5q-7 5 -12 12.5t-5 19.5v101z" />
    <glyph glyph-name="rcommaaccent" unicode="&#x157;" horiz-adv-x="508" 
d="M184 35q-1 -16 -9.5 -25.5t-20.5 -9.5h-83q-16 0 -25.5 9.5t-9.5 25.5v630q0 15 9.5 24.5t25.5 9.5h162q51 0 90.5 -18.5t66.5 -50.5t40.5 -75.5t13.5 -93.5q0 -57 -14 -103.5t-52 -74.5v-1q5 -15 11.5 -32.5t16 -43.5t22.5 -65.5t33 -98.5q5 -13 -5 -27.5t-25 -14.5h-95
q-10 0 -21 7.5t-13 14.5l-72 214h-46v-201zM184 550v-167h8q48 0 76.5 15t28.5 63q0 47 -24 68t-77 21h-12zM172 -60q0 16 9 25.5t21 9.5h103q16 0 24.5 -9.5t8.5 -25.5v-94q-5 -57 -44.5 -92t-96.5 -45q-19 -3 -30.5 4t-11.5 26q0 11 -1.5 19t-1.5 10q0 14 9.5 23t24.5 9
q2 0 4 2.5t-1 4.5q-7 5 -12 12.5t-5 19.5v101z" />
    <glyph glyph-name="Rcaron" unicode="&#x158;" horiz-adv-x="508" 
d="M184 35q-1 -16 -9.5 -25.5t-20.5 -9.5h-83q-16 0 -25.5 9.5t-9.5 25.5v630q0 15 9.5 24.5t25.5 9.5h162q51 0 90.5 -18.5t66.5 -50.5t40.5 -75.5t13.5 -93.5q0 -57 -14 -103.5t-52 -74.5v-1q5 -15 11.5 -32.5t16 -43.5t22.5 -65.5t33 -98.5q5 -13 -5 -27.5t-25 -14.5h-95
q-10 0 -21 7.5t-13 14.5l-72 214h-46v-201zM184 550v-167h8q48 0 76.5 15t28.5 63q0 47 -24 68t-77 21h-12zM226 946q3 7 12 14t18 7h77q17 0 26 -9.5t9 -21.5q0 -10 -6 -19v1l-84 -161q-5 -7 -13.5 -11.5t-16.5 -4.5h-68q-10 0 -16.5 7.5t-17 27.5t-29 56.5t-51.5 94.5
q-3 4 -3 11q0 11 10 20t27 9h71q8 0 14.5 -6t13.5 -15l17 -22z" />
    <glyph glyph-name="rcaron" unicode="&#x159;" horiz-adv-x="508" 
d="M184 35q-1 -16 -9.5 -25.5t-20.5 -9.5h-83q-16 0 -25.5 9.5t-9.5 25.5v630q0 15 9.5 24.5t25.5 9.5h162q51 0 90.5 -18.5t66.5 -50.5t40.5 -75.5t13.5 -93.5q0 -57 -14 -103.5t-52 -74.5v-1q5 -15 11.5 -32.5t16 -43.5t22.5 -65.5t33 -98.5q5 -13 -5 -27.5t-25 -14.5h-95
q-10 0 -21 7.5t-13 14.5l-72 214h-46v-201zM184 550v-167h8q48 0 76.5 15t28.5 63q0 47 -24 68t-77 21h-12zM226 946q3 7 12 14t18 7h77q17 0 26 -9.5t9 -21.5q0 -10 -6 -19v1l-84 -161q-5 -7 -13.5 -11.5t-16.5 -4.5h-68q-10 0 -16.5 7.5t-17 27.5t-29 56.5t-51.5 94.5
q-3 4 -3 11q0 11 10 20t27 9h71q8 0 14.5 -6t13.5 -15l17 -22z" />
    <glyph glyph-name="Sacute" unicode="&#x15a;" horiz-adv-x="453" 
d="M23 512q0 90 48 143t141 53q34 0 66.5 -7.5t61 -26t51.5 -50t38 -79.5q4 -15 0.5 -23t-17.5 -15q-20 -9 -42 -16.5t-42 -14.5q-14 -5 -28 2.5t-17 24.5q-5 24 -22 41.5t-43 17.5q-8 0 -17.5 -3.5t-17.5 -10.5t-13.5 -18.5t-5.5 -26.5q0 -21 11.5 -35.5t32.5 -28.5
t50.5 -30t65.5 -40q19 -12 39 -28t36 -37.5t26 -49t10 -63.5q0 -43 -16.5 -78.5t-45 -62t-65.5 -41.5t-79 -16t-76 12t-60 36.5t-44 55.5t-28 69q-4 18 3.5 27t20.5 16l63 26q12 5 26.5 0.5t22.5 -22.5q13 -32 29.5 -55.5t46.5 -23.5q26 0 42 17t16 35q0 31 -19.5 49
t-53.5 41q-35 24 -70 48.5t-63 53t-45 61t-17 73.5zM165 943q2 8 13 15.5t22 7.5h71q16 0 26.5 -14t5.5 -31l-50 -159q-2 -8 -12 -15t-18 -7h-71q-16 0 -27 13t-7 27z" />
    <glyph glyph-name="sacute" unicode="&#x15b;" horiz-adv-x="453" 
d="M23 512q0 90 48 143t141 53q34 0 66.5 -7.5t61 -26t51.5 -50t38 -79.5q4 -15 0.5 -23t-17.5 -15q-20 -9 -42 -16.5t-42 -14.5q-14 -5 -28 2.5t-17 24.5q-5 24 -22 41.5t-43 17.5q-8 0 -17.5 -3.5t-17.5 -10.5t-13.5 -18.5t-5.5 -26.5q0 -21 11.5 -35.5t32.5 -28.5
t50.5 -30t65.5 -40q19 -12 39 -28t36 -37.5t26 -49t10 -63.5q0 -43 -16.5 -78.5t-45 -62t-65.5 -41.5t-79 -16t-76 12t-60 36.5t-44 55.5t-28 69q-4 18 3.5 27t20.5 16l63 26q12 5 26.5 0.5t22.5 -22.5q13 -32 29.5 -55.5t46.5 -23.5q26 0 42 17t16 35q0 31 -19.5 49
t-53.5 41q-35 24 -70 48.5t-63 53t-45 61t-17 73.5zM165 943q2 8 13 15.5t22 7.5h71q16 0 26.5 -14t5.5 -31l-50 -159q-2 -8 -12 -15t-18 -7h-71q-16 0 -27 13t-7 27z" />
    <glyph glyph-name="Scircumflex" unicode="&#x15c;" horiz-adv-x="453" 
d="M23 512q0 90 48 143t141 53q34 0 66.5 -7.5t61 -26t51.5 -50t38 -79.5q4 -15 0.5 -23t-17.5 -15q-20 -9 -42 -16.5t-42 -14.5q-14 -5 -28 2.5t-17 24.5q-5 24 -22 41.5t-43 17.5q-8 0 -17.5 -3.5t-17.5 -10.5t-13.5 -18.5t-5.5 -26.5q0 -21 11.5 -35.5t32.5 -28.5
t50.5 -30t65.5 -40q19 -12 39 -28t36 -37.5t26 -49t10 -63.5q0 -43 -16.5 -78.5t-45 -62t-65.5 -41.5t-79 -16t-76 12t-60 36.5t-44 55.5t-28 69q-4 18 3.5 27t20.5 16l63 26q12 5 26.5 0.5t22.5 -22.5q13 -32 29.5 -55.5t46.5 -23.5q26 0 42 17t16 35q0 31 -19.5 49
t-53.5 41q-35 24 -70 48.5t-63 53t-45 61t-17 73.5zM202 783l-15 -20q-5 -10 -12.5 -16.5t-15.5 -6.5h-73q-17 0 -27 9t-10 20q0 5 3 11q33 58 51.5 94.5t29 56.5t17 27.5t16.5 7.5h68q8 0 16.5 -4.5t13.5 -11.5l84 -161v1q6 -9 6 -19q0 -13 -9 -22t-26 -9h-77q-9 0 -18 7
t-12 14z" />
    <glyph glyph-name="scircumflex" unicode="&#x15d;" horiz-adv-x="453" 
d="M23 512q0 90 48 143t141 53q34 0 66.5 -7.5t61 -26t51.5 -50t38 -79.5q4 -15 0.5 -23t-17.5 -15q-20 -9 -42 -16.5t-42 -14.5q-14 -5 -28 2.5t-17 24.5q-5 24 -22 41.5t-43 17.5q-8 0 -17.5 -3.5t-17.5 -10.5t-13.5 -18.5t-5.5 -26.5q0 -21 11.5 -35.5t32.5 -28.5
t50.5 -30t65.5 -40q19 -12 39 -28t36 -37.5t26 -49t10 -63.5q0 -43 -16.5 -78.5t-45 -62t-65.5 -41.5t-79 -16t-76 12t-60 36.5t-44 55.5t-28 69q-4 18 3.5 27t20.5 16l63 26q12 5 26.5 0.5t22.5 -22.5q13 -32 29.5 -55.5t46.5 -23.5q26 0 42 17t16 35q0 31 -19.5 49
t-53.5 41q-35 24 -70 48.5t-63 53t-45 61t-17 73.5zM202 783l-15 -20q-5 -10 -12.5 -16.5t-15.5 -6.5h-73q-17 0 -27 9t-10 20q0 5 3 11q33 58 51.5 94.5t29 56.5t17 27.5t16.5 7.5h68q8 0 16.5 -4.5t13.5 -11.5l84 -161v1q6 -9 6 -19q0 -13 -9 -22t-26 -9h-77q-9 0 -18 7
t-12 14z" />
    <glyph glyph-name="Scedilla" unicode="&#x15e;" horiz-adv-x="453" 
d="M23 512q0 90 48 143t141 53q34 0 66.5 -7.5t61 -26t51.5 -50t38 -79.5q4 -15 0.5 -23t-17.5 -15q-20 -9 -42 -16.5t-42 -14.5q-14 -5 -28 2.5t-17 24.5q-5 24 -22 41.5t-43 17.5q-8 0 -17.5 -3.5t-17.5 -10.5t-13.5 -18.5t-5.5 -26.5q0 -21 11.5 -35.5t32.5 -28.5
t50.5 -30t65.5 -40q19 -12 39 -28t36 -37.5t26 -49t10 -63.5q0 -43 -16.5 -78.5t-45 -62t-65.5 -41.5t-79 -16t-76 12t-60 36.5t-44 55.5t-28 69q-4 18 3.5 27t20.5 16l63 26q12 5 26.5 0.5t22.5 -22.5q13 -32 29.5 -55.5t46.5 -23.5q26 0 42 17t16 35q0 31 -19.5 49
t-53.5 41q-35 24 -70 48.5t-63 53t-45 61t-17 73.5zM232 55h48q9 0 14 -5.5t5 -12.5t-3 -11l-27 -36q19 -12 31.5 -31.5t12.5 -45.5q0 -27 -10.5 -48.5t-28 -36t-39 -22.5t-42.5 -8q-9 0 -25 1.5t-31 6t-24.5 12.5t-5.5 20l16 49q4 13 20 13q5 0 20.5 -6t31.5 -6
q10 0 17 4.5t7 17.5q0 6 -11.5 8t-25 4.5t-24.5 8t-11 19.5q0 10 5 18q22 32 31.5 50t20.5 26l14 9z" />
    <glyph glyph-name="scedilla" unicode="&#x15f;" horiz-adv-x="453" 
d="M23 512q0 90 48 143t141 53q34 0 66.5 -7.5t61 -26t51.5 -50t38 -79.5q4 -15 0.5 -23t-17.5 -15q-20 -9 -42 -16.5t-42 -14.5q-14 -5 -28 2.5t-17 24.5q-5 24 -22 41.5t-43 17.5q-8 0 -17.5 -3.5t-17.5 -10.5t-13.5 -18.5t-5.5 -26.5q0 -21 11.5 -35.5t32.5 -28.5
t50.5 -30t65.5 -40q19 -12 39 -28t36 -37.5t26 -49t10 -63.5q0 -43 -16.5 -78.5t-45 -62t-65.5 -41.5t-79 -16t-76 12t-60 36.5t-44 55.5t-28 69q-4 18 3.5 27t20.5 16l63 26q12 5 26.5 0.5t22.5 -22.5q13 -32 29.5 -55.5t46.5 -23.5q26 0 42 17t16 35q0 31 -19.5 49
t-53.5 41q-35 24 -70 48.5t-63 53t-45 61t-17 73.5zM232 55h48q9 0 14 -5.5t5 -12.5t-3 -11l-27 -36q19 -12 31.5 -31.5t12.5 -45.5q0 -27 -10.5 -48.5t-28 -36t-39 -22.5t-42.5 -8q-9 0 -25 1.5t-31 6t-24.5 12.5t-5.5 20l16 49q4 13 20 13q5 0 20.5 -6t31.5 -6
q10 0 17 4.5t7 17.5q0 6 -11.5 8t-25 4.5t-24.5 8t-11 19.5q0 10 5 18q22 32 31.5 50t20.5 26l14 9z" />
    <glyph glyph-name="Scaron" unicode="&#x160;" horiz-adv-x="453" 
d="M14 512q0 90 48 143t141 53q34 0 66.5 -7.5t61 -26t51.5 -50t38 -79.5q4 -15 0.5 -23t-17.5 -15q-20 -9 -42 -16.5t-42 -14.5q-14 -5 -28 2.5t-17 24.5q-5 24 -22 41.5t-43 17.5q-8 0 -17.5 -3.5t-17.5 -10.5t-13.5 -18.5t-5.5 -26.5q0 -21 11.5 -35.5t32.5 -28.5
t50.5 -30t65.5 -40q19 -12 39 -28t36 -37.5t26 -49t10 -63.5q0 -43 -16.5 -78.5t-45 -62t-65.5 -41.5t-79 -16t-76 12t-60 36.5t-44 55.5t-28 69q-4 18 3.5 27t20.5 16l63 26q12 5 26.5 0.5t22.5 -22.5q13 -32 29.5 -55.5t46.5 -23.5q26 0 42 17t16 35q0 31 -19.5 49
t-53.5 41q-35 24 -70 48.5t-63 53t-45 61t-17 73.5zM213 1006q3 7 12 14t18 7h77q17 0 26 -9.5t9 -21.5q0 -10 -6 -19v1l-84 -161q-5 -7 -13.5 -11.5t-16.5 -4.5h-68q-10 0 -16.5 7.5t-17 27.5t-29 56.5t-51.5 94.5q-3 4 -3 11q0 11 10 20t27 9h71q8 0 14.5 -6t13.5 -15
l17 -22z" />
    <glyph glyph-name="scaron" unicode="&#x161;" horiz-adv-x="453" 
d="M14 512q0 90 48 143t141 53q34 0 66.5 -7.5t61 -26t51.5 -50t38 -79.5q4 -15 0.5 -23t-17.5 -15q-20 -9 -42 -16.5t-42 -14.5q-14 -5 -28 2.5t-17 24.5q-5 24 -22 41.5t-43 17.5q-8 0 -17.5 -3.5t-17.5 -10.5t-13.5 -18.5t-5.5 -26.5q0 -21 11.5 -35.5t32.5 -28.5
t50.5 -30t65.5 -40q19 -12 39 -28t36 -37.5t26 -49t10 -63.5q0 -43 -16.5 -78.5t-45 -62t-65.5 -41.5t-79 -16t-76 12t-60 36.5t-44 55.5t-28 69q-4 18 3.5 27t20.5 16l63 26q12 5 26.5 0.5t22.5 -22.5q13 -32 29.5 -55.5t46.5 -23.5q26 0 42 17t16 35q0 31 -19.5 49
t-53.5 41q-35 24 -70 48.5t-63 53t-45 61t-17 73.5zM213 1006q3 7 12 14t18 7h77q17 0 26 -9.5t9 -21.5q0 -10 -6 -19v1l-84 -161q-5 -7 -13.5 -11.5t-16.5 -4.5h-68q-10 0 -16.5 7.5t-17 27.5t-29 56.5t-51.5 94.5q-3 4 -3 11q0 11 10 20t27 9h71q8 0 14.5 -6t13.5 -15
l17 -22z" />
    <glyph glyph-name="Tcommaaccent" unicode="&#x162;" horiz-adv-x="490" 
d="M431 700q16 0 23 -9.5t7 -25.5v-79q0 -15 -7 -24.5t-23 -9.5h-107v-517q0 -16 -7.5 -25.5t-23.5 -9.5h-83q-16 0 -25.5 9.5t-9.5 25.5v517h-107q-16 0 -25 9.5t-9 24.5v79q0 16 9 25.5t25 9.5h363zM172 -86q0 16 9 25.5t21 9.5h103q16 0 24.5 -9.5t8.5 -25.5v-94
q-5 -57 -44.5 -92t-96.5 -45q-19 -3 -30.5 4t-11.5 26q0 11 -1.5 19t-1.5 10q0 14 9.5 23t24.5 9q2 0 4 2.5t-1 4.5q-7 5 -12 12.5t-5 19.5v101z" />
    <glyph glyph-name="tcommaaccent" unicode="&#x163;" horiz-adv-x="490" 
d="M431 700q16 0 23 -9.5t7 -25.5v-79q0 -15 -7 -24.5t-23 -9.5h-107v-517q0 -16 -7.5 -25.5t-23.5 -9.5h-83q-16 0 -25.5 9.5t-9.5 25.5v517h-107q-16 0 -25 9.5t-9 24.5v79q0 16 9 25.5t25 9.5h363zM172 -86q0 16 9 25.5t21 9.5h103q16 0 24.5 -9.5t8.5 -25.5v-94
q-5 -57 -44.5 -92t-96.5 -45q-19 -3 -30.5 4t-11.5 26q0 11 -1.5 19t-1.5 10q0 14 9.5 23t24.5 9q2 0 4 2.5t-1 4.5q-7 5 -12 12.5t-5 19.5v101z" />
    <glyph glyph-name="Tcaron" unicode="&#x164;" horiz-adv-x="457" 
d="M405 700q16 0 23 -9.5t7 -25.5v-79q0 -15 -7 -24.5t-23 -9.5h-107v-517q0 -16 -7.5 -25.5t-23.5 -9.5h-83q-16 0 -25.5 9.5t-9.5 25.5v517h-107q-16 0 -25 9.5t-9 24.5v79q0 16 9 25.5t25 9.5h363zM227 944q3 7 12 14t18 7h77q17 0 26 -9.5t9 -21.5q0 -10 -6 -19v1
l-84 -161q-5 -7 -13.5 -11.5t-16.5 -4.5h-68q-10 0 -16.5 7.5t-17 27.5t-29 56.5t-51.5 94.5q-3 4 -3 11q0 11 10 20t27 9h71q8 0 14.5 -6t13.5 -15l17 -22z" />
    <glyph glyph-name="tcaron" unicode="&#x165;" horiz-adv-x="457" 
d="M405 700q16 0 23 -9.5t7 -25.5v-79q0 -15 -7 -24.5t-23 -9.5h-107v-517q0 -16 -7.5 -25.5t-23.5 -9.5h-83q-16 0 -25.5 9.5t-9.5 25.5v517h-107q-16 0 -25 9.5t-9 24.5v79q0 16 9 25.5t25 9.5h363zM227 944q3 7 12 14t18 7h77q17 0 26 -9.5t9 -21.5q0 -10 -6 -19v1
l-84 -161q-5 -7 -13.5 -11.5t-16.5 -4.5h-68q-10 0 -16.5 7.5t-17 27.5t-29 56.5t-51.5 94.5q-3 4 -3 11q0 11 10 20t27 9h71q8 0 14.5 -6t13.5 -15l17 -22z" />
    <glyph glyph-name="Tbar" unicode="&#x166;" horiz-adv-x="520" 
d="M408 700q16 0 23 -9.5t7 -25.5v-79q0 -15 -7 -24.5t-23 -9.5h-107v-517q0 -16 -7.5 -25.5t-23.5 -9.5h-83q-16 0 -25.5 9.5t-9.5 25.5v517h-107q-16 0 -25 9.5t-9 24.5v79q0 16 9 25.5t25 9.5h363zM354 450q14 0 22 -7.5t8 -22.5v-82q0 -16 -8 -25t-22 -9h-256
q-12 0 -21 9t-9 25v82q0 15 9 22.5t21 7.5h256z" />
    <glyph glyph-name="tbar" unicode="&#x167;" horiz-adv-x="520" 
d="M408 700q16 0 23 -9.5t7 -25.5v-79q0 -15 -7 -24.5t-23 -9.5h-107v-517q0 -16 -7.5 -25.5t-23.5 -9.5h-83q-16 0 -25.5 9.5t-9.5 25.5v517h-107q-16 0 -25 9.5t-9 24.5v79q0 16 9 25.5t25 9.5h363zM354 450q14 0 22 -7.5t8 -22.5v-82q0 -16 -8 -25t-22 -9h-256
q-12 0 -21 9t-9 25v82q0 15 9 22.5t21 7.5h256z" />
    <glyph glyph-name="Utilde" unicode="&#x168;" horiz-adv-x="529" 
d="M446 700q13 0 22 -9.5t9 -25.5v-332q0 -69 -6.5 -130.5t-28.5 -108t-64 -74t-113 -27.5q-69 0 -113 27t-69 72.5t-34.5 104.5t-9.5 122v346q0 16 9.5 25.5t25.5 9.5h92q14 0 22 -9.5t8 -25.5v-331q0 -36 2 -70.5t9 -61.5t20.5 -44t36.5 -17q22 0 35.5 15.5t20.5 41.5
t9 61t2 73v333q0 16 9.5 25.5t24.5 9.5h81zM99 793q-15 0 -23 9t-8 23q-2 26 2 52t16 47t33.5 34t56.5 13q32 0 52 -12t38 -29q6 22 29 22h73q14 0 23.5 -8.5t11.5 -20.5q1 -7 1.5 -15t0.5 -16q0 -22 -5.5 -43.5t-18 -39t-34 -28t-53.5 -10.5q-26 0 -47.5 11.5t-37.5 25.5
q-8 -15 -33 -15h-77z" />
    <glyph glyph-name="utilde" unicode="&#x169;" horiz-adv-x="529" 
d="M446 700q13 0 22 -9.5t9 -25.5v-332q0 -69 -6.5 -130.5t-28.5 -108t-64 -74t-113 -27.5q-69 0 -113 27t-69 72.5t-34.5 104.5t-9.5 122v346q0 16 9.5 25.5t25.5 9.5h92q14 0 22 -9.5t8 -25.5v-331q0 -36 2 -70.5t9 -61.5t20.5 -44t36.5 -17q22 0 35.5 15.5t20.5 41.5
t9 61t2 73v333q0 16 9.5 25.5t24.5 9.5h81zM99 793q-15 0 -23 9t-8 23q-2 26 2 52t16 47t33.5 34t56.5 13q32 0 52 -12t38 -29q6 22 29 22h73q14 0 23.5 -8.5t11.5 -20.5q1 -7 1.5 -15t0.5 -16q0 -22 -5.5 -43.5t-18 -39t-34 -28t-53.5 -10.5q-26 0 -47.5 11.5t-37.5 25.5
q-8 -15 -33 -15h-77z" />
    <glyph glyph-name="Umacron" unicode="&#x16a;" horiz-adv-x="529" 
d="M446 700q13 0 22 -9.5t9 -25.5v-332q0 -69 -6.5 -130.5t-28.5 -108t-64 -74t-113 -27.5q-69 0 -113 27t-69 72.5t-34.5 104.5t-9.5 122v346q0 16 9.5 25.5t25.5 9.5h92q14 0 22 -9.5t8 -25.5v-331q0 -36 2 -70.5t9 -61.5t20.5 -44t36.5 -17q22 0 35.5 15.5t20.5 41.5
t9 61t2 73v333q0 16 9.5 25.5t24.5 9.5h81zM379 923q14 0 22 -7.5t8 -22.5v-82q0 -16 -8 -25t-22 -9h-256q-12 0 -21 9t-9 25v82q0 15 9 22.5t21 7.5h256z" />
    <glyph glyph-name="umacron" unicode="&#x16b;" horiz-adv-x="529" 
d="M446 700q13 0 22 -9.5t9 -25.5v-332q0 -69 -6.5 -130.5t-28.5 -108t-64 -74t-113 -27.5q-69 0 -113 27t-69 72.5t-34.5 104.5t-9.5 122v346q0 16 9.5 25.5t25.5 9.5h92q14 0 22 -9.5t8 -25.5v-331q0 -36 2 -70.5t9 -61.5t20.5 -44t36.5 -17q22 0 35.5 15.5t20.5 41.5
t9 61t2 73v333q0 16 9.5 25.5t24.5 9.5h81zM379 923q14 0 22 -7.5t8 -22.5v-82q0 -16 -8 -25t-22 -9h-256q-12 0 -21 9t-9 25v82q0 15 9 22.5t21 7.5h256z" />
    <glyph glyph-name="Ubreve" unicode="&#x16c;" horiz-adv-x="526" 
d="M445 700q13 0 22 -9.5t9 -25.5v-332q0 -69 -6.5 -130.5t-28.5 -108t-64 -74t-113 -27.5q-69 0 -113 27t-69 72.5t-34.5 104.5t-9.5 122v346q0 16 9.5 25.5t25.5 9.5h92q14 0 22 -9.5t8 -25.5v-331q0 -36 2 -70.5t9 -61.5t20.5 -44t36.5 -17q22 0 35.5 15.5t20.5 41.5
t9 61t2 73v333q0 16 9.5 25.5t24.5 9.5h81zM198 934q8 0 18.5 -11t11.5 -22q1 -5 4.5 -10t10.5 -5q5 0 9 4.5t4 9.5q0 15 7 24.5t21 9.5h75q16 0 25.5 -9.5t9.5 -24.5q0 -33 -12 -62.5t-32.5 -51.5t-48 -35t-58.5 -13q-32 0 -60 13t-48.5 35t-32.5 51.5t-13 62.5
q0 15 9 24.5t25 9.5h75z" />
    <glyph glyph-name="ubreve" unicode="&#x16d;" horiz-adv-x="526" 
d="M445 700q13 0 22 -9.5t9 -25.5v-332q0 -69 -6.5 -130.5t-28.5 -108t-64 -74t-113 -27.5q-69 0 -113 27t-69 72.5t-34.5 104.5t-9.5 122v346q0 16 9.5 25.5t25.5 9.5h92q14 0 22 -9.5t8 -25.5v-331q0 -36 2 -70.5t9 -61.5t20.5 -44t36.5 -17q22 0 35.5 15.5t20.5 41.5
t9 61t2 73v333q0 16 9.5 25.5t24.5 9.5h81zM198 934q8 0 18.5 -11t11.5 -22q1 -5 4.5 -10t10.5 -5q5 0 9 4.5t4 9.5q0 15 7 24.5t21 9.5h75q16 0 25.5 -9.5t9.5 -24.5q0 -33 -12 -62.5t-32.5 -51.5t-48 -35t-58.5 -13q-32 0 -60 13t-48.5 35t-32.5 51.5t-13 62.5
q0 15 9 24.5t25 9.5h75z" />
    <glyph glyph-name="Uring" unicode="&#x16e;" horiz-adv-x="529" 
d="M446 700q13 0 22 -9.5t9 -25.5v-332q0 -69 -6.5 -130.5t-28.5 -108t-64 -74t-113 -27.5q-69 0 -113 27t-69 72.5t-34.5 104.5t-9.5 122v346q0 16 9.5 25.5t25.5 9.5h92q14 0 22 -9.5t8 -25.5v-331q0 -36 2 -70.5t9 -61.5t20.5 -44t36.5 -17q22 0 35.5 15.5t20.5 41.5
t9 61t2 73v333q0 16 9.5 25.5t24.5 9.5h81zM128 857q0 26 9.5 48t26 38t39.5 25t50 9q25 0 47 -9t38.5 -25t26 -38t9.5 -48t-9.5 -48t-26 -38.5t-38.5 -26t-47 -9.5q-27 0 -50 9.5t-39.5 26t-26 38.5t-9.5 48zM242 856q0 -8 9 -8q8 0 8 8t-8 8q-9 0 -9 -8z" />
    <glyph glyph-name="uring" unicode="&#x16f;" horiz-adv-x="529" 
d="M446 700q13 0 22 -9.5t9 -25.5v-332q0 -69 -6.5 -130.5t-28.5 -108t-64 -74t-113 -27.5q-69 0 -113 27t-69 72.5t-34.5 104.5t-9.5 122v346q0 16 9.5 25.5t25.5 9.5h92q14 0 22 -9.5t8 -25.5v-331q0 -36 2 -70.5t9 -61.5t20.5 -44t36.5 -17q22 0 35.5 15.5t20.5 41.5
t9 61t2 73v333q0 16 9.5 25.5t24.5 9.5h81zM128 857q0 26 9.5 48t26 38t39.5 25t50 9q25 0 47 -9t38.5 -25t26 -38t9.5 -48t-9.5 -48t-26 -38.5t-38.5 -26t-47 -9.5q-27 0 -50 9.5t-39.5 26t-26 38.5t-9.5 48zM242 856q0 -8 9 -8q8 0 8 8t-8 8q-9 0 -9 -8z" />
    <glyph glyph-name="Uhungarumlaut" unicode="&#x170;" horiz-adv-x="536" 
d="M446 700q13 0 22 -9.5t9 -25.5v-332q0 -69 -6.5 -130.5t-28.5 -108t-64 -74t-113 -27.5q-69 0 -113 27t-69 72.5t-34.5 104.5t-9.5 122v346q0 16 9.5 25.5t25.5 9.5h92q14 0 22 -9.5t8 -25.5v-331q0 -36 2 -70.5t9 -61.5t20.5 -44t36.5 -17q22 0 35.5 15.5t20.5 41.5
t9 61t2 73v333q0 16 9.5 25.5t24.5 9.5h81zM286 945q5 7 14 15t20 8h88q14 0 22.5 -9.5t8.5 -22.5q0 -6 -1 -9l-48 -162q-5 -7 -15 -15t-18 -8h-86q-14 0 -24.5 10.5t-10.5 24.5q0 5 1 8zM95 942q4 11 12 18.5t19 7.5h88q14 0 24.5 -10.5t10.5 -24.5q0 -2 -0.5 -4t-0.5 -4
l-52 -158q-5 -8 -12 -16.5t-18 -8.5h-88q-14 0 -25 10.5t-11 24.5q0 6 1 9z" />
    <glyph glyph-name="uhungarumlaut" unicode="&#x171;" horiz-adv-x="536" 
d="M446 700q13 0 22 -9.5t9 -25.5v-332q0 -69 -6.5 -130.5t-28.5 -108t-64 -74t-113 -27.5q-69 0 -113 27t-69 72.5t-34.5 104.5t-9.5 122v346q0 16 9.5 25.5t25.5 9.5h92q14 0 22 -9.5t8 -25.5v-331q0 -36 2 -70.5t9 -61.5t20.5 -44t36.5 -17q22 0 35.5 15.5t20.5 41.5
t9 61t2 73v333q0 16 9.5 25.5t24.5 9.5h81zM286 945q5 7 14 15t20 8h88q14 0 22.5 -9.5t8.5 -22.5q0 -6 -1 -9l-48 -162q-5 -7 -15 -15t-18 -8h-86q-14 0 -24.5 10.5t-10.5 24.5q0 5 1 8zM95 942q4 11 12 18.5t19 7.5h88q14 0 24.5 -10.5t10.5 -24.5q0 -2 -0.5 -4t-0.5 -4
l-52 -158q-5 -8 -12 -16.5t-18 -8.5h-88q-14 0 -25 10.5t-11 24.5q0 6 1 9z" />
    <glyph glyph-name="Uogonek" unicode="&#x172;" horiz-adv-x="513" 
d="M446 700q13 0 22 -9.5t9 -25.5v-332q0 -69 -6.5 -130.5t-28.5 -108t-64 -74t-113 -27.5q-69 0 -113 27t-69 72.5t-34.5 104.5t-9.5 122v346q0 16 9.5 25.5t25.5 9.5h92q14 0 22 -9.5t8 -25.5v-331q0 -36 2 -70.5t9 -61.5t20.5 -44t36.5 -17q22 0 35.5 15.5t20.5 41.5
t9 61t2 73v333q0 16 9.5 25.5t24.5 9.5h81zM334 65q10 0 17 -7.5t14 -13.5t8.5 -14.5t1.5 -10.5q0 -3 -9.5 -12t-23.5 -21t-30.5 -25.5t-30 -25.5t-22.5 -20.5t-7 -10.5q2 -3 9 -1.5t16 6l20 10l21 10.5q12 5 24.5 -3t15.5 -26l9 -56q2 -11 0.5 -17t-4 -9.5t-5 -5l-2.5 -1.5
q-29 -15 -56 -21.5t-47 -6.5q-60 0 -94.5 29t-34.5 83q0 23 6.5 43t24.5 40.5t49 41.5t80 45h50z" />
    <glyph glyph-name="uogonek" unicode="&#x173;" horiz-adv-x="513" 
d="M446 700q13 0 22 -9.5t9 -25.5v-332q0 -69 -6.5 -130.5t-28.5 -108t-64 -74t-113 -27.5q-69 0 -113 27t-69 72.5t-34.5 104.5t-9.5 122v346q0 16 9.5 25.5t25.5 9.5h92q14 0 22 -9.5t8 -25.5v-331q0 -36 2 -70.5t9 -61.5t20.5 -44t36.5 -17q22 0 35.5 15.5t20.5 41.5
t9 61t2 73v333q0 16 9.5 25.5t24.5 9.5h81zM334 65q10 0 17 -7.5t14 -13.5t8.5 -14.5t1.5 -10.5q0 -3 -9.5 -12t-23.5 -21t-30.5 -25.5t-30 -25.5t-22.5 -20.5t-7 -10.5q2 -3 9 -1.5t16 6l20 10l21 10.5q12 5 24.5 -3t15.5 -26l9 -56q2 -11 0.5 -17t-4 -9.5t-5 -5l-2.5 -1.5
q-29 -15 -56 -21.5t-47 -6.5q-60 0 -94.5 29t-34.5 83q0 23 6.5 43t24.5 40.5t49 41.5t80 45h50z" />
    <glyph glyph-name="Wcircumflex" unicode="&#x174;" horiz-adv-x="843" 
d="M535 285q7 26 13 48t11.5 44t11.5 47.5t14.5 60t19.5 81t26 110.5q3 9 11 16t17 7h87q14 0 22 -11.5t7 -24.5l-175 -643q-5 -6 -12.5 -13t-15.5 -7h-81q-8 0 -16 5t-10 12l-88 368v-3l-84 -365q-2 -7 -10 -12t-17 -5h-80q-8 0 -15.5 7t-11.5 13q-44 157 -89 321.5
t-87 321.5q-1 13 7.5 24.5t20.5 11.5h94q8 0 16 -5.5t10 -11.5l99 -397l76 391q1 12 22 23h101q10 0 18 -5.5t10 -13.5zM391 783l-15 -20q-5 -10 -12.5 -16.5t-15.5 -6.5h-73q-17 0 -27 9t-10 20q0 5 3 11q33 58 51.5 94.5t29 56.5t17 27.5t16.5 7.5h68q8 0 16.5 -4.5
t13.5 -11.5l84 -161v1q6 -9 6 -19q0 -13 -9 -22t-26 -9h-77q-9 0 -18 7t-12 14z" />
    <glyph glyph-name="wcircumflex" unicode="&#x175;" horiz-adv-x="843" 
d="M535 285q7 26 13 48t11.5 44t11.5 47.5t14.5 60t19.5 81t26 110.5q3 9 11 16t17 7h87q14 0 22 -11.5t7 -24.5l-175 -643q-5 -6 -12.5 -13t-15.5 -7h-81q-8 0 -16 5t-10 12l-88 368v-3l-84 -365q-2 -7 -10 -12t-17 -5h-80q-8 0 -15.5 7t-11.5 13q-44 157 -89 321.5
t-87 321.5q-1 13 7.5 24.5t20.5 11.5h94q8 0 16 -5.5t10 -11.5l99 -397l76 391q1 12 22 23h101q10 0 18 -5.5t10 -13.5zM391 783l-15 -20q-5 -10 -12.5 -16.5t-15.5 -6.5h-73q-17 0 -27 9t-10 20q0 5 3 11q33 58 51.5 94.5t29 56.5t17 27.5t16.5 7.5h68q8 0 16.5 -4.5
t13.5 -11.5l84 -161v1q6 -9 6 -19q0 -13 -9 -22t-26 -9h-77q-9 0 -18 7t-12 14z" />
    <glyph glyph-name="Ycircumflex" unicode="&#x176;" horiz-adv-x="481" 
d="M296 35q0 -16 -8.5 -25.5t-23.5 -9.5h-84q-16 0 -25 9.5t-9 25.5v272l-140 343q-3 6 -3 14q0 14 8 24.5t24 10.5h80q20 0 31.5 -16.5t19.5 -30.5l56 -153q4 11 8.5 23.5t11.5 30.5t17.5 44.5t27.5 65.5q8 15 15 25.5t22 10.5h86q13 0 20 -12.5t7 -27.5q0 -5 -2 -15
l-139 -337v-272zM242 783l-15 -20q-5 -10 -12.5 -16.5t-15.5 -6.5h-73q-17 0 -27 9t-10 20q0 5 3 11q33 58 51.5 94.5t29 56.5t17 27.5t16.5 7.5h68q8 0 16.5 -4.5t13.5 -11.5l84 -161v1q6 -9 6 -19q0 -13 -9 -22t-26 -9h-77q-9 0 -18 7t-12 14z" />
    <glyph glyph-name="ycircumflex" unicode="&#x177;" horiz-adv-x="481" 
d="M296 35q0 -16 -8.5 -25.5t-23.5 -9.5h-84q-16 0 -25 9.5t-9 25.5v272l-140 343q-3 6 -3 14q0 14 8 24.5t24 10.5h80q20 0 31.5 -16.5t19.5 -30.5l56 -153q4 11 8.5 23.5t11.5 30.5t17.5 44.5t27.5 65.5q8 15 15 25.5t22 10.5h86q13 0 20 -12.5t7 -27.5q0 -5 -2 -15
l-139 -337v-272zM242 783l-15 -20q-5 -10 -12.5 -16.5t-15.5 -6.5h-73q-17 0 -27 9t-10 20q0 5 3 11q33 58 51.5 94.5t29 56.5t17 27.5t16.5 7.5h68q8 0 16.5 -4.5t13.5 -11.5l84 -161v1q6 -9 6 -19q0 -13 -9 -22t-26 -9h-77q-9 0 -18 7t-12 14z" />
    </font>
</defs>
</svg>
